<?xml version="1.0" encoding="utf-8"?>
<!-- Generator: Adobe Illustrator 26.0.1, SVG Export Plug-In . SVG Version: 6.00 Build 0)  -->
<svg version="1.1" id="Capa_1" xmlns="http://www.w3.org/2000/svg" xmlns:xlink="http://www.w3.org/1999/xlink" x="0px" y="0px"
	 viewBox="0 0 1077.4 298.2" style="enable-background:new 0 0 1077.4 298.2;" xml:space="preserve">
<style type="text/css">
	.st0{opacity:0.2;}
	.st1{fill:#E10098;}
	.st2{fill:none;stroke:#646463;stroke-width:3.16;stroke-miterlimit:10;}
	.st3{enable-background:new    ;}
	.st4{fill:#646463;}
</style>
<g id="Capa_2_00000081622368798150585450000013727207430495284671_">
	<g id="Capa_14">
		<g class="st0">
			<path class="st1" d="M117.2,67.5c-18.2-0.3-35.9,5.4-50.4,16.3v-49c0-18.1-14.6-32.7-32.7-32.7c0,0,0,0,0,0l0,0v145.8
				c0,45.5,36.7,83.3,82.2,83c45.1-0.3,81.5-37.1,81.2-82.2c0-1,0-2.1-0.1-3.1C195.6,102.7,160.1,68.2,117.2,67.5z M119.8,198.1
				c-27,2.2-50.6-17.9-52.8-44.9c-2.2-27,17.9-50.6,44.9-52.8c27-2.2,50.6,17.9,52.8,44.9c0.2,2.6,0.2,5.3,0,7.9
				C162.8,177.1,143.8,196.1,119.8,198.1z"/>
			<path class="st1" d="M569.5,152.8c2-45.1-33-83.3-78-85.2c-1,0-2.1-0.1-3.1-0.1c-45.5-0.3-82.2,37.5-82.2,83v145.8l0,0
				c18,0,32.7-14.6,32.7-32.7c0,0,0,0,0,0v-49c14.5,10.9,32.3,16.7,50.4,16.3C532.2,230.1,567.7,195.6,569.5,152.8z M536.7,145.2
				c2.2,27-17.9,50.6-44.9,52.8c-27,2.2-50.6-17.9-52.8-44.9s17.9-50.6,44.9-52.8c2.6-0.2,5.3-0.2,7.9,0
				C515.8,102.2,534.8,121.2,536.7,145.2z"/>
			<path class="st1" d="M627.5,69.8v158.7h-32.8V102.6C594.7,84.5,609.4,69.8,627.5,69.8z"/>
			<circle class="st1" cx="612.8" cy="26.4" r="24.5"/>
			<path class="st1" d="M1042.4,3.9V227h-32.7V36.6C1009.7,18.5,1024.4,3.9,1042.4,3.9z"/>
			<path class="st1" d="M382.6,161.4c6.8-44.6-23.9-86.3-68.5-93c-3.5-0.5-7-0.8-10.5-0.9h-1.8h-1.8c-39.7,0.9-73,30.2-79,69.4
				c-1.2,8.1-1.2,16.4,0,24.5c6.1,39.9,40.4,69.5,80.8,69.5c24,0,47.2-8.8,65.1-24.8L343.8,183c-11.4,9.6-25.7,14.9-40.6,15.2h-1.4
				h-1.3c-21.9-0.6-40.7-15.6-46.1-36.8L382.6,161.4z M301.8,100.2c22.4,0,41.9,15.1,47.5,36.8h-95
				C259.9,115.3,279.5,100.1,301.8,100.2L301.8,100.2z"/>
			<path class="st1" d="M983.7,161.4c6.8-44.6-23.9-86.3-68.5-93c-3.5-0.5-7-0.8-10.5-0.9h-1.8h-1.8c-44.5,0.9-80.1,37.2-80,81.7
				c0,4.1,0.3,8.2,0.9,12.3c6.1,39.9,40.4,69.5,80.8,69.5c24,0,47.2-8.8,65.1-24.8L944.9,183c-11.4,9.6-25.7,14.9-40.6,15.2h-2.7
				c-21.9-0.6-40.7-15.6-46.1-36.8L983.7,161.4z M902.9,100.1c22.4,0,41.9,15.1,47.5,36.8h-95C861,115.2,880.5,100.1,902.9,100.1z"
				/>
			<path class="st1" d="M743.2,149.2c0,43.8-36.7,79.4-82,79.4v-32.8c27.2,0,49.2-20.9,49.2-46.6s-22-46.6-49.2-46.6V69.8
				C706.5,69.8,743.2,105.4,743.2,149.2z"/>
			<path class="st1" d="M723.5,149.2c0,43.8,36.7,79.4,81.9,79.4v-32.8c-27.2,0-49.2-20.9-49.2-46.6s22-46.6,49.2-46.6V69.8
				C760.1,69.8,723.5,105.4,723.5,149.2z"/>
		</g>
		<circle class="st2" cx="661.9" cy="149.2" r="79.4"/>
		<circle class="st2" cx="661.9" cy="149.2" r="47.6"/>
		<circle class="st2" cx="804.8" cy="149.2" r="79.4"/>
		<circle class="st2" cx="804.8" cy="149.2" r="47.6"/>
		<line class="st2" x1="661.9" y1="69.8" x2="661.9" y2="228.5"/>
		<line class="st2" x1="804.8" y1="69.8" x2="804.8" y2="228.5"/>
		<rect x="1010.2" y="3.9" class="st2" width="31.9" height="223.1"/>
		
			<ellipse transform="matrix(0.2898 -0.9571 0.9571 0.2898 705.3044 1024.5533)" class="st2" cx="1043" cy="37" rx="32.8" ry="32.8"/>
		<circle class="st2" cx="116.3" cy="149.5" r="82"/>
		<circle class="st2" cx="116.3" cy="149.5" r="49.2"/>
		<rect x="34.4" y="1.9" class="st2" width="32.8" height="147.6"/>
		<circle class="st2" cx="34.4" cy="34.7" r="32.8"/>
		<circle class="st2" cx="487.6" cy="149.1" r="82"/>
		
			<ellipse transform="matrix(0.1602 -0.9871 0.9871 0.1602 262.3515 606.4772)" class="st2" cx="487.6" cy="149.1" rx="49.2" ry="49.2"/>
		<rect x="405.6" y="149.1" class="st2" width="32.8" height="147.6"/>
		<circle class="st2" cx="405.6" cy="263.8" r="32.8"/>
		<circle class="st2" cx="301.8" cy="149.5" r="82"/>
		<circle class="st2" cx="301.8" cy="133.1" r="98.4"/>
		<circle class="st2" cx="301.8" cy="149.5" r="49.2"/>
		<circle class="st2" cx="301.8" cy="133.1" r="65.6"/>
		<line class="st2" x1="310" y1="149.5" x2="379.6" y2="219"/>
		<path class="st2" d="M349.7,219c0,0-9.2-16.9,1.9-28"/>
		<g class="st3">
			<path class="st4" d="M304.4,215.8v-2.4l7.3-9.8h3.7l-7.1,9.8l-1.7-0.5h12.1v2.9H304.4z M312.7,219v-3.2l0.1-2.9V210h3.4v9H312.7z
				"/>
		</g>
		<g class="st3">
			<path class="st4" d="M325,219.3c-1.1,0-2.1-0.1-3.2-0.4c-1-0.3-1.9-0.7-2.7-1.2l1.4-2.7c0.6,0.4,1.3,0.8,2,1
				c0.8,0.2,1.6,0.4,2.3,0.4c0.9,0,1.6-0.2,2.1-0.5c0.5-0.4,0.8-0.8,0.8-1.5c0-0.4-0.1-0.7-0.3-1.1c-0.2-0.3-0.6-0.5-1.1-0.7
				c-0.5-0.2-1.3-0.2-2.2-0.2h-3.9l0.8-8.7h9.4v2.9h-8.1l1.8-1.6l-0.5,6.2l-1.8-1.6h3.3c1.5,0,2.8,0.2,3.7,0.6c0.9,0.4,1.6,1,2,1.7
				c0.4,0.7,0.6,1.5,0.6,2.4s-0.2,1.7-0.7,2.5c-0.5,0.8-1.2,1.4-2.1,1.9C327.7,219.1,326.5,219.3,325,219.3z"/>
		</g>
		<g class="st3">
			<path class="st4" d="M336.4,211c-0.7,0-1.4-0.2-2-0.5c-0.6-0.3-1.1-0.8-1.4-1.4c-0.3-0.6-0.5-1.2-0.5-1.9c0-0.7,0.2-1.3,0.5-1.9
				c0.3-0.6,0.8-1,1.4-1.4c0.6-0.3,1.2-0.5,2-0.5c0.7,0,1.4,0.2,1.9,0.5c0.6,0.3,1,0.8,1.4,1.4c0.3,0.6,0.5,1.2,0.5,1.9
				c0,0.7-0.2,1.3-0.5,1.9c-0.3,0.6-0.8,1-1.4,1.4C337.8,210.8,337.1,211,336.4,211z M336.4,209.3c0.4,0,0.7-0.1,1-0.3
				c0.3-0.2,0.6-0.4,0.7-0.7c0.2-0.3,0.3-0.7,0.3-1.1c0-0.4-0.1-0.8-0.3-1.1c-0.2-0.3-0.4-0.6-0.7-0.7c-0.3-0.2-0.7-0.3-1-0.3
				c-0.4,0-0.7,0.1-1.1,0.3s-0.5,0.4-0.7,0.7c-0.2,0.3-0.3,0.7-0.3,1.1c0,0.4,0.1,0.7,0.3,1.1c0.2,0.3,0.4,0.6,0.7,0.7
				C335.7,209.2,336,209.3,336.4,209.3z"/>
		</g>
		<rect x="211.7" y="137.2" class="st2" width="180.4" height="24.6"/>
		<circle class="st2" cx="903.8" cy="149.5" r="82"/>
		<circle class="st2" cx="903.8" cy="133.1" r="98.4"/>
		<circle class="st2" cx="903.8" cy="149.5" r="49.2"/>
		<circle class="st2" cx="903.8" cy="133.1" r="65.6"/>
		<line class="st2" x1="912" y1="149.5" x2="981.5" y2="219"/>
		<path class="st2" d="M951.6,219c0,0-9.2-16.9,1.9-28"/>
		<g class="st3">
			<path class="st4" d="M906.3,215.8v-2.4l7.3-9.8h3.7l-7.1,9.8l-1.7-0.5h12.1v2.9H906.3z M914.6,219v-3.2l0.1-2.9V210h3.4v9H914.6z
				"/>
		</g>
		<g class="st3">
			<path class="st4" d="M926.9,219.3c-1.1,0-2.1-0.1-3.2-0.4s-1.9-0.7-2.7-1.2l1.4-2.7c0.6,0.4,1.3,0.8,2,1c0.8,0.2,1.6,0.4,2.3,0.4
				c0.9,0,1.6-0.2,2.1-0.5c0.5-0.4,0.8-0.8,0.8-1.5c0-0.4-0.1-0.7-0.3-1.1c-0.2-0.3-0.6-0.5-1.1-0.7c-0.5-0.2-1.3-0.2-2.2-0.2h-3.9
				l0.8-8.7h9.4v2.9h-8.1l1.8-1.6l-0.5,6.2l-1.8-1.6h3.3c1.5,0,2.8,0.2,3.7,0.6s1.6,1,2,1.7c0.4,0.7,0.6,1.5,0.6,2.4
				s-0.2,1.7-0.7,2.5c-0.5,0.8-1.2,1.4-2.1,1.9C929.6,219.1,928.4,219.3,926.9,219.3z"/>
		</g>
		<g class="st3">
			<path class="st4" d="M938.3,211c-0.7,0-1.4-0.2-2-0.5s-1.1-0.8-1.4-1.4c-0.3-0.6-0.5-1.2-0.5-1.9c0-0.7,0.2-1.3,0.5-1.9
				c0.3-0.6,0.8-1,1.4-1.4c0.6-0.3,1.2-0.5,2-0.5s1.4,0.2,1.9,0.5c0.6,0.3,1,0.8,1.4,1.4c0.3,0.6,0.5,1.2,0.5,1.9
				c0,0.7-0.2,1.3-0.5,1.9s-0.8,1-1.4,1.4C939.7,210.8,939.1,211,938.3,211z M938.3,209.3c0.4,0,0.7-0.1,1-0.3
				c0.3-0.2,0.5-0.4,0.7-0.7c0.2-0.3,0.3-0.7,0.3-1.1c0-0.4-0.1-0.8-0.3-1.1c-0.2-0.3-0.4-0.6-0.7-0.7s-0.7-0.3-1-0.3
				c-0.4,0-0.7,0.1-1.1,0.3c-0.3,0.2-0.5,0.4-0.7,0.7c-0.2,0.3-0.3,0.7-0.3,1.1c0,0.4,0.1,0.7,0.3,1.1c0.2,0.3,0.4,0.6,0.7,0.7
				C937.6,209.2,937.9,209.3,938.3,209.3z"/>
		</g>
		<rect x="813.6" y="137.2" class="st2" width="180.4" height="24.6"/>
		<rect x="595.1" y="69.8" class="st2" width="32.8" height="159.4"/>
		<circle class="st2" cx="627.9" cy="102.6" r="32.8"/>
		<circle class="st2" cx="612.3" cy="26.1" r="24.6"/>
	</g>
</g>
</svg>
