<svg xmlns="http://www.w3.org/2000/svg" viewBox="0 0 140.96 164.45"><defs><style>.cls-1{fill:#fff;}</style></defs><g id="Capa_2" data-name="Capa 2"><g id="Colores"><path class="cls-1" d="M47,23.49V47H23.49V0h0A23.5,23.5,0,0,1,47,23.49Z"/><path class="cls-1" d="M141,105.72a58.74,58.74,0,0,1-117.47,0V70.48H47v35.24A35.24,35.24,0,1,0,82.23,70.48H47V47H82.23A58.72,58.72,0,0,1,141,105.72Z"/><rect class="cls-1" y="46.99" width="23.49" height="23.49"/><path class="cls-1" d="M98.84,105.72a5.88,5.88,0,0,1,5.54,7.84,23.51,23.51,0,0,1-44.31,0,5.88,5.88,0,0,1,5.54-7.84h0a6,6,0,0,1,5.57,4,11.75,11.75,0,0,0,22.1,0,5.93,5.93,0,0,1,5.56-4Z"/><rect class="cls-1" x="58.73" y="11.75" width="23.49" height="23.49"/></g></g></svg>