<svg xmlns="http://www.w3.org/2000/svg" viewBox="0 0 1018.75 542.97"><defs><style>.cls-1{fill:#f7ad4c;}.cls-2{fill:#0090d2;}</style></defs><g id="Capa_2" data-name="Capa 2"><g id="Capa_1-2" data-name="Capa 1"><path class="cls-1" d="M28.23,271.49c0,134.35,108.91,243.26,243.26,243.26a242.26,242.26,0,0,0,161.06-61c2.89-1.06,5.77-2.11,8.66-3.14,15-5.34,30.26-10,45.67-13.83a273.31,273.31,0,0,1-109.71,84.81A271.48,271.48,0,0,1,79.52,79.52,271.56,271.56,0,0,1,534.18,202.64H504.87C475.18,101.81,381.92,28.22,271.49,28.22,137.14,28.22,28.23,137.14,28.23,271.49Z"/><path class="cls-2" d="M641.51,402.78a427.1,427.1,0,0,0-181.45,13.81c-37,11.11-72.34,27.2-109.14,39s-76.08,19.16-114.07,12.16C216.43,464,197,456.08,178.92,446A258.71,258.71,0,0,1,132,412.65c34.13,15.28,76.48,16.14,112.93,10.81,38.51-5.64,74.89-20.17,111-34.13,18.13-7,36.3-13.94,54.87-19.66,39.64-12.21,78.89-16.77,120-9.4q4.29.76,8.53,1.68C575.31,369.64,609.52,384.51,641.51,402.78Z"/><path class="cls-2" d="M234.59,385.41c-36.94-12.29-70.7-37.54-99.13-64.13-8.26-7.73-17.65-16.47-28.94-15.73C93,306.45,84,322,86.1,335.34S98.44,359.49,109.75,367c35.77,23.63,82.07,21.47,124.84,18.45Z"/><path class="cls-2" d="M231.23,352.23c-33-25.43-66-56.25-90.95-89.77C117.8,232.29,95.58,181,121,145.83c15.73-21.77,53.7-32.32,77-17.17a36.58,36.58,0,0,1,12.33,13.52c10.16,19.2,1.67,44.39-5.24,63.19-6,16.37-13,33.16-14.26,50.74C188.19,291.91,211.06,325,231.23,352.23Z"/><path class="cls-2" d="M290.67,378.8c25.13-.41,50.18-12.05,71.64-24.28,3.29-1.87,5.81-3.37,10.09-5.86-10.84,3.58-22.11,6.3-33.58,4.67-10.17-1.44-19.85-5.05-29.7-7.85-7.87-2.24-16-4-24.2-3.73-7.23.23-16.68,1.36-21.37,7.62s-2.2,15,2.4,20.55C271.85,377,281.34,379,290.67,378.8Z"/><path class="cls-2" d="M278,199.73q-16.27,0-24-8.72t-7.71-26.36V92.12q0-7.45,3.9-11.35c2.59-2.6,6.27-3.9,11-3.9s8.62,1.3,11.27,3.9,4,6.38,4,11.35v71.52q0,6.27,2.46,9.15a8,8,0,0,0,6.36,2.88,13.14,13.14,0,0,0,2.45-.25c.85-.17,1.78-.31,2.8-.43a4.83,4.83,0,0,1,4.32,2.2q1.44,2.2,1.44,9c0,3.95-.79,6.92-2.37,8.89s-4,3.25-7.29,3.82l-3.9.5A35.22,35.22,0,0,1,278,199.73Z"/><path class="cls-2" d="M339.36,199.73a38.8,38.8,0,0,1-17-3.55,28.42,28.42,0,0,1-11.52-9.75,24.77,24.77,0,0,1-4.15-14.15q0-9.15,4.74-14.4t15.25-7.55q10.52-2.28,28-2.28h9.32v14.23h-9.32a53.26,53.26,0,0,0-10.93.93,13.18,13.18,0,0,0-6.36,2.89,6.62,6.62,0,0,0-2,5,8.31,8.31,0,0,0,2.79,6.44q2.81,2.55,8.05,2.55a15,15,0,0,0,7.55-1.87A14.51,14.51,0,0,0,359,173a14.36,14.36,0,0,0,2-7.71V145.67q0-6.09-3.14-8.64t-10.76-2.54a51.36,51.36,0,0,0-9.15.93,66.46,66.46,0,0,0-11.36,3.31q-4.57,1.7-7.79.5a9.56,9.56,0,0,1-5-4.06,11.09,11.09,0,0,1-1.69-6.27,11.51,11.51,0,0,1,2.2-6.44,13.51,13.51,0,0,1,6.52-4.75,74.68,74.68,0,0,1,15-4.07,87.7,87.7,0,0,1,12.63-1q13.89,0,23,4A27.62,27.62,0,0,1,385,128.81q4.48,8.22,4.49,21.1v34.23q0,7.47-3.56,11.36t-10.34,3.89q-6.94,0-10.59-3.89t-3.64-11.36v-4.4l1,2.37a19.66,19.66,0,0,1-3.9,9.32,20.53,20.53,0,0,1-8,6.1A27.09,27.09,0,0,1,339.36,199.73Z"/><path class="cls-2" d="M291.75,315q-15.25,0-26.36-5.33a39.19,39.19,0,0,1-17-15.17q-5.93-9.82-5.93-23.22a44.08,44.08,0,0,1,5.68-22.62,40.36,40.36,0,0,1,15.59-15.25,45.81,45.81,0,0,1,22.62-5.51,46.53,46.53,0,0,1,16.95,3,35.72,35.72,0,0,1,13.05,8.65,37.49,37.49,0,0,1,8.22,13.64,53.56,53.56,0,0,1,2.79,17.79,6.26,6.26,0,0,1-1.86,5c-1.24,1.08-3.22,1.61-5.93,1.61H267.68V263.27H305.3l-2.71,2.2a25.8,25.8,0,0,0-1.69-10.17,12.65,12.65,0,0,0-5-5.93,15.39,15.39,0,0,0-8.22-2,16.45,16.45,0,0,0-9.07,2.45,15.54,15.54,0,0,0-5.84,7.21,30.08,30.08,0,0,0-2,11.86v1.52q0,12,5.34,17.2t16.52,5.17a45.86,45.86,0,0,0,8.56-.93,54.34,54.34,0,0,0,9.24-2.63c2.93-1.12,5.48-1.32,7.62-.59a9.59,9.59,0,0,1,5,3.73,11.35,11.35,0,0,1,1.95,5.93,12.16,12.16,0,0,1-1.52,6.44,11.1,11.1,0,0,1-5.6,4.83,58,58,0,0,1-12.62,4.07A68.08,68.08,0,0,1,291.75,315Z"/><path class="cls-2" d="M378.68,315a107.85,107.85,0,0,1-15.17-1.1,50.26,50.26,0,0,1-14-4,11.91,11.91,0,0,1-6-4.58,10.87,10.87,0,0,1,.17-11.94,9.24,9.24,0,0,1,11.44-3.48,88.75,88.75,0,0,0,12.79,3.65,57.7,57.7,0,0,0,10.93,1.1c4.18,0,7.17-.6,9-1.78a5.37,5.37,0,0,0,2.71-4.66,4.59,4.59,0,0,0-1.78-3.9,11,11,0,0,0-5-1.87L365,279.36q-10.5-1.86-16.26-7.71t-5.77-15.33a23.83,23.83,0,0,1,5-15.17,32.09,32.09,0,0,1,13.73-9.83,54.13,54.13,0,0,1,20.08-3.47,81,81,0,0,1,13.9,1.1,46.35,46.35,0,0,1,12.2,4,9.86,9.86,0,0,1,5.25,4.41,10.25,10.25,0,0,1,1.19,6,12.44,12.44,0,0,1-2.12,5.76,8.74,8.74,0,0,1-4.83,3.56,11.54,11.54,0,0,1-7.12-.42,73.73,73.73,0,0,0-9.91-3.22,35.2,35.2,0,0,0-8.05-1c-4.63,0-7.91.63-9.83,1.87a5.5,5.5,0,0,0-2.88,4.74,4.83,4.83,0,0,0,1.52,3.65,8.84,8.84,0,0,0,4.75,2l18.81,3.22q10.84,1.68,16.69,7.37t5.85,15.33q0,13.73-10.51,21.27T378.68,315Z"/><path class="cls-2" d="M449.52,345.12q-7.12,0-11-3.9t-3.9-11.35v-86.6c0-4.86,1.27-8.58,3.82-11.19s6.18-3.89,10.93-3.89,8.55,1.3,11.1,3.89,3.81,6.33,3.81,11.19v9.83l-1.86-8.31a21.88,21.88,0,0,1,9.91-12.28,32,32,0,0,1,17.2-4.66A33.75,33.75,0,0,1,521.37,248q4.57,9.66,4.58,23.39,0,13.39-4.58,23.22A33.55,33.55,0,0,1,489.51,315a32.44,32.44,0,0,1-16.78-4.4,21.89,21.89,0,0,1-10-11.53h2v30.85q0,7.45-4,11.35T449.52,345.12ZM480,292.75a14.35,14.35,0,0,0,8.05-2.28,15.47,15.47,0,0,0,5.51-7,30.73,30.73,0,0,0,2-12.12q0-11.36-4.41-16.35a14.24,14.24,0,0,0-11.18-5,15.1,15.1,0,0,0-8.13,2.2,14.66,14.66,0,0,0-5.6,6.86q-2,4.67-2,12.29,0,11.19,4.41,16.27A14.31,14.31,0,0,0,480,292.75Z"/><path class="cls-2" d="M575.94,315q-10.85,0-17.8-4a24.61,24.61,0,0,1-10.42-12q-3.48-8-3.47-20.16V243.27q0-7.46,3.89-11.27t11.19-3.81q7.29,0,11.18,3.81t3.9,11.27V279.7q0,6.1,2.54,9.16c1.7,2,4.35,3.05,8,3.05a12.74,12.74,0,0,0,10-4.41c2.59-2.94,3.9-6.83,3.9-11.69V243.27q0-7.46,3.89-11.27t11.19-3.81q7.27,0,11.18,3.81t3.9,11.27v56.09q0,15.25-14.57,15.25-7.12,0-11-3.89t-3.9-11.36v-9.83l2.71,8.31a28.94,28.94,0,0,1-10.42,12.71A28.19,28.19,0,0,1,575.94,315Z"/><path class="cls-2" d="M666.94,314.61q-7.11,0-11-3.89T652,299.36V243.27c0-4.86,1.27-8.58,3.81-11.19s6.19-3.89,10.93-3.89,8.36,1.3,10.85,3.89,3.72,6.33,3.72,11.19v9.32l-1.86-8.3a28.38,28.38,0,0,1,10.59-11.95,30.41,30.41,0,0,1,16.7-4.49,27.38,27.38,0,0,1,15.67,4.4q6.52,4.41,9.41,13.39h-2.38a29.82,29.82,0,0,1,11.7-13,32.61,32.61,0,0,1,17.28-4.74q9.82,0,16.1,3.81T784,243.52q3.13,8.05,3.13,20.25v35.59q0,7.45-4,11.36t-11.27,3.89q-7.12,0-11-3.89t-3.9-11.36V264.62q0-7.28-2.21-10.51c-1.47-2.14-3.89-3.21-7.28-3.21q-6.29,0-9.58,4.4t-3.3,12.54v31.52q0,7.45-3.9,11.36t-11.18,3.89q-7.29,0-11.19-3.89t-3.9-11.36V264.62q0-7.28-2.2-10.51t-7.29-3.21a11.07,11.07,0,0,0-9.4,4.4q-3.32,4.41-3.31,12.54v31.52Q682.19,314.61,666.94,314.61Z"/><path class="cls-2" d="M824.54,216.15q-8,0-12.28-3.72t-4.32-10.85q0-6.95,4.32-10.68t12.28-3.72q8.31,0,12.54,3.72t4.24,10.68q0,7.13-4.24,10.85T824.54,216.15Zm0,98.46q-7.11,0-11-4.23t-3.9-12.2V244.63c0-5.32,1.3-9.38,3.9-12.21s6.27-4.23,11-4.23,8.62,1.41,11.27,4.23,4,6.89,4,12.21v53.55q0,8-3.9,12.2T824.54,314.61Z"/><path class="cls-2" d="M906.06,315q-12.72,0-20.93-3.9a25.83,25.83,0,0,1-12.29-11.77q-4.07-7.89-4.07-19.75V251.91H863c-3.62,0-6.41-1-8.39-2.88s-3-4.69-3-8.3,1-6.36,3-8.22,4.77-2.8,8.39-2.8h5.76v-10.5q0-7.47,3.9-11.36t11.19-3.9q7.27,0,11.18,3.9t3.9,11.36v10.5h13.89q5.59,0,8.56,2.8t3,8.22q0,5.42-3,8.3t-8.56,2.88H898.94v26.61q0,6.27,3,9.23t9.41,3a20.2,20.2,0,0,0,4.57-.51,18.18,18.18,0,0,1,4.07-.51,5.35,5.35,0,0,1,4.41,1.61q1.7,1.79,1.69,8.05a21.39,21.39,0,0,1-1.52,8.56,9.33,9.33,0,0,1-5.43,5,35.45,35.45,0,0,1-6.43,1.44A48.79,48.79,0,0,1,906.06,315Z"/><path class="cls-2" d="M968.59,315a38.6,38.6,0,0,1-17-3.56A28.29,28.29,0,0,1,940,301.65a24.77,24.77,0,0,1-4.15-14.15q0-9.15,4.75-14.41t15.25-7.54q10.5-2.28,28-2.28h9.32V277.5h-9.32a53.26,53.26,0,0,0-10.93.93,13.28,13.28,0,0,0-6.36,2.88,6.65,6.65,0,0,0-2,5,8.3,8.3,0,0,0,2.8,6.44c1.86,1.7,4.54,2.54,8,2.54a15,15,0,0,0,7.54-1.86,14.61,14.61,0,0,0,5.34-5.17,14.45,14.45,0,0,0,2-7.71V260.89c0-4.06-1-6.94-3.13-8.64s-5.68-2.54-10.77-2.54a51.36,51.36,0,0,0-9.15.93A66.37,66.37,0,0,0,955.88,254q-4.57,1.7-7.8.5a9.61,9.61,0,0,1-5-4.06,11.17,11.17,0,0,1-1.69-6.27,11.59,11.59,0,0,1,2.2-6.44,13.54,13.54,0,0,1,6.53-4.75,74.42,74.42,0,0,1,15-4.07,87.81,87.81,0,0,1,12.63-1q13.89,0,23,4a27.58,27.58,0,0,1,13.56,12.2q4.49,8.22,4.49,21.1v34.23q0,7.45-3.56,11.36t-10.34,3.89q-6.95,0-10.59-3.89t-3.64-11.36V295l1,2.37a19.75,19.75,0,0,1-3.89,9.32,20.64,20.64,0,0,1-8,6.1A27,27,0,0,1,968.59,315Z"/></g></g></svg>