<svg xmlns="http://www.w3.org/2000/svg" viewBox="0 0 952.81 390.6"><defs><style>.cls-1{fill:#e10098;}</style></defs><g id="Capa_2" data-name="Capa 2"><g id="Capa_2-2" data-name="Capa 2"><path class="cls-1" d="M427.82,215.57a46.2,46.2,0,0,0-28.61,9.26V197a18.55,18.55,0,0,0-18.55-18.54h0v82.7c0,25.84,20.8,47.27,46.64,47.13a46.37,46.37,0,0,0,.52-92.73Zm1.47,74.09a27.82,27.82,0,1,1,25.47-25.47A27.83,27.83,0,0,1,429.29,289.66Z"/><path class="cls-1" d="M684.45,264a46.38,46.38,0,0,0-46.06-48.42c-25.83-.15-46.64,21.29-46.64,47.13v82.7h0a18.54,18.54,0,0,0,18.55-18.54V299a46.37,46.37,0,0,0,74.15-35Zm-18.6-4.31a27.82,27.82,0,1,1-25.47-25.47A27.82,27.82,0,0,1,665.85,259.65Z"/><path class="cls-1" d="M717.36,216.89V307H698.75V235.5A18.61,18.61,0,0,1,717.36,216.89Z"/><circle class="cls-1" cx="709.04" cy="192.27" r="13.91"/><path class="cls-1" d="M952.81,179.47V306.06H934.26V198A18.55,18.55,0,0,1,952.81,179.47Z"/><path class="cls-1" d="M578.42,268.88a46.77,46.77,0,0,0,0-13.91,46.36,46.36,0,0,0-44.85-39.4h-2A46.36,46.36,0,0,0,486.73,255a46.77,46.77,0,0,0,0,13.91,46.38,46.38,0,0,0,45.85,39.42,55.4,55.4,0,0,0,36.95-14.05L556.39,281.1a36.87,36.87,0,0,1-23,8.64h-1.53a27.83,27.83,0,0,1-26.18-20.86Zm-45.84-34.77A27.83,27.83,0,0,1,559.52,255H505.63A27.83,27.83,0,0,1,532.58,234.11Z"/><path class="cls-1" d="M919.48,268.87a46.84,46.84,0,0,0,0-13.92,46.36,46.36,0,0,0-44.85-39.4h-2A46.38,46.38,0,0,0,827.78,255a46.84,46.84,0,0,0,0,13.92,46.39,46.39,0,0,0,45.85,39.41,55.43,55.43,0,0,0,37-14l-13.15-13.15a36.87,36.87,0,0,1-23,8.64h-1.53a27.82,27.82,0,0,1-26.18-20.85Zm-45.85-34.78a27.83,27.83,0,0,1,27,20.86H846.69A27.82,27.82,0,0,1,873.63,234.09Z"/><path class="cls-1" d="M783,261.93c0,24.87-20.82,45-46.5,45V288.37c15.41,0,27.9-11.84,27.9-26.44s-12.49-26.44-27.9-26.44v-18.6C762.19,216.89,783,237.05,783,261.93Z"/><path class="cls-1" d="M771.81,261.93c0,24.87,20.82,45,46.5,45V288.37c-15.41,0-27.9-11.84-27.9-26.44s12.49-26.44,27.9-26.44v-18.6C792.63,216.89,771.81,237.05,771.81,261.93Z"/><path id="EXTENSION_LETRA" data-name="EXTENSION LETRA" class="cls-1" d="M111.6,55.8v55.8H55.8V0h0A55.8,55.8,0,0,1,111.6,55.8Z"/><path id="CIRCULO" class="cls-1" d="M334.8,251.1a139.5,139.5,0,0,1-279,0V167.4h55.8v83.7a83.7,83.7,0,1,0,83.7-83.7H111.6V111.6h83.7A139.49,139.49,0,0,1,334.8,251.1Z"/><rect id="PIXEL_IZQUIERDO" data-name="PIXEL IZQUIERDO" class="cls-1" y="111.6" width="55.8" height="55.8"/><path id="SONRISA" class="cls-1" d="M234.76,251.1a14,14,0,0,1,13.16,18.62,55.83,55.83,0,0,1-105.24,0,14,14,0,0,1,13.16-18.62h0a14.1,14.1,0,0,1,13.21,9.48,27.91,27.91,0,0,0,52.5,0,14.1,14.1,0,0,1,13.21-9.48Z"/><rect id="PIXEL_SUPERIOR" data-name="PIXEL SUPERIOR" class="cls-1" x="139.5" y="27.9" width="55.8" height="55.8"/></g></g></svg>