<svg xmlns="http://www.w3.org/2000/svg" viewBox="0 0 572.15 167.02"><defs><style>.cls-1{fill:#e10098;}</style></defs><g id="Capa_2" data-name="Capa 2"><g id="Capa_1-2" data-name="Capa 1"><path class="cls-1" d="M47.16,37.21a46.15,46.15,0,0,0-28.61,9.27V18.66A18.55,18.55,0,0,0,0,.11H0v82.7c0,25.84,20.8,47.28,46.64,47.13a46.37,46.37,0,0,0,.52-92.73Zm1.47,74.09A27.82,27.82,0,1,1,74.1,85.83,27.82,27.82,0,0,1,48.63,111.3Z"/><path class="cls-1" d="M303.79,85.6a46.37,46.37,0,0,0-46.06-48.41C231.9,37,211.09,58.48,211.09,84.31V167h0a18.55,18.55,0,0,0,18.55-18.55V120.65A46.37,46.37,0,0,0,303.79,85.6Zm-18.6-4.3a27.82,27.82,0,1,1-25.47-25.48A27.82,27.82,0,0,1,285.19,81.3Z"/><path class="cls-1" d="M336.7,38.54v90.07H318.09V57.14A18.61,18.61,0,0,1,336.7,38.54Z"/><circle class="cls-1" cx="328.38" cy="13.91" r="13.91"/><path class="cls-1" d="M572.15,1.11v126.6H553.6v-108A18.56,18.56,0,0,1,572.15,1.11Z"/><path class="cls-1" d="M197.76,90.53a46.77,46.77,0,0,0,0-13.91,46.36,46.36,0,0,0-44.85-39.4l-1,0-1,0a46.36,46.36,0,0,0-44.85,39.4,46.77,46.77,0,0,0,0,13.91,46.37,46.37,0,0,0,45.85,39.41,55.4,55.4,0,0,0,37-14l-13.14-13.14a37,37,0,0,1-23,8.64h-1.53A27.85,27.85,0,0,1,125,90.53ZM151.92,55.75a27.83,27.83,0,0,1,26.94,20.87H125A27.84,27.84,0,0,1,151.92,55.75Z"/><path class="cls-1" d="M538.82,90.51a46.77,46.77,0,0,0,0-13.91A46.36,46.36,0,0,0,494,37.2h-2a46.38,46.38,0,0,0-44.86,39.4,46.77,46.77,0,0,0,0,13.91A46.38,46.38,0,0,0,493,129.92a55.38,55.38,0,0,0,37-14l-13.15-13.14a37,37,0,0,1-23,8.64h-1.53A27.84,27.84,0,0,1,466,90.51ZM493,55.73A27.84,27.84,0,0,1,519.92,76.6H466A27.83,27.83,0,0,1,493,55.73Z"/><path class="cls-1" d="M402.35,83.58c0,24.87-20.82,45-46.5,45V110c15.41,0,27.9-11.84,27.9-26.43s-12.49-26.44-27.9-26.44V38.54C381.53,38.54,402.35,58.7,402.35,83.58Z"/><path class="cls-1" d="M391.15,83.58c0,24.87,20.82,45,46.5,45V110c-15.41,0-27.9-11.84-27.9-26.43s12.49-26.44,27.9-26.44V38.54C412,38.54,391.15,58.7,391.15,83.58Z"/></g></g></svg>