<svg xmlns="http://www.w3.org/2000/svg" xmlns:xlink="http://www.w3.org/1999/xlink" viewBox="0 0 904.47 379.4"><defs><style>.cls-1{fill:#312783;}.cls-2{fill:url(#Degradado_sin_nombre_15);}.cls-3{fill:url(#Degradado_sin_nombre_6);}</style><linearGradient id="Degradado_sin_nombre_15" x1="63.98" y1="187.92" x2="229.1" y2="191.5" gradientUnits="userSpaceOnUse"><stop offset="0" stop-color="#c100e9"/><stop offset="0.29" stop-color="#8f0ec6"/><stop offset="0.61" stop-color="#5c1ba2"/><stop offset="0.86" stop-color="#3d248b"/><stop offset="1" stop-color="#312783"/></linearGradient><linearGradient id="Degradado_sin_nombre_6" x1="-24.43" y1="175.92" x2="258.1" y2="175.92" gradientTransform="matrix(1.06, 0.02, -0.16, 0.94, 57.06, 21.82)" gradientUnits="userSpaceOnUse"><stop offset="0" stop-color="#c100e9"/><stop offset="0.06" stop-color="#b204df"/><stop offset="0.28" stop-color="#8410be"/><stop offset="0.49" stop-color="#601aa4"/><stop offset="0.69" stop-color="#462192"/><stop offset="0.86" stop-color="#362687"/><stop offset="1" stop-color="#312783"/></linearGradient></defs><g id="Capa_2" data-name="Capa 2"><g id="MESA_2" data-name="MESA 2"><g id="LETRAS"><path class="cls-1" d="M391.78,313.58q-17.58-.39-30.56-8.48t-20.44-23.86a89.68,89.68,0,0,1-8.22-35.37Q331.8,230.56,336,208a129.92,129.92,0,0,1,14.43-40.62q10.26-18.1,24.93-29a71.79,71.79,0,0,1,45.31-14.17q27,.51,42.52,18.67t16.71,49.16q.5,13.29-2.72,33.79A140.47,140.47,0,0,1,465.63,264a95.08,95.08,0,0,1-21.07,29.48Q422.29,314.21,391.78,313.58Zm64.67-115.67q.76-24.93-8.73-38.67T419.5,145a48,48,0,0,0-30.31,9.11q-13.35,9.62-21.89,28.79t-10.83,48.53l-.37,8.23q-.77,24.81,8.85,38.85t28,14.56q23.93.63,39.68-17.28t20.94-50.31A225.42,225.42,0,0,0,456.45,197.91Z"/><path class="cls-1" d="M507.84,238.91l-12.53,72.14H471.52l32-184.27,61.5.13q28.49,0,43.92,15.12t13.29,40.18q-2.28,26.46-21.07,41.64T551.63,239ZM511.26,219l41,.13q19.37,0,31.77-9.75t14.55-27.08q2-15.57-6.45-25.25T567.45,146.9l-43.66-.12Z"/><path class="cls-1" d="M726,225.87H648.5l-11.39,65.31h90.11l-3.55,19.87H609.9l32-184.27H754.43l-3.55,19.87H662.17L651.92,206h77.45Z"/><path class="cls-1" d="M872.45,311.05h-23L783.61,168l-24.81,143H734.89l32-184.27h23l65.93,143.64L880.8,126.78h23.67Z"/></g><path class="cls-2" d="M290.37,122.12a238.64,238.64,0,0,1-1.61,70.67c-13.53,80.93-63.2,149.2-121.42,175.27a124.51,124.51,0,0,1-47,11.28c-2,.06-3.93.07-5.89,0-1.71,0-3.4-.12-5.09-.24C33.53,373.9-13.62,289.08,3.52,186.61,17,106,66.36,37.9,124.31,11.62,141.63,3.76,159.72-.37,177.85,0a100.8,100.8,0,0,1,48.77,13.51l-.12.05A168.57,168.57,0,0,0,186.92,38.9a224.91,224.91,0,0,0-44.31,51.51,267,267,0,0,0-37.41,98.4c-.35,2.09-.67,4.19-1,6.27v0c-.57,3.39-1,6.72-1.23,10-3.28,42,18.07,75,50.56,75.73,33.38.72,66.48-33,76.26-76.45v0c.48-2.15.91-4.3,1.27-6.48h0c.55-3.32,1-6.61,1.21-9.83a232,232,0,0,0-.57-54.63l-7.51,1.44-3.16.61-16.28,3.14,5.59-15.56,3-8.23L221.52,92,244.91,27l0-.09.31.38L270.12,59l45.59,58.21Z"/><path class="cls-3" d="M290.37,122.12a238.65,238.65,0,0,1-1.61,70.67c-13.53,80.93-63.2,149.2-121.42,175.27a124.69,124.69,0,0,1-47,11.28c-2,.06-3.93.07-5.89,0-1.71,0-3.4-.11-5.09-.23C33.53,373.9-13.62,289.08,3.52,186.61,17,106,66.36,37.9,124.3,11.62,141.63,3.76,159.72-.37,177.85,0a100.8,100.8,0,0,1,48.77,13.51l-.11.05C208.32,14.2,190.25,19.27,173,28,118.15,55.93,72,121.23,58.57,198.26q-.16.87-.3,1.74c-.09.51-.18,1-.26,1.55-9.46,60.18,18,109.9,62.21,114.16,1.57.16,3.17.25,4.79.29,47.23,1,94-48.87,104.8-111.58v0c.48-2.14.9-4.29,1.27-6.47h0c.55-3.32,1-6.6,1.21-9.83a232,232,0,0,0-.57-54.63l-7.51,1.44-3.16.62-16.28,3.13,5.59-15.56,3-8.23L221.52,92,244.91,27l0-.09.3.39L270.12,59l45.59,58.21Z"/></g></g></svg>