<svg xmlns="http://www.w3.org/2000/svg" xmlns:xlink="http://www.w3.org/1999/xlink" viewBox="0 0 572.03 841.67"><defs><style>.cls-1{fill:#312783;}.cls-2{fill:url(#Degradado_sin_nombre_15);}.cls-3{fill:url(#Degradado_sin_nombre_6);}</style><linearGradient id="Degradado_sin_nombre_15" x1="162.87" y1="301.71" x2="427.98" y2="307.46" gradientUnits="userSpaceOnUse"><stop offset="0" stop-color="#c100e9"/><stop offset="0.29" stop-color="#8f0ec6"/><stop offset="0.61" stop-color="#5c1ba2"/><stop offset="0.86" stop-color="#3d248b"/><stop offset="1" stop-color="#312783"/></linearGradient><linearGradient id="Degradado_sin_nombre_6" x1="76.74" y1="303.79" x2="530.34" y2="303.79" gradientTransform="matrix(1.06, 0.02, -0.16, 0.94, 32.18, 12.31)" gradientUnits="userSpaceOnUse"><stop offset="0" stop-color="#c100e9"/><stop offset="0.06" stop-color="#b204df"/><stop offset="0.28" stop-color="#8410be"/><stop offset="0.49" stop-color="#601aa4"/><stop offset="0.69" stop-color="#462192"/><stop offset="0.86" stop-color="#362687"/><stop offset="1" stop-color="#312783"/></linearGradient></defs><g id="Capa_2" data-name="Capa 2"><g id="MESA_1" data-name="MESA 1"><g id="LETRAS_OPEN" data-name="LETRAS OPEN"><path class="cls-1" d="M59.34,841.65q-17.58-.37-30.56-8.48T8.34,809.32A89.77,89.77,0,0,1,.12,773.94q-.76-15.3,3.41-37.84A130.1,130.1,0,0,1,18,695.48q10.26-18.09,24.93-29,19.88-14.68,45.31-14.17,27,.49,42.52,18.66t16.71,49.17q.49,13.29-2.72,33.79A140.29,140.29,0,0,1,133.19,792a95.13,95.13,0,0,1-21.07,29.49Q89.85,842.29,59.34,841.65ZM124,726q.76-24.93-8.73-38.66T87.06,673.08a48,48,0,0,0-30.31,9.11Q43.4,691.82,34.86,711T24,759.52l-.38,8.22q-.77,24.81,8.85,38.86t28,14.55q23.93.63,39.68-17.27t20.94-50.31A225.56,225.56,0,0,0,124,726Z"/><path class="cls-1" d="M175.4,767l-12.53,72.14H139.08l32-184.26,61.5.12q28.49,0,43.92,15.13t13.29,40.18q-2.28,26.44-21.07,41.63t-49.55,15.19Zm3.42-19.87,41,.13q19.37,0,31.77-9.74t14.55-27.09q2-15.55-6.45-25.24T235,675l-43.66-.13Z"/><path class="cls-1" d="M393.51,754H316.06l-11.39,65.3h90.11l-3.55,19.87H277.46l32-184.26H422l-3.55,19.87H329.73l-10.25,59.35h77.45Z"/><path class="cls-1" d="M540,839.12H517l-65.81-143-24.81,143H402.45l32-184.26h23L523.43,798.5l24.93-143.64H572Z"/></g><g id="LOGO_OPEN" data-name="LOGO OPEN"><path class="cls-2" d="M526.35,196.06c4.69,35.2,4.1,73.5-2.59,113.47C502,439.47,422.29,549.08,328.82,590.93c-24.5,11-49.93,17.3-75.51,18.11q-4.73.15-9.45.05-4.12-.09-8.17-.38C114,600.31,38.28,464.13,65.8,299.6,87.44,170.13,166.69,60.85,259.73,18.66,287.54,6,316.59-.59,345.7,0A161.84,161.84,0,0,1,424,21.74l-.19.08a270.25,270.25,0,0,0-63.55,40.64c-26.59,22.45-50.75,50.51-71.14,82.69a428.8,428.8,0,0,0-60.07,158q-.84,5-1.55,10.07l0,.08q-1.36,8.16-2,16.06c-5.27,67.37,29,120.46,81.17,121.59C360.27,452.1,413.41,398,429.12,328.2v-.07q1.17-5.16,2-10.4v0c.89-5.33,1.54-10.6,1.95-15.78a372.6,372.6,0,0,0-.92-87.71l-12.05,2.32-5.08,1-26.14,5,9-25,4.76-13.21,13.15-36.61L453.36,43.26l0-.13.49.61,39.95,51L567,188.22Z"/><path class="cls-3" d="M526.35,196.06c4.69,35.2,4.1,73.5-2.59,113.47C502,439.47,422.28,549.08,328.82,590.93c-24.5,11-49.93,17.3-75.52,18.11q-4.71.15-9.44.05c-2.75-.06-5.47-.18-8.17-.38C114,600.31,38.28,464.13,65.79,299.6,87.44,170.13,166.69,60.85,259.73,18.66,287.54,6,316.59-.59,345.7,0A161.84,161.84,0,0,1,424,21.74l-.19.08c-29.2,1-58.21,9.12-85.84,23.17C249.85,89.8,175.76,194.64,154.19,318.32c-.18.92-.34,1.85-.49,2.78s-.28,1.66-.41,2.49C138.1,420.22,182.16,500,253.16,506.89q3.79.38,7.7.46c75.82,1.64,151-78.47,168.26-179.15v-.07c.78-3.44,1.45-6.9,2-10.4v0c.89-5.33,1.54-10.6,1.95-15.77a372.69,372.69,0,0,0-.92-87.72l-12.05,2.32-5.08,1-26.14,5,9-25,4.75-13.21,13.16-36.6,37.55-104.5,0-.13.48.61,40,51L567,188.22Z"/></g></g></g></svg>