<?xml version="1.0" encoding="utf-8"?>
<!-- Generator: Adobe Illustrator 26.0.1, SVG Export Plug-In . SVG Version: 6.00 Build 0)  -->
<svg version="1.1" id="Capa_1" xmlns="http://www.w3.org/2000/svg" xmlns:xlink="http://www.w3.org/1999/xlink" x="0px" y="0px"
	 viewBox="0 0 1080 1080" style="enable-background:new 0 0 1080 1080;" xml:space="preserve">
<style type="text/css">
	.st0{fill:#B714E0;}
	.st1{fill:#2A1484;}
</style>
<g id="LOGO_PRINCIPAL">
	<g id="OPEN">
		<path class="st0" d="M189.1,665.4c-24.4,0-45.6-4.6-63.7-13.9c-18.1-9.3-32.2-23.2-42.2-41.8c-10-18.6-14.9-41.8-14.9-69.7
			c0-27.9,5-51.1,14.9-69.7c10-18.6,24.1-32.5,42.2-41.8c18.1-9.3,39.3-13.9,63.7-13.9c24.4,0,45.8,4.6,63.9,14.1
			c18.1,9.3,32,23.4,42,42c10,18.6,14.9,41.8,14.9,69.5s-5,51-14.9,69.5c-10,18.6-23.9,32.5-42.2,42
			C234.5,660.7,213.3,665.4,189.1,665.4z M189.1,614.6c11.8,0,21.9-2.5,30.2-7.6c8.3-5,14.6-12.9,18.9-23.7
			c4.3-10.8,6.6-24.9,6.6-42.2c0-17.9-2.2-32.5-6.6-43.6c-4.5-11.1-10.8-19.3-19.1-24.4c-8.3-5.1-18.3-7.8-30-7.8
			c-11.6,0-21.6,2.5-29.9,7.5s-14.6,12.9-19.1,23.6c-4.5,10.8-6.6,24.9-6.6,42.3c0,18.1,2.2,32.9,6.6,44
			c4.3,11.1,10.6,19.3,18.9,24.2C167.3,612.1,177.3,614.6,189.1,614.6z"/>
		<path class="st0" d="M342.2,665.4V422.7c11.9-2.5,24.4-4.5,37.5-6c12.9-1.3,26.7-2.2,41.2-2.2c38,0,66.6,7.3,85.6,21.9
			c18.9,14.6,28.5,37.7,28.5,69.2c0,30-9.1,52.8-27.6,68.2c-18.4,15.4-45.3,23.2-80.7,23.2c-3.7,0-7.1-0.2-10.5-0.3
			c-3.3-0.2-6.6-0.3-10.3-0.7v69h-63.9V665.4z M427.4,549.4c15.6,0,27.1-3.3,34.5-9.8c7.5-6.6,11.1-17.6,11.1-33.2
			c0-15.4-3.8-26.7-11.3-33.7c-7.5-7-19.3-10.3-35.2-10.3c-4.1,0-7.8,0.2-11,0.5c-3.2,0.3-6.5,0.7-10,1.3v84c3.7,0.5,7.1,0.8,10.3,1
			C419.4,549.2,423.2,549.4,427.4,549.4z"/>
		<polygon class="st0" points="630.4,466.2 630.4,511.7 730.1,511.7 730.1,563.2 630.4,563.2 630.4,613.9 749.2,613.9 749.2,665.4 
			567.5,665.4 567.5,414.6 749.2,414.6 749.2,466.2 		"/>
		<polygon class="st0" points="1002.5,414.6 1002.5,665.4 938.6,665.4 841.5,512.2 841.5,665.4 781.7,665.4 781.7,414.6 
			845.6,414.6 942.6,568 942.6,414.6 		"/>
	</g>
	<path id="INFERIOR" class="st1" d="M966.3,697.9c-9,51.9-23.1,97.8-42.2,137.6c-36.2,75.7-87,131.8-152.2,168.1
		c-65.2,36.5-141.1,54.8-227.7,54.8c-87.5,0-163.8-18.1-229-54.4c-65.2-36.2-115.8-92.3-151.9-168.1c-18.9-39.8-32.9-86-41.8-137.9
		H247c13.8,0,25.7,9.5,29,22.9c4.6,19.1,10.3,36.7,16.8,52.8c23.6,58.4,56.8,100.4,99.6,126.1c42.8,25.6,93.4,38.3,151.9,38.3
		c57.9,0,108.4-12.8,151.2-38.3c42.8-25.6,76-67.1,99.6-124.3c6.8-16.6,12.6-34.9,17.4-54.6c3.3-13.4,15.3-22.9,29-22.9H966.3z"/>
	<path class="st1" d="M680.7,382.1H405.5c2.8-14.3,6.6-26.9,11.3-38.2c11.9-28.9,28.7-49.8,50.3-62.6c21.4-12.8,47-19.3,76.5-19.3
		c29,0,54.4,6.5,76.2,19.6c21.7,13.1,38.5,34.4,50.5,63.7C674.3,356.4,677.8,368.5,680.7,382.1z"/>
	<path id="SUPERIOR" class="st1" d="M966.5,382.1H840.8c-13.8,0-25.7-9.5-29-22.9c-4.6-18.8-10.1-36.2-16.6-52.1
		c-23.6-58.4-56.9-100.6-99.9-126.5s-93.3-38.7-150.9-38.7c-58.4,0-109,12.8-151.5,38c-42.7,25.4-75.7,66.7-99.6,124
		c-7,16.8-12.9,35-17.8,55.1c-3.3,13.4-15.3,22.9-29,22.9h-125c9-51.9,22.9-97.9,41.8-137.8c36-75.8,86.6-131.9,151.9-168.1
		s141.6-54.4,229-54.4s163.6,18.3,228.7,54.8S888.4,169,924.5,244.5C943.4,284.5,957.5,330.3,966.5,382.1z"/>
	<path class="st1" d="M406.3,697.9h275.2c-2.8,14.3-6.6,26.9-11.3,38.2c-11.9,28.9-28.7,49.8-50.3,62.6
		c-21.4,12.8-47,19.3-76.5,19.3c-29,0-54.4-6.5-76.2-19.6c-21.7-13.1-38.5-34.4-50.5-63.7C412.6,723.6,409.1,711.5,406.3,697.9z"/>
</g>
</svg>
