<svg xmlns="http://www.w3.org/2000/svg" xmlns:xlink="http://www.w3.org/1999/xlink" viewBox="0 0 506.88 609.13"><defs><style>.cls-1{fill:url(#Degradado_sin_nombre_15);}.cls-2{fill:url(#Degradado_sin_nombre_6);}</style><linearGradient id="Degradado_sin_nombre_15" x1="102.72" y1="301.71" x2="367.83" y2="307.46" gradientUnits="userSpaceOnUse"><stop offset="0" stop-color="#c100e9"/><stop offset="0.29" stop-color="#8f0ec6"/><stop offset="0.61" stop-color="#5c1ba2"/><stop offset="0.86" stop-color="#3d248b"/><stop offset="1" stop-color="#312783"/></linearGradient><linearGradient id="Degradado_sin_nombre_6" x1="16.59" y1="303.79" x2="470.19" y2="303.79" gradientTransform="matrix(1.06, 0.02, -0.16, 0.94, 35.8, 13.69)" gradientUnits="userSpaceOnUse"><stop offset="0" stop-color="#c100e9"/><stop offset="0.06" stop-color="#b204df"/><stop offset="0.28" stop-color="#8410be"/><stop offset="0.49" stop-color="#601aa4"/><stop offset="0.69" stop-color="#462192"/><stop offset="0.86" stop-color="#362687"/><stop offset="1" stop-color="#312783"/></linearGradient></defs><g id="Capa_2" data-name="Capa 2"><g id="MESA_1" data-name="MESA 1"><g id="LOGO_OPEN" data-name="LOGO OPEN"><path class="cls-1" d="M466.2,196.06c4.69,35.2,4.1,73.5-2.59,113.47-21.72,129.94-101.47,239.55-194.94,281.4-24.5,11-49.93,17.3-75.51,18.11q-4.72.15-9.45.05-4.12-.09-8.17-.38C53.83,600.31-21.87,464.13,5.65,299.6,27.29,170.13,106.54,60.85,199.58,18.66,227.39,6,256.44-.59,285.55,0a161.84,161.84,0,0,1,78.3,21.7l-.19.08a270.25,270.25,0,0,0-63.55,40.64C273.52,84.91,249.36,113,229,145.15a428.8,428.8,0,0,0-60.07,158q-.84,5-1.55,10.07l0,.08q-1.37,8.16-2,16.06c-5.27,67.37,29,120.46,81.17,121.59C300.12,452.1,353.26,398,369,328.2v-.07q1.17-5.16,2-10.4v0c.89-5.33,1.54-10.6,2-15.78a372.6,372.6,0,0,0-.92-87.71L360,216.54l-5.08,1-26.14,5,9-25,4.76-13.21,13.15-36.61L393.21,43.26l0-.13.49.61,39.95,51,73.19,93.46Z"/><path class="cls-2" d="M466.2,196.06c4.69,35.2,4.1,73.5-2.59,113.47-21.72,129.94-101.48,239.55-194.94,281.4-24.5,11-49.93,17.3-75.52,18.11q-4.71.15-9.44.05c-2.75-.06-5.47-.18-8.17-.38C53.83,600.31-21.87,464.13,5.64,299.6,27.29,170.13,106.54,60.85,199.58,18.66,227.39,6,256.44-.59,285.55,0a161.84,161.84,0,0,1,78.3,21.7l-.19.08c-29.2,1-58.21,9.12-85.84,23.17C189.7,89.8,115.61,194.64,94,318.32c-.18.92-.34,1.85-.49,2.78s-.28,1.66-.41,2.49C78,420.22,122,500,193,506.89q3.8.38,7.7.46C276.53,509,351.68,428.88,369,328.2v-.07c.78-3.44,1.45-6.9,2-10.4v0c.89-5.33,1.54-10.6,2-15.77a372.69,372.69,0,0,0-.92-87.72L360,216.54l-5.08,1-26.14,5,9-25,4.75-13.21,13.16-36.6,37.55-104.5,0-.13.48.61,40,51,73.19,93.46Z"/></g></g></g></svg>