<svg xmlns="http://www.w3.org/2000/svg" xmlns:xlink="http://www.w3.org/1999/xlink" viewBox="0 0 1104.65 58.91"><defs><style>.cls-1{fill:#f90061;}.cls-2{fill:url(#Degradado_sin_nombre_3);}</style><linearGradient id="Degradado_sin_nombre_3" y1="29.46" x2="1104.65" y2="29.46" gradientUnits="userSpaceOnUse"><stop offset="0" stop-color="#c100e9"/><stop offset="1" stop-color="#312783"/></linearGradient></defs><g id="Capa_2" data-name="Capa 2"><g id="Capa_1-2" data-name="Capa 1"><polygon class="cls-1" points="0 58.91 67.44 3.1 120.16 34.11 170.54 18.61 389.15 35.66 448.84 16.28 557.27 31.01 665.89 29.46 819.38 0 869.77 29.46 892.25 5.43 936.43 23.26 1059.69 0 1104.65 49.61 1055.81 10.85 931.78 37.21 893.02 24.03 868.99 33.33 817.05 10.08 691.47 29.46 652.89 36.28 545.74 36.43 506.2 42.27 456.59 29.46 373.64 42.27 345.74 50.39 170.54 18.61 123.26 42.25 68.22 13.95 0 58.91"/><path class="cls-2" d="M0,58.91,72.87,25.58s45.73,18.61,50.39,16.67,45-12.79,49.61-16.67S345.74,50.39,345.74,50.39L456.59,34.11l42.63,11.63L832.56,25.22l47.28,17.05,18.61-10.49,34.11,16.28L1055,19.38l49.61,30.23L1059.69,0,934.11,29.46,893,15.5l-23.25,14-46.51-24L496.9,37.21,448.84,16.28l-100.78,26L167.44,13.18,120.16,34.11,68.22,14Z"/></g></g></svg>