<svg xmlns="http://www.w3.org/2000/svg" xmlns:xlink="http://www.w3.org/1999/xlink" viewBox="0 0 1025.61 42.5"><defs><style>.cls-1{fill:url(#Degradado_sin_nombre_6);}.cls-2{fill:url(#Degradado_sin_nombre_15);}.cls-3{fill:url(#Degradado_sin_nombre_6-2);}</style><linearGradient id="Degradado_sin_nombre_6" y1="21.25" x2="987.86" y2="21.25" gradientUnits="userSpaceOnUse"><stop offset="0" stop-color="#c100e9"/><stop offset="0.06" stop-color="#b204df"/><stop offset="0.28" stop-color="#8410be"/><stop offset="0.49" stop-color="#601aa4"/><stop offset="0.69" stop-color="#462192"/><stop offset="0.86" stop-color="#362687"/><stop offset="1" stop-color="#312783"/></linearGradient><linearGradient id="Degradado_sin_nombre_15" x1="997.41" y1="21.05" x2="1015.91" y2="21.45" gradientUnits="userSpaceOnUse"><stop offset="0" stop-color="#c100e9"/><stop offset="0.29" stop-color="#8f0ec6"/><stop offset="0.61" stop-color="#5c1ba2"/><stop offset="0.86" stop-color="#3d248b"/><stop offset="1" stop-color="#312783"/></linearGradient><linearGradient id="Degradado_sin_nombre_6-2" x1="990.25" y1="21.25" x2="1025.61" y2="21.25" xlink:href="#Degradado_sin_nombre_6"/></defs><g id="Capa_2" data-name="Capa 2"><g id="Capa_2-2" data-name="Capa 2"><path class="cls-1" d="M0,19.73H987.86c-.08.39-.15.78-.22,1.17-.11.63-.19,1.25-.25,1.87H0Z"/><path class="cls-2" d="M1022.78,13.68a27.2,27.2,0,0,1-.18,7.92c-1.52,9.06-7.08,16.71-13.61,19.63a13.7,13.7,0,0,1-5.26,1.26h-.66l-.57,0-.65-.07h0c-7.63-1-12.48-9.31-11.43-19.63.06-.62.14-1.24.25-1.87.07-.39.14-.78.22-1.17,1.77-8.51,7.1-15.61,13.31-18.43a14.16,14.16,0,0,1,4.2-1.2,12.07,12.07,0,0,1,1.8-.1,11.35,11.35,0,0,1,5.47,1.52h0a19.11,19.11,0,0,0-4.43,2.84,25,25,0,0,0-5,5.77,29.79,29.79,0,0,0-4.2,11c0,.24-.07.47-.1.7h0c-.06.38-.1.75-.13,1.12-.32,4.09,1.45,7.43,4.32,8.27a4.88,4.88,0,0,0,1.34.21c3.74.08,7.45-3.69,8.54-8.56h0c.06-.24.1-.48.15-.72s.1-.74.13-1.1a26.52,26.52,0,0,0-.06-6.12l-.84.16-.36.07-1.74.33-.08,0,.06-.18.56-1.56.34-.93.91-2.55,1.68-4.68.94-2.61h0l0,0,2.79,3.56,5.1,6.52Z"/><path class="cls-3" d="M1022.78,13.68a27.2,27.2,0,0,1-.18,7.92c-1.52,9.06-7.08,16.71-13.61,19.63a13.7,13.7,0,0,1-5.26,1.26h-.66l-.57,0-.65-.07h0c-7.63-1-12.48-9.31-11.43-19.63.06-.62.14-1.24.25-1.87.07-.39.14-.78.22-1.17,1.77-8.51,7.1-15.61,13.31-18.43a14.16,14.16,0,0,1,4.2-1.2,12.07,12.07,0,0,1,1.8-.1,11.35,11.35,0,0,1,5.47,1.52h0a14.08,14.08,0,0,0-5.45,1.36l-.54.26c-6.14,3.13-11.31,10.44-12.82,19.07l0,.19,0,.18c-1.06,6.74,2,12.31,7,12.79l.53,0c5.29.11,10.54-5.48,11.74-12.5h0c.06-.24.1-.48.15-.72s.1-.74.13-1.1a26.52,26.52,0,0,0-.06-6.12l-.84.16-.36.07-1.74.33-.08,0,.06-.18.56-1.56.34-.93.91-2.55,1.68-4.68.94-2.61h0l0,0,2.79,3.56,5.1,6.52Z"/></g></g></svg>