<?xml version="1.0" encoding="utf-8"?>
<!-- Generator: Adobe Illustrator 26.0.1, SVG Export Plug-In . SVG Version: 6.00 Build 0)  -->
<svg version="1.1" xmlns="http://www.w3.org/2000/svg" xmlns:xlink="http://www.w3.org/1999/xlink" x="0px" y="0px"
	 viewBox="0 0 900 600" style="enable-background:new 0 0 900 600;" xml:space="preserve">
<style type="text/css">
	.st0{fill:#F90061;}
	.st1{fill:#312783;}
	.st2{fill:#C100E9;}
	.st3{fill:url(#SVGID_1_);}
	.st4{fill:url(#SVGID_00000010997345222507090360000010914437215716294295_);}
</style>
<g id="Capa_3">
	<polygon class="st0" points="300,544 900,222.9 900,332.1 	"/>
</g>
<g id="Capa_2">
	<polygon class="st1" points="300,544 900,320.9 900,382 	"/>
</g>
<g id="visual">
	<path class="st2" d="M0,481l300,63l300-91l300-83v231H600H300H0V481z"/>
</g>
<g id="Capa_4">
	<linearGradient id="SVGID_1_" gradientUnits="userSpaceOnUse" x1="290.819" y1="543.1133" x2="306.2964" y2="543.449">
		<stop  offset="0" style="stop-color:#C100E9"/>
		<stop  offset="0.2878" style="stop-color:#8F0EC6"/>
		<stop  offset="0.6147" style="stop-color:#5C1BA2"/>
		<stop  offset="0.8624" style="stop-color:#3D248B"/>
		<stop  offset="1" style="stop-color:#312783"/>
	</linearGradient>
	<path class="st3" d="M312,536.9c0.3,2.1,0.2,4.3-0.2,6.6c-1.3,7.6-5.9,14-11.4,16.4c-1.4,0.6-2.9,1-4.4,1.1c-0.2,0-0.4,0-0.6,0
		c-0.2,0-0.3,0-0.5,0c-7.1-0.5-11.5-8.4-9.9-18c1.3-7.6,5.9-13.9,11.3-16.4c1.6-0.7,3.3-1.1,5-1.1c1.7,0,3.2,0.5,4.6,1.3
		c0,0,0,0,0,0c-1.3,0.6-2.5,1.4-3.7,2.4c-1.6,1.3-3,2.9-4.2,4.8c-1.7,2.7-2.9,5.8-3.5,9.2c0,0.2-0.1,0.4-0.1,0.6l0,0
		c-0.1,0.3-0.1,0.6-0.1,0.9c-0.3,3.9,1.7,7,4.7,7.1c3.1,0.1,6.2-3.1,7.1-7.2l0,0c0-0.2,0.1-0.4,0.1-0.6c0,0,0,0,0,0
		c0.1-0.3,0.1-0.6,0.1-0.9c0.2-1.8,0.2-3.5-0.1-5.1l-0.7,0.1l-0.3,0.1l-1.5,0.3l0.5-1.5l0.3-0.8l0.8-2.1l2.2-6.1l0,0l0,0l2.3,3
		l4.3,5.5L312,536.9z"/>
	
		<linearGradient id="SVGID_00000155138041886574112330000007395976268595116196_" gradientUnits="userSpaceOnUse" x1="350.3071" y1="567.9121" x2="376.7888" y2="567.9121" gradientTransform="matrix(1.0601 2.299338e-02 -0.1572 0.9399 3.0405 1.163)">
		<stop  offset="0" style="stop-color:#C100E9"/>
		<stop  offset="6.275207e-02" style="stop-color:#B204DF"/>
		<stop  offset="0.2819" style="stop-color:#8410BE"/>
		<stop  offset="0.4916" style="stop-color:#601AA4"/>
		<stop  offset="0.6868" style="stop-color:#462192"/>
		<stop  offset="0.8619" style="stop-color:#362687"/>
		<stop  offset="1" style="stop-color:#312783"/>
	</linearGradient>
	<path style="fill:url(#SVGID_00000155138041886574112330000007395976268595116196_);" d="M312,536.9c0.3,2.1,0.2,4.3-0.2,6.6
		c-1.3,7.6-5.9,14-11.4,16.4c-1.4,0.6-2.9,1-4.4,1.1c-0.2,0-0.4,0-0.6,0c-0.2,0-0.3,0-0.5,0c-7.1-0.5-11.5-8.4-9.9-18
		c1.3-7.6,5.9-13.9,11.3-16.4c1.6-0.7,3.3-1.1,5-1.1c1.7,0,3.2,0.5,4.6,1.3c0,0,0,0,0,0c-1.7,0.1-3.4,0.5-5,1.4
		c-5.1,2.6-9.5,8.7-10.7,16c0,0.1,0,0.1,0,0.2c0,0,0,0.1,0,0.1c-0.9,5.6,1.7,10.3,5.8,10.7c0.1,0,0.3,0,0.4,0
		c4.4,0.1,8.8-4.6,9.8-10.5l0,0c0-0.2,0.1-0.4,0.1-0.6c0,0,0,0,0,0c0.1-0.3,0.1-0.6,0.1-0.9c0.2-1.8,0.2-3.5-0.1-5.1l-0.7,0.1
		l-0.3,0.1l-1.5,0.3l0.5-1.5l0.3-0.8l0.8-2.1l2.2-6.1l0,0l0,0l2.3,3l4.3,5.5L312,536.9z"/>
</g>
</svg>
