<svg xmlns="http://www.w3.org/2000/svg" viewBox="0 0 187.28 79.87"><defs><style>.cls-1{fill:#421582;}</style></defs><g id="Capa_2" data-name="Capa 2"><g id="SIGNIFICADO"><path id="SUPERIOR" class="cls-1" d="M187.28,79.87H159.42A6.65,6.65,0,0,1,153,74.81a86,86,0,0,0-3.68-11.54q-7.83-19.43-22.14-28T93.72,26.66q-19.44,0-33.6,8.44T38.05,62.59a85.52,85.52,0,0,0-3.94,12.22,6.64,6.64,0,0,1-6.44,5.06H0A117.71,117.71,0,0,1,9.28,49.34Q21.25,24.11,43,12.05T93.72,0q29.07,0,50.69,12.13T178,49.41A117.43,117.43,0,0,1,187.28,79.87Z"/></g></g></svg>