<svg xmlns="http://www.w3.org/2000/svg" viewBox="0 0 180.59 77.19"><defs><style>.cls-1{fill:#421582;}</style></defs><g id="Capa_2" data-name="Capa 2"><g id="SIGNIFICADO"><path id="SUPERIOR" class="cls-1" d="M180.59,77H153.73a6.4,6.4,0,0,1-6.21-4.88A84.13,84.13,0,0,0,144,61q-7.56-18.73-21.35-27T90.37,25.71q-18.75,0-32.4,8.14T36.7,60.36a80.23,80.23,0,0,0-3.81,11.78A6.39,6.39,0,0,1,26.69,77H0A113.48,113.48,0,0,1,9,47.58q11.55-24.33,32.46-36T90.37,0q28,0,48.88,11.7t32.39,36A112.7,112.7,0,0,1,180.59,77Z"/><path class="cls-1" d="M83.53,77.19Q65,63,46.54,77.19a27.77,27.77,0,0,1,1.52-5.13,16.83,16.83,0,0,1,6.75-8.41,19.71,19.71,0,0,1,10.28-2.58A19.46,19.46,0,0,1,75.31,63.7a16.89,16.89,0,0,1,6.78,8.57A28.06,28.06,0,0,1,83.53,77.19Z"/><path class="cls-1" d="M134,77.14H97A27.91,27.91,0,0,1,98.53,72a16.94,16.94,0,0,1,6.75-8.38,19.83,19.83,0,0,1,10.28-2.57,19.52,19.52,0,0,1,10.23,2.62,16.78,16.78,0,0,1,6.77,8.54A27.94,27.94,0,0,1,134,77.14Z"/></g></g></svg>