<?xml version="1.0" encoding="utf-8"?>
<!-- Generator: Adobe Illustrator 26.0.1, SVG Export Plug-In . SVG Version: 6.00 Build 0)  -->
<svg version="1.1" id="Capa_1" xmlns="http://www.w3.org/2000/svg" xmlns:xlink="http://www.w3.org/1999/xlink" x="0px" y="0px"
	 viewBox="0 0 722.7 1002.5" style="enable-background:new 0 0 722.7 1002.5;" xml:space="preserve">
<g id="Capa_2_00000128474967552244856240000003392067057096830600_">
	<g id="Capa_1-2">
		<path d="M59.6,838.5c-13-0.2-25.7,3.9-36.1,11.7v-35.1c0-12.9-10.5-23.4-23.4-23.4l0,0v104.5c0,32.6,26.3,59.7,58.9,59.5
			c32.3-0.2,58.4-26.6,58.2-58.9C116.9,864.9,91.4,839.1,59.6,838.5L59.6,838.5z M61.4,932.1c-19.3,1.6-36.3-12.8-37.9-32.2
			s12.8-36.3,32.2-37.9c19.3-1.6,36.3,12.8,37.9,32.2c0.2,1.9,0.2,3.8,0,5.7C92.2,917.1,78.6,930.7,61.4,932.1z"/>
		<path d="M383.7,899.7c1.4-32.3-23.6-59.7-56-61.1c-0.7,0-1.5-0.1-2.2-0.1c-32.6-0.2-58.9,26.9-58.9,59.5v104.5l0,0
			c12.9,0,23.4-10.5,23.4-23.4c0,0,0,0,0,0v-35.1c25.9,19.4,62.6,14.2,82-11.7C379.1,922.8,383.2,911.4,383.7,899.7z M360.2,894.2
			c1.6,19.3-12.8,36.3-32.2,37.9s-36.3-12.8-37.9-32.2s12.8-36.3,32.2-37.9c1.9-0.2,3.8-0.2,5.7,0
			C345.2,863.5,358.8,877.1,360.2,894.2z"/>
		<path d="M425.3,840.2V954h-23.5v-90.3C401.8,850.7,412.3,840.2,425.3,840.2z"/>
		<circle cx="414.8" cy="809.1" r="17.6"/>
		<path d="M722.7,793v159.9h-23.4V816.4C699.3,803.5,709.7,793,722.7,793z"/>
		<path d="M249.8,905.9c0.9-5.8,0.9-11.7,0-17.6c-4.3-28.2-28.2-49.2-56.7-49.8h-2.5c-28.5,0.6-52.3,21.6-56.6,49.8
			c-0.9,5.8-0.9,11.7,0,17.6c4.3,28.6,29,49.8,57.9,49.8c17.2,0,33.8-6.3,46.7-17.7L222,921.3c-8.2,6.9-18.4,10.7-29.1,10.9H191
			c-15.7-0.4-29.1-11.2-33.1-26.3L249.8,905.9z M191.9,862c16,0,30,10.9,34,26.4h-68C161.9,872.8,175.9,862,191.9,862z"/>
		<path d="M680.6,905.9c0.9-5.8,0.9-11.7,0-17.6c-4.3-28.2-28.2-49.2-56.7-49.8h-1.3h-1.3c-28.5,0.6-52.4,21.6-56.7,49.8
			c-0.9,5.8-0.9,11.7,0,17.6c4.3,28.6,29,49.8,57.9,49.8c17.2,0,33.8-6.3,46.7-17.8l-16.6-16.6c-8.2,6.9-18.4,10.7-29.1,10.9h-1.9
			c-15.7-0.4-29.1-11.2-33.1-26.3H680.6z M622.7,861.9c16,0,30,10.8,34,26.3h-68C592.6,872.8,606.6,861.9,622.7,861.9L622.7,861.9z"
			/>
		<path d="M517.5,897.1c0,18.4,15.8,33.4,35.2,33.4V954c-22.3,0-41.7-12-51.7-29.8c-9.9,17.8-29.3,29.8-51.7,29.8v-23.5
			c19.5,0,35.2-14.9,35.2-33.4s-15.8-33.4-35.2-33.4v-23.5c22.3,0,41.7,12.1,51.7,29.8c9.9-17.8,29.3-29.8,51.7-29.8v23.5
			C533.3,863.7,517.5,878.7,517.5,897.1z"/>
		<g id="EXTENSION_LETRA">
			<path d="M218.6,103.7v103.7H114.9V0l0,0C172.2,0,218.6,46.4,218.6,103.7z"/>
		</g>
		<g id="CIRCULO">
			<path d="M633.5,466.7c0,143.2-116.1,259.3-259.3,259.3S114.9,609.9,114.9,466.7V311.1h103.7v155.6c0,85.9,69.7,155.6,155.6,155.6
				s155.6-69.7,155.6-155.6s-69.7-155.6-155.6-155.6c0,0,0,0,0,0H218.6V207.4h155.6C517.4,207.4,633.5,323.5,633.5,466.7z"/>
		</g>
		<g id="PIXEL_IZQUIERDO">
			<rect x="11.1" y="207.4" width="103.7" height="103.7"/>
		</g>
		<g id="SONRISA">
			<path d="M447.5,466.7c14.3,0,26,11.6,26,25.9c0,3-0.5,5.9-1.5,8.7c-19.1,54-78.4,82.3-132.5,63.1c-29.5-10.5-52.7-33.7-63.1-63.1
				c-4.8-13.5,2.4-28.4,15.9-33.1c2.7-1,5.6-1.5,8.5-1.5l0,0c11.1,0.1,20.9,7.1,24.5,17.6c9.8,26.9,39.5,40.9,66.5,31.1
				c14.5-5.2,25.9-16.6,31.1-31.1C426.6,473.9,436.5,466.8,447.5,466.7L447.5,466.7z"/>
		</g>
		<g id="PIXEL_SUPERIOR">
			<rect x="270.4" y="51.9" width="103.7" height="103.7"/>
		</g>
	</g>
</g>
</svg>
