<?xml version="1.0" encoding="utf-8"?>
<!-- Generator: Adobe Illustrator 26.0.1, SVG Export Plug-In . SVG Version: 6.00 Build 0)  -->
<svg version="1.1" id="Capa_1" xmlns="http://www.w3.org/2000/svg" xmlns:xlink="http://www.w3.org/1999/xlink" x="0px" y="0px"
	 viewBox="0 0 100 100" style="enable-background:new 0 0 100 100;" xml:space="preserve">
<style type="text/css">
	.st0{fill:#E62686;}
	.st1{fill:#E10098;}
	.st2{fill:none;stroke:#646463;stroke-width:2;stroke-miterlimit:10;}
</style>
<g id="EXTENSION_LETRA">
	<path class="st0" d="M36,15v14H22V1l0,0C29.7,1,36,7.3,36,15z"/>
</g>
<g id="CIRCULO">
	<path class="st1" d="M92,64c0,19.3-15.7,35-35,35S22,83.3,22,64V43h14v21c0,11.6,9.4,21,21,21s21-9.4,21-21s-9.4-21-21-21H36V29h21
		C76.3,29,92,44.7,92,64z"/>
</g>
<g id="PIXEL_IZQUIERDO">
	<rect x="8" y="29" class="st0" width="14" height="14"/>
</g>
<g id="SONRISA">
	<path class="st0" d="M66.9,64c1.9,0,3.5,1.6,3.5,3.5c0,0.4-0.1,0.8-0.2,1.2c-2.6,7.3-10.6,11.1-17.8,8.6c-4-1.4-7.2-4.6-8.6-8.6
		c-0.6-1.8,0.3-3.8,2.2-4.5c0.4-0.1,0.8-0.2,1.2-0.2l0,0c1.5,0,2.8,1,3.3,2.4c1.3,3.6,5.3,5.5,9,4.2c2-0.7,3.5-2.3,4.2-4.2
		C64.1,65,65.4,64,66.9,64z"/>
</g>
<g id="PIXEL_SUPERIOR">
	<rect x="43" y="8" class="st0" width="14" height="14"/>
</g>
<g id="Capa_3">
	<rect id="PIXEL_SUPERIOR-2" x="43" y="8" class="st2" width="14" height="14"/>
	<circle class="st2" cx="57" cy="64" r="35"/>
	<circle class="st2" cx="57" cy="64" r="21"/>
	<rect x="8" y="29" class="st2" width="49" height="14"/>
	<rect x="22" y="1" class="st2" width="14" height="63"/>
	<circle class="st2" cx="22" cy="15" r="14"/>
	<circle class="st2" cx="57" cy="64" r="14"/>
	<circle class="st2" cx="57" cy="64" r="7"/>
	<circle class="st2" cx="47.1" cy="67.5" r="3.5"/>
	<circle class="st2" cx="66.9" cy="67.5" r="3.5"/>
	<line class="st2" x1="22" y1="64" x2="92" y2="64"/>
</g>
</svg>
