<svg xmlns="http://www.w3.org/2000/svg" viewBox="0 0 180.59 33.29"><defs><style>.cls-1{fill:#421582;}</style></defs><g id="Capa_2" data-name="Capa 2"><g id="SIGNIFICADO"><path class="cls-1" d="M76.37,33.29Q38.14,3.91,0,33.29a57.46,57.46,0,0,1,3.13-10.6q5-12,13.94-17.36T38.29,0A40.33,40.33,0,0,1,59.41,5.42q9,5.43,14,17.7A58.26,58.26,0,0,1,76.37,33.29Z"/><path class="cls-1" d="M180.59,33.24H104.22a56.37,56.37,0,0,1,3.13-10.57q5-12,13.94-17.31T142.51.05a40.33,40.33,0,0,1,21.12,5.41q9,5.4,14,17.64A57.91,57.91,0,0,1,180.59,33.24Z"/></g></g></svg>