<?xml version="1.0" encoding="utf-8"?>
<!-- Generator: Adobe Illustrator 26.0.1, SVG Export Plug-In . SVG Version: 6.00 Build 0)  -->
<svg version="1.1" id="Capa_1" xmlns="http://www.w3.org/2000/svg" xmlns:xlink="http://www.w3.org/1999/xlink" x="0px" y="0px"
	 viewBox="0 0 564 448.6" style="enable-background:new 0 0 564 448.6;" xml:space="preserve">
<style type="text/css">
	.st0{fill:#421582;}
	.st1{fill:#FF0098;}
</style>
<g id="Capa_2_00000092425013573765637210000016123229370388511107_">
	<g id="Capa_8">
		<path id="SUPERIOR" class="st0" d="M538.8,217.1H463c-8.3,0-15.5-5.7-17.5-13.8c-2.6-10.7-5.9-21.2-10-31.4
			c-14.2-35.2-34.3-60.6-60.2-76.2c-25.9-15.6-56.2-23.3-90.9-23.3c-35.2,0-65.7,7.6-91.3,22.9s-45.7,40.2-60,74.7
			c-4.4,10.8-8,21.9-10.7,33.2c-2,8.1-9.2,13.8-17.5,13.8H29.7c5.4-31.3,13.8-59,25.2-83c21.7-45.7,52.2-79.5,91.5-101.4
			S231.7,0,284.4,0c52.7,0,98.6,11,137.8,33s69.6,55.8,91.3,101.3C524.9,158.3,533.3,185.9,538.8,217.1z"/>
		<path class="st0" d="M265.1,217.6c-34.8-26.7-69.5-26.7-104.2,0c0.9-5,2.4-9.8,4.3-14.5c4.6-10.9,10.9-18.8,19-23.7
			c8.1-4.9,17.8-7.3,29-7.3c11,0,20.6,2.5,28.8,7.4c8.2,4.9,14.6,13,19.1,24.2C262.9,208.2,264.2,212.9,265.1,217.6z"/>
		<path class="st1" d="M65.1,397.4c-13.3,0-24.9-2.5-34.6-7.6c-9.7-5.1-17.6-13.2-22.5-23c-5.3-10.2-8-23-8-38.4s2.6-28.3,7.8-38.6
			c4.8-9.8,12.6-17.9,22.3-23c9.7-5.1,21.4-7.6,35.1-7.6s25.4,2.6,35.1,7.7c9.7,5.1,17.5,13.1,22.3,23c5.1,10.2,7.6,23,7.6,38.4
			s-2.6,28.2-7.9,38.5c-4.9,9.9-12.7,17.9-22.5,23C90,394.9,78.5,397.4,65.1,397.4z M65.1,368c4.9,0.1,9.8-1.1,14-3.6
			c3.9-2.4,6.8-6.5,8.8-12.2c2-5.7,3-13.6,3-23.6c0-10.2-1-18.2-3.1-24s-5-9.9-8.8-12.3c-4.2-2.5-9.1-3.7-14-3.6
			c-4.9-0.1-9.8,1.1-14,3.5c-3.9,2.4-6.8,6.4-8.9,12.2s-3.1,13.7-3,23.8c0,10.1,1,18,3,23.8s5,9.9,8.9,12.3
			C55.3,366.9,60.2,368.2,65.1,368L65.1,368z"/>
		<path class="st1" d="M151.2,448.6V259.1h32.4l2.4,15.2c0.1,0.7,0.7,1.2,1.4,1.2l0,0c0.4,0,0.8-0.2,1.1-0.5
			c3.9-4.8,8.8-8.7,14.4-11.4c6.5-3.1,13.6-4.6,20.8-4.5c9.5-0.1,18.9,2.2,27.3,6.7c8.3,4.5,15,11.6,20,21.3s7.5,22.5,7.5,38.3
			c0,15.6-2.7,28.7-8.2,39.3c-5.3,10.5-13.9,19-24.5,24.3c-10.8,5.5-24.2,8.3-40.2,8.3c-2.7,0-5.3-0.1-8-0.3
			c-2.6-0.2-5.1-0.4-7.5-0.7v34.3c0,9.9-8.1,18-18,18L151.2,448.6z M205.6,367.7c11.2,0,19.7-3,25.3-9s8.4-16.1,8.4-30.2
			c0-9.7-1.1-17.3-3.4-22.8c-2.2-5.5-5.4-9.3-9.5-11.5c-4.4-2.3-9.3-3.4-14.2-3.3c-4.1,0-8.2,0.7-12,2.2c-3.9,1.4-7.4,3.8-10.1,6.8
			v66.4c2.1,0.3,4.6,0.6,7.4,1C200.2,367.6,202.9,367.7,205.6,367.7z"/>
		<path class="st1" d="M419.6,329.1c0-15.2-2.2-28.1-6.7-38.4s-11-18.3-19.5-23.6c-8.6-5.3-19.2-8-31.8-8c-13.2,0-24.4,2.7-33.6,8
			c-9.3,5.4-16.7,13.6-21.1,23.4c-4.9,10.3-7.3,22.8-7.3,37.6c0,16.1,2.6,29.3,7.8,39.6c5.1,10.2,13.7,18.2,24.1,22.6
			c10.9,4.8,24.7,7.2,41.5,7.2c6.3,0,12.7-0.4,19-1.1c6.4-0.7,13.1-1.9,20.3-3.4v-29.2c-5.9,1.3-11.6,2.4-17.3,3.1
			c-5.4,0.8-10.9,1.2-16.4,1.2c-10.2,0-18.2-1.1-24-3.2c-5.8-2.1-9.9-5.6-12.4-10.5c-2-3.9-3.1-8.9-3.5-15h81V329.1z M338.5,316.9
			c0.1-7.8,1-14,2.5-18.8c1.7-5.2,4.3-8.9,7.6-11.1c3.7-2.3,8.1-3.5,12.5-3.4c4.3-0.1,8.6,1,12.3,3.4c3.3,2.3,5.8,6,7.4,11.1
			c1.5,4.7,2.3,10.9,2.4,18.7L338.5,316.9z"/>
		<path class="st1" d="M440.3,397.4l-0.1-138.3h32.3l3.1,16.1h1.9c5-5.2,11.1-9.3,17.8-12c7.1-2.8,14.6-4.2,22.2-4.1
			c8.3-0.2,16.5,1.7,24,5.3c7,3.6,12.5,9.3,16.5,17.1s6,18.2,6,31.1v84.9h-39.6v-82.5c0-8.1-1.7-13.8-5.1-16.9s-8.1-4.7-14.2-4.7
			c-3,0-6.1,0.4-9,1.2c-3.1,0.8-6,2-8.7,3.6c-2.8,1.7-5.3,3.8-7.4,6.3v93.1L440.3,397.4z"/>
		<path class="st0" d="M407.4,217.5H303.2c0.9-4.9,2.4-9.8,4.3-14.4c4.5-10.9,10.9-18.8,19-23.6c8.1-4.8,17.8-7.2,29-7.2
			c11,0,20.6,2.5,28.8,7.4c8.2,4.9,14.6,12.9,19.1,24.1C405.1,208.2,406.5,212.8,407.4,217.5z"/>
	</g>
</g>
</svg>
