<?xml version="1.0" encoding="utf-8"?>
<!-- Generator: Adobe Illustrator 26.0.1, SVG Export Plug-In . SVG Version: 6.00 Build 0)  -->
<svg version="1.1" id="Capa_1" xmlns="http://www.w3.org/2000/svg" xmlns:xlink="http://www.w3.org/1999/xlink" x="0px" y="0px"
	 viewBox="0 0 599.3 634.2" style="enable-background:new 0 0 599.3 634.2;" xml:space="preserve">
<style type="text/css">
	.st0{fill:#E10098;}
	.st1{fill:none;stroke:#7C7C7C;stroke-width:1.5;stroke-miterlimit:10;}
	.st2{fill:none;stroke:#7C7C7C;stroke-width:1.5;stroke-miterlimit:10;stroke-dasharray:5.27,5.27;}
	.st3{fill:none;stroke:#7C7C7C;stroke-width:1.5;stroke-miterlimit:10;stroke-dasharray:4.63,4.63;}
	.st4{fill:none;stroke:#7C7C7C;stroke-width:1.5;stroke-miterlimit:10;stroke-dasharray:5.17,5.17;}
	.st5{fill:none;stroke:#7C7C7C;stroke-width:1.5;stroke-miterlimit:10;stroke-dasharray:5.23;}
	.st6{enable-background:new    ;}
	.st7{fill:#7C7C7C;}
</style>
<g id="Capa_2_00000021088346405701998300000008402255569989586324_">
	<g id="Versiones_de_marca">
		<path class="st0" d="M273.7,232.5c-3.2-0.1-6.2,0.9-8.8,2.8v-8.5c0-3.1-2.5-5.7-5.7-5.7l0,0v25.3c-0.1,7.8,6.2,14.3,14,14.4
			c7.8,0.1,14.3-6.2,14.4-14C287.7,239,281.5,232.6,273.7,232.5L273.7,232.5z M274.1,255.2c-4.7,0.4-8.8-3.1-9.2-7.8
			s3.1-8.8,7.8-9.2c4.7-0.4,8.8,3.1,9.2,7.8c0,0.5,0,0.9,0,1.4C281.6,251.5,278.3,254.8,274.1,255.2z"/>
		<path class="st0" d="M352.3,247.3c0.3-7.8-5.7-14.5-13.6-14.8c-0.2,0-0.4,0-0.5,0c-7.9,0-14.3,6.5-14.3,14.4c0,0,0,0,0,0v25.3l0,0
			c3.1,0,5.7-2.5,5.7-5.7c0,0,0,0,0,0v-8.5c6.3,4.7,15.2,3.4,19.9-2.8C351.2,252.9,352.2,250.2,352.3,247.3L352.3,247.3z M346.6,246
			c0.4,4.7-3.1,8.8-7.8,9.2c-4.7,0.4-8.8-3.1-9.2-7.8c-0.4-4.7,3.1-8.8,7.8-9.2c0.5,0,0.9,0,1.4,0
			C342.9,238.5,346.2,241.8,346.6,246z"/>
		<path class="st0" d="M362.4,232.9v27.6h-5.7v-21.9C356.7,235.5,359.2,232.9,362.4,232.9L362.4,232.9z"/>
		<circle class="st0" cx="359.8" cy="225.4" r="4.3"/>
		<path class="st0" d="M434.5,221.4v38.8h-5.7v-33.1C428.8,224,431.3,221.4,434.5,221.4C434.5,221.4,434.5,221.4,434.5,221.4z"/>
		<path class="st0" d="M319.8,248.8c0.1-0.7,0.2-1.4,0.2-2.1c0-0.7-0.1-1.4-0.2-2.1c-1-6.8-6.8-11.9-13.7-12.1h-0.6
			c-6.9,0.1-12.7,5.2-13.7,12.1c-0.1,0.7-0.2,1.4-0.2,2.1c0,0.7,0.1,1.4,0.2,2.1c1.1,6.9,7,12,14,12.1c4.2,0,8.2-1.5,11.3-4.3l-4-4
			c-2,1.7-4.5,2.6-7.1,2.6h-0.5c-3.8-0.1-7-2.7-8-6.4L319.8,248.8z M305.8,238.2c3.9,0,7.3,2.6,8.2,6.4h-16.5
			C298.5,240.8,301.9,238.2,305.8,238.2L305.8,238.2z"/>
		<path class="st0" d="M424.3,248.8c0.2-1.4,0.2-2.8,0-4.3c-1-6.8-6.8-11.9-13.7-12.1h-0.6c-6.9,0.2-12.7,5.2-13.7,12.1
			c-0.2,1.4-0.2,2.8,0,4.3c1.1,6.9,7,12.1,14,12.1c4.2,0,8.2-1.5,11.3-4.3l-4-4c-2,1.7-4.5,2.6-7.1,2.6H410c-3.8-0.1-7.1-2.7-8-6.4
			L424.3,248.8z M410.3,238.2c3.9,0,7.3,2.6,8.2,6.4H402C403,240.8,406.4,238.2,410.3,238.2L410.3,238.2z"/>
		<path class="st0" d="M382.5,246.7c-0.1,7.7-6.5,13.9-14.2,13.8c0,0,0,0,0,0v-5.7c4.5,0.3,8.3-3.1,8.6-7.6c0.3-4.5-3.1-8.3-7.6-8.6
			c-0.3,0-0.7,0-1,0v-5.7C376,232.8,382.3,238.9,382.5,246.7C382.5,246.7,382.5,246.7,382.5,246.7z"/>
		<path class="st0" d="M379,246.7c0.1,7.7,6.5,13.9,14.2,13.8c0,0,0,0,0,0v-5.7c-4.5,0.3-8.3-3.1-8.6-7.6c-0.3-4.5,3.1-8.3,7.6-8.6
			c0.3,0,0.7,0,1,0v-5.7C385.5,232.8,379.1,238.9,379,246.7C379,246.7,379,246.7,379,246.7z"/>
		<path id="EXTENSION_LETRA" class="st0" d="M312.2,54.3v25.1h-25.1V29.1l0,0C301,29.1,312.2,40.4,312.2,54.3z"/>
		<path id="CIRCULO" class="st0" d="M412.9,142.3c0,34.7-28.2,62.9-62.9,62.9s-62.9-28.2-62.9-62.9v-37.7h25.1v37.7
			c0,20.8,16.9,37.7,37.7,37.7c20.8,0,37.7-16.9,37.7-37.7c0-20.8-16.9-37.7-37.7-37.7h-37.8V79.4H350
			C384.7,79.5,412.9,107.6,412.9,142.3z"/>
		<rect id="PIXEL_IZQUIERDO" x="261.9" y="79.4" class="st0" width="25.1" height="25.2"/>
		<path id="SONRISA" class="st0" d="M367.8,142.3c3.5,0,6.3,2.8,6.3,6.3c0,0.7-0.1,1.4-0.4,2.1c-4.6,13.1-19,20-32.1,15.3
			c-7.2-2.5-12.8-8.2-15.3-15.3c-1.2-3.3,0.6-6.9,3.8-8c0.7-0.2,1.4-0.4,2.1-0.4l0,0c2.7,0,5.1,1.7,6,4.3c2.4,6.5,9.6,9.9,16.1,7.6
			c3.5-1.3,6.3-4,7.6-7.6C362.7,144.1,365.1,142.4,367.8,142.3L367.8,142.3z"/>
		<rect id="PIXEL_SUPERIOR" x="324.8" y="41.7" class="st0" width="25.1" height="25.1"/>
		<path class="st1" d="M462.7,120.9c0.2-1.4,0.2-2.8,0-4.3c-1-6.8-6.8-11.9-13.7-12.1h-0.6c-6.9,0.1-12.7,5.2-13.7,12.1
			c-0.2,1.4-0.2,2.8,0,4.3c1.1,6.9,7,12.1,14,12.1c4.2,0,8.2-1.5,11.3-4.3l-4-4c-2,1.7-4.5,2.6-7.1,2.7h-0.5c-3.8-0.1-7-2.7-8-6.4
			L462.7,120.9z M448.7,110.3c3.9,0,7.3,2.6,8.3,6.4h-16.5C441.4,112.9,444.8,110.3,448.7,110.3L448.7,110.3z"/>
		<path class="st1" d="M259.1,120.9c0.2-1.4,0.2-2.8,0-4.3c-1-6.8-6.8-11.9-13.7-12.1h-0.6c-6.9,0.2-12.7,5.2-13.7,12.1
			c-0.2,1.4-0.2,2.8,0,4.3c1,6.9,7,12.1,14,12.1c4.2,0,8.2-1.5,11.3-4.3l-4-4c-2,1.7-4.5,2.6-7.1,2.7h-0.5c-3.8-0.1-7-2.7-8-6.4
			L259.1,120.9z M245.1,110.3c3.9,0,7.3,2.6,8.3,6.4h-16.6C237.7,112.9,241.1,110.3,245.1,110.3L245.1,110.3z"/>
		<path class="st1" d="M364.3,288.6c0.1-0.7,0.2-1.4,0.2-2.1c0-0.7-0.1-1.4-0.2-2.1c-1-6.8-6.8-11.9-13.7-12.1h-0.6
			c-6.9,0.1-12.7,5.2-13.7,12.1c-0.1,0.7-0.2,1.4-0.1,2.1c0,0.7,0,1.4,0.1,2.1c1.1,6.9,7,12.1,14,12.1c4.2,0,8.2-1.5,11.3-4.3l-4-4
			c-2,1.7-4.5,2.6-7.1,2.6H350c-3.8-0.1-7-2.7-8-6.4L364.3,288.6z M350.3,277.9c3.9,0,7.3,2.6,8.2,6.4H342
			C343,280.6,346.3,278,350.3,277.9L350.3,277.9z"/>
		<path class="st1" d="M364.3,17.1c0.2-1.4,0.2-2.8,0-4.3c-1-6.8-6.8-11.9-13.7-12.1h-0.6C343,0.9,337.2,6,336.2,12.8
			c-0.2,1.4-0.2,2.8,0,4.3c1.1,6.9,7,12.1,14,12.1c4.2,0,8.2-1.5,11.3-4.3l-4-4c-2,1.7-4.5,2.6-7.1,2.6H350c-3.8-0.1-7-2.7-8-6.4
			L364.3,17.1z M350.3,6.4c3.9,0,7.3,2.6,8.2,6.4H342C343,9.1,346.3,6.4,350.3,6.4L350.3,6.4z"/>
		<polyline class="st1" points="462.9,3.4 462.9,0.8 460.3,0.8 		"/>
		<line class="st2" x1="455" y1="0.8" x2="236.1" y2="0.8"/>
		<polyline class="st1" points="233.4,0.8 230.8,0.8 230.8,3.4 		"/>
		<line class="st3" x1="230.8" y1="8" x2="230.8" y2="24.2"/>
		<polyline class="st1" points="230.8,26.5 230.8,29.1 233.4,29.1 		"/>
		<line class="st2" x1="238.7" y1="29.1" x2="457.6" y2="29.1"/>
		<polyline class="st1" points="460.3,29.1 462.9,29.1 462.9,26.5 		"/>
		<line class="st3" x1="462.9" y1="21.9" x2="462.9" y2="5.7"/>
		<polyline class="st1" points="434.5,298 434.5,300.7 437.1,300.7 		"/>
		<line class="st3" x1="441.7" y1="300.7" x2="458" y2="300.7"/>
		<polyline class="st1" points="460.3,300.7 462.9,300.7 462.9,298 		"/>
		<line class="st4" x1="462.9" y1="292.9" x2="462.9" y2="5.9"/>
		<polyline class="st1" points="462.9,3.4 462.9,0.8 460.3,0.8 		"/>
		<line class="st3" x1="455.6" y1="0.8" x2="439.4" y2="0.8"/>
		<polyline class="st1" points="437.1,0.8 434.5,0.8 434.5,3.4 		"/>
		<line class="st4" x1="434.5" y1="8.5" x2="434.5" y2="295.5"/>
		<polyline class="st1" points="259.2,298 259.2,300.7 256.6,300.7 		"/>
		<line class="st3" x1="252" y1="300.7" x2="235.8" y2="300.7"/>
		<polyline class="st1" points="233.4,300.7 230.8,300.7 230.8,298 		"/>
		<line class="st4" x1="230.8" y1="292.9" x2="230.8" y2="5.9"/>
		<polyline class="st1" points="230.8,3.4 230.8,0.8 233.4,0.8 		"/>
		<line class="st3" x1="238.1" y1="0.8" x2="254.3" y2="0.8"/>
		<polyline class="st1" points="256.6,0.8 259.2,0.8 259.2,3.4 		"/>
		<line class="st4" x1="259.2" y1="8.5" x2="259.2" y2="295.5"/>
		<polyline class="st1" points="230.8,274.9 230.8,272.2 233.4,272.2 		"/>
		<line class="st2" x1="238.7" y1="272.3" x2="457.6" y2="272.3"/>
		<polyline class="st1" points="460.3,272.2 462.9,272.2 462.9,274.9 		"/>
		<line class="st3" x1="462.9" y1="279.5" x2="462.9" y2="295.7"/>
		<polyline class="st1" points="462.9,298 462.9,300.7 460.3,300.7 		"/>
		<line class="st2" x1="455" y1="300.7" x2="236.1" y2="300.7"/>
		<polyline class="st1" points="233.4,300.7 230.8,300.7 230.8,298 		"/>
		<line class="st3" x1="230.8" y1="293.4" x2="230.8" y2="277.2"/>
		<path class="st1" d="M364.3,221c0.2-1.4,0.2-2.8,0-4.3c-1-6.8-6.8-11.9-13.7-12.1h-0.6c-6.9,0.1-12.7,5.2-13.7,12.1
			c-0.2,1.4-0.2,2.8,0,4.3c1.1,6.9,7,12.1,14,12.1c4.2,0,8.2-1.5,11.3-4.3l-4-4c-2,1.7-4.5,2.6-7.1,2.6H350c-3.8-0.1-7-2.7-8-6.4
			L364.3,221z M350.3,210.4c3.9,0,7.3,2.6,8.2,6.4H342C343,213,346.3,210.3,350.3,210.4L350.3,210.4z"/>
		<line class="st5" x1="212.5" y1="204.7" x2="476.6" y2="204.6"/>
		<line class="st5" x1="212.5" y1="232.9" x2="476.6" y2="232.9"/>
		<path class="st0" d="M322.9,488.6c-4.6-0.1-9.1,1.4-12.8,4.1v-12.4c0-4.6-3.7-8.3-8.3-8.3l0,0V509c0,11.5,9.3,20.9,20.8,21
			c11.4,0.1,20.7-9.1,20.8-20.6C343.5,498,334.3,488.7,322.9,488.6L322.9,488.6z M323.5,521.7c-6.8,0.6-12.8-4.5-13.4-11.4
			s4.5-12.8,11.4-13.4c6.8-0.6,12.8,4.5,13.4,11.4c0.1,0.7,0.1,1.4,0,2C334.4,516.4,329.6,521.2,323.5,521.7z"/>
		<path class="st0" d="M437.4,510.2c0.5-11.4-8.3-21.1-19.7-21.6c-0.3,0-0.5,0-0.8,0c-11.5,0-20.9,9.5-20.8,21c0,0,0,0,0,0v36.9l0,0
			c4.6,0,8.3-3.7,8.3-8.3c0,0,0,0,0,0v-12.4c9.1,6.9,22.1,5,29-4.1C435.8,518.4,437.2,514.4,437.4,510.2L437.4,510.2z M429.1,508.3
			c0.6,6.8-4.5,12.8-11.4,13.4s-12.8-4.5-13.4-11.4c-0.6-6.8,4.5-12.8,11.4-13.4c0.7-0.1,1.4-0.1,2,0
			C423.8,497.4,428.6,502.2,429.1,508.3L429.1,508.3z"/>
		<path class="st0" d="M452.1,489.2v40.2h-8.3v-31.9C443.8,492.9,447.5,489.2,452.1,489.2L452.1,489.2z"/>
		<circle class="st0" cx="448.4" cy="478.2" r="6.2"/>
		<path class="st0" d="M557.1,472.5V529h-8.3v-48.2C548.8,476.2,552.6,472.5,557.1,472.5L557.1,472.5z"/>
		<path class="st0" d="M390.1,512.4c0.3-2.1,0.3-4.2,0-6.2c-1.5-9.9-9.9-17.4-20-17.6h-0.9c-10.1,0.2-18.5,7.6-20,17.6
			c-0.3,2.1-0.3,4.2,0,6.2c1.5,10.1,10.2,17.6,20.4,17.6c6.1,0,12-2.2,16.5-6.3l-5.9-5.9c-2.9,2.4-6.5,3.8-10.2,3.9h-0.7
			c-5.5-0.2-10.3-4-11.7-9.3H390.1z M369.6,496.9c5.7,0,10.6,3.8,12,9.3h-24C359,500.7,364,496.9,369.6,496.9L369.6,496.9z"/>
		<path class="st0" d="M542.3,512.4c0.3-2.1,0.3-4.1,0-6.2c-1.5-9.9-9.9-17.4-20-17.6h-0.9c-10.1,0.2-18.5,7.6-20,17.6
			c-0.3,2.1-0.3,4.1,0,6.2c1.5,10.1,10.2,17.6,20.4,17.6c6.1,0,12-2.2,16.5-6.3l-5.9-5.9c-2.9,2.4-6.5,3.8-10.3,3.8h-0.7
			c-5.5-0.2-10.3-3.9-11.7-9.3L542.3,512.4z M521.8,496.9c5.7,0,10.6,3.8,12,9.3h-24C511.2,500.7,516.1,496.9,521.8,496.9z"/>
		<path class="st0" d="M481.4,509.3c0,11.1-9.3,20.1-20.7,20.1v-8.3c6.9,0,12.4-5.3,12.4-11.8s-5.6-11.8-12.4-11.8v-8.3
			C472.1,489.2,481.4,498.2,481.4,509.3z"/>
		<path class="st0" d="M476.4,509.3c0,11.1,9.3,20.1,20.7,20.1v-8.3c-6.9,0-12.5-5.3-12.5-11.8s5.6-11.8,12.5-11.8v-8.3
			C485.6,489.2,476.4,498.2,476.4,509.3z"/>
		<path id="EXTENSION_LETRA-2" class="st0" d="M181.8,417.3v24.9h-24.9v-49.8l0,0C170.6,392.4,181.8,403.6,181.8,417.3
			C181.8,417.3,181.8,417.3,181.8,417.3z"/>
		<path id="CIRCULO-2" class="st0" d="M281.4,504.5c-0.4,34.4-28.7,61.9-63,61.5c-33.8-0.4-61-27.7-61.5-61.5v-37.4h24.9v37.4
			c0,20.6,16.7,37.4,37.4,37.4s37.4-16.7,37.3-37.4c0-20.6-16.7-37.3-37.3-37.3h-37.4v-24.9h37.4
			C253.5,442.2,281.4,470.1,281.4,504.5C281.4,504.5,281.4,504.5,281.4,504.5z"/>
		<rect id="PIXEL_IZQUIERDO-2" x="132" y="442.2" class="st0" width="24.9" height="24.9"/>
		<path id="SONRISA-2" class="st0" d="M236.7,504.5c3.4,0,6.2,2.8,6.2,6.2c0,0.7-0.1,1.4-0.4,2.1c-4.6,13-18.8,19.7-31.8,15.1
			c-7.1-2.5-12.6-8.1-15.1-15.1c-1.1-3.2,0.5-6.8,3.8-8c0.7-0.2,1.4-0.4,2.1-0.4l0,0c2.7,0,5,1.7,5.9,4.2c2.3,6.5,9.5,9.8,16,7.5
			c3.5-1.3,6.2-4,7.5-7.5C231.7,506.2,234.1,504.5,236.7,504.5L236.7,504.5z"/>
		<rect id="PIXEL_SUPERIOR-2" x="194.2" y="404.9" class="st0" width="24.9" height="24.9"/>
		<path class="st1" d="M131.8,491c0.3-2.1,0.3-4.1,0-6.2c-1.5-9.9-9.9-17.4-20-17.6h-0.9c-10.1,0.2-18.5,7.6-20,17.6
			c-0.3,2.1-0.3,4.1,0,6.2c1.5,10.1,10.2,17.6,20.4,17.6c6.1,0,12-2.2,16.5-6.3l-5.9-5.9c-2.9,2.4-6.5,3.8-10.3,3.9H111
			c-5.6-0.1-10.3-3.9-11.7-9.3H131.8z M111.3,475.5c5.7,0,10.6,3.8,12,9.3h-24C100.7,479.3,105.6,475.5,111.3,475.5L111.3,475.5z"/>
		<path class="st1" d="M598.3,491c0.3-2.1,0.3-4.1,0-6.2c-1.5-9.9-9.9-17.4-20-17.6h-0.9c-10.1,0.2-18.5,7.6-20,17.6
			c-0.3,2.1-0.3,4.1,0,6.2c1.5,10.1,10.2,17.6,20.5,17.6c6.1,0,12-2.2,16.5-6.3l-5.9-5.9c-2.9,2.4-6.5,3.8-10.3,3.9h-0.7
			c-5.5-0.1-10.3-3.9-11.7-9.3H598.3z M577.8,475.5c5.7,0,10.6,3.8,12,9.3h-24C567.2,479.3,572.2,475.5,577.8,475.5L577.8,475.5z"/>
		<path class="st1" d="M224.2,374.4c0.3-2.1,0.3-4.2,0-6.2c-1.5-9.9-9.9-17.4-20-17.6h-0.9c-10.1,0.2-18.5,7.6-20,17.6
			c-0.3,2.1-0.3,4.2,0,6.2c1.5,10.1,10.2,17.6,20.4,17.6c6.1,0,12-2.2,16.5-6.3l-5.9-5.9c-2.9,2.4-6.5,3.8-10.3,3.8h-0.7
			c-5.5-0.2-10.3-3.9-11.7-9.3H224.2z M203.7,358.9c5.7,0,10.6,3.8,12,9.3h-24C193.1,362.7,198,358.9,203.7,358.9z"/>
		<path class="st1" d="M224.2,591c0.3-2.1,0.3-4.2,0-6.2c-1.5-9.9-9.9-17.4-20-17.6h-0.9c-10.1,0.2-18.5,7.6-20,17.6
			c-0.3,2.1-0.3,4.2,0,6.2c1.5,10.1,10.2,17.6,20.5,17.6c6.1,0,12-2.2,16.5-6.3l-5.9-5.9c-2.9,2.4-6.6,3.8-10.4,3.8h-0.7
			c-5.5-0.1-10.3-3.9-11.7-9.3L224.2,591z M203.7,575.4c5.7,0,10.6,3.8,12,9.3h-24C193.1,579.3,198,575.5,203.7,575.4z"/>
		<rect x="90.6" y="350.6" class="st5" width="507.9" height="41.4"/>
		<rect x="90.6" y="350.6" class="st5" width="41.4" height="257.9"/>
		<rect x="90.6" y="566.7" class="st5" width="507.9" height="41.8"/>
		<rect x="557.1" y="350.6" class="st5" width="41.4" height="257.9"/>
		<line class="st5" x1="281.4" y1="634.2" x2="281.4" y2="330.5"/>
		<line class="st5" x1="301.8" y1="634.2" x2="301.8" y2="330.5"/>
		<path class="st1" d="M47,481.3c0.3-2.1,0.3-4.2,0-6.2c-1.5-9.9-9.9-17.4-20-17.6h-0.9C16,457.7,7.5,465.1,6,475.1
			c-0.3,2.1-0.3,4.2,0,6.2c1.5,10.1,10.2,17.6,20.5,17.6c6.1,0,12-2.2,16.5-6.3l-5.9-5.9c-2.9,2.4-6.5,3.8-10.3,3.9h-0.7
			c-5.5-0.1-10.3-3.9-11.7-9.3L47,481.3z M26.5,465.8c5.7,0,10.6,3.8,12,9.3h-24C15.9,469.6,20.8,465.8,26.5,465.8z"/>
		<line class="st5" x1="26.5" y1="481.3" x2="26.5" y2="521.7"/>
		<line class="st5" x1="6" y1="481.3" x2="6" y2="521.7"/>
		<line class="st1" x1="0" y1="509.3" x2="31.4" y2="509.3"/>
		<g class="st6">
			<path class="st7" d="M7.3,540.4l8-10.4l-0.1,2.3l-7.6-10h4.7l5.3,7.1h-1.8l5.4-7.1h4.6l-7.7,10l0-2.3l7.9,10.4h-4.8l-5.6-7.6
				l1.8,0.2l-5.5,7.3H7.3z"/>
		</g>
		<g class="st6">
			<path class="st7" d="M281.7,504.5l8-10.4l-0.1,2.3l-7.6-10h4.7l5.3,7.1h-1.8l5.4-7.1h4.6l-7.7,10l0-2.3l7.9,10.4h-4.8l-5.6-7.6
				l1.8,0.2l-5.5,7.3H281.7z"/>
		</g>
	</g>
</g>
</svg>
