<svg xmlns="http://www.w3.org/2000/svg" viewBox="0 0 425.15 537.57"><defs><style>.cls-1{fill:#e10098;}</style></defs><g id="Capa_2" data-name="Capa 2"><g id="Versiones_de_marca" data-name="Versiones de marca"><path class="cls-1" d="M141.45,203.34a14.15,14.15,0,0,0-8.76,2.84v-8.52A5.68,5.68,0,0,0,127,192h0v25.33a14.36,14.36,0,0,0,14.28,14.44,14.21,14.21,0,0,0,.16-28.41Zm.45,22.7a8.52,8.52,0,1,1,7.81-7.8A8.52,8.52,0,0,1,141.9,226Z"/><path class="cls-1" d="M220.06,218.17a14.2,14.2,0,1,0-28.39-.4V243.1h0a5.68,5.68,0,0,0,5.68-5.68V228.9a14.2,14.2,0,0,0,22.71-10.73Zm-5.7-1.32a8.52,8.52,0,1,1-7.8-7.8A8.51,8.51,0,0,1,214.36,216.85Z"/><path class="cls-1" d="M230.14,203.75v27.59h-5.7V209.45A5.7,5.7,0,0,1,230.14,203.75Z"/><circle class="cls-1" cx="227.59" cy="196.21" r="4.26"/><path class="cls-1" d="M302.26,192.29v38.77h-5.69V198A5.68,5.68,0,0,1,302.26,192.29Z"/><path class="cls-1" d="M187.58,219.68a14.32,14.32,0,0,0,0-4.27,14.19,14.19,0,0,0-13.74-12.06h-.61a14.19,14.19,0,0,0-13.73,12.06,14.32,14.32,0,0,0,0,4.27,14.2,14.2,0,0,0,14,12.07,17,17,0,0,0,11.32-4.31l-4-4a11.3,11.3,0,0,1-7.06,2.64h-.46a8.51,8.51,0,0,1-8-6.38Zm-14-10.66a8.52,8.52,0,0,1,8.25,6.39h-16.5A8.52,8.52,0,0,1,173.54,209Z"/><path class="cls-1" d="M292.05,219.67a15.2,15.2,0,0,0,0-4.26,14.21,14.21,0,0,0-13.74-12.07h-.61A14.2,14.2,0,0,0,264,215.41a14.26,14.26,0,0,0,0,4.26,14.2,14.2,0,0,0,14,12.07,17,17,0,0,0,11.32-4.3l-4-4a11.35,11.35,0,0,1-7.06,2.65h-.47a8.54,8.54,0,0,1-8-6.39ZM278,209a8.53,8.53,0,0,1,8.26,6.39H269.75A8.52,8.52,0,0,1,278,209Z"/><path class="cls-1" d="M250.25,217.55A14,14,0,0,1,236,231.34v-5.7a8.11,8.11,0,1,0,0-16.19v-5.7A14,14,0,0,1,250.25,217.55Z"/><path class="cls-1" d="M246.82,217.55a14,14,0,0,0,14.24,13.79v-5.7a8.11,8.11,0,1,1,0-16.19v-5.7A14,14,0,0,0,246.82,217.55Z"/><path id="EXTENSION_LETRA" data-name="EXTENSION LETRA" class="cls-1" d="M180,25.15V50.3H154.86V0h0A25.15,25.15,0,0,1,180,25.15Z"/><path id="CIRCULO" class="cls-1" d="M280.62,113.18a62.88,62.88,0,0,1-125.76,0V75.45H180v37.73a37.73,37.73,0,1,0,37.72-37.73H180V50.3h37.72A62.88,62.88,0,0,1,280.62,113.18Z"/><rect id="PIXEL_IZQUIERDO" data-name="PIXEL IZQUIERDO" class="cls-1" x="129.71" y="50.3" width="25.15" height="25.15"/><path id="SONRISA" class="cls-1" d="M235.53,113.18a6.29,6.29,0,0,1,5.93,8.39,25.16,25.16,0,0,1-47.43,0,6.29,6.29,0,0,1,5.93-8.39h0a6.36,6.36,0,0,1,5.95,4.27,12.58,12.58,0,0,0,23.66,0,6.37,6.37,0,0,1,6-4.27Z"/><rect id="PIXEL_SUPERIOR" data-name="PIXEL SUPERIOR" class="cls-1" x="192.59" y="12.58" width="25.15" height="25.15"/><path class="cls-1" d="M190.89,459.47a20.59,20.59,0,0,0-12.76,4.13V451.19a8.28,8.28,0,0,0-8.28-8.28h0v36.91a20.91,20.91,0,0,0,20.81,21,20.69,20.69,0,0,0,.23-41.38Zm.66,33.06a12.42,12.42,0,1,1,11.36-11.37A12.41,12.41,0,0,1,191.55,492.53Z"/><path class="cls-1" d="M305.4,481.06a20.69,20.69,0,0,0-20.55-21.6,20.91,20.91,0,0,0-20.81,21v36.9h0a8.28,8.28,0,0,0,8.28-8.28V496.7a20.69,20.69,0,0,0,33.08-15.64Zm-8.29-1.92a12.42,12.42,0,1,1-11.37-11.37A12.42,12.42,0,0,1,297.11,479.14Z"/><path class="cls-1" d="M320.09,460.06v40.19h-8.3V468.36A8.3,8.3,0,0,1,320.09,460.06Z"/><circle class="cls-1" cx="316.37" cy="449.07" r="6.21"/><path class="cls-1" d="M425.15,443.36v56.49h-8.28V451.64A8.28,8.28,0,0,1,425.15,443.36Z"/><path class="cls-1" d="M258.09,483.26a20.21,20.21,0,0,0,0-6.21,20.68,20.68,0,0,0-20-17.58h-.89a20.68,20.68,0,0,0-20,17.58,21.07,21.07,0,0,0,0,6.21,20.69,20.69,0,0,0,20.46,17.59,24.74,24.74,0,0,0,16.49-6.27l-5.87-5.87A16.48,16.48,0,0,1,238,492.57h-.69a12.43,12.43,0,0,1-11.68-9.31Zm-20.45-15.52a12.43,12.43,0,0,1,12,9.31h-24A12.43,12.43,0,0,1,237.64,467.74Z"/><path class="cls-1" d="M410.27,483.25a20.21,20.21,0,0,0,0-6.21,20.69,20.69,0,0,0-20-17.58h-.89a20.69,20.69,0,0,0-20,17.58,21.07,21.07,0,0,0,0,6.21,20.68,20.68,0,0,0,20.46,17.59,24.74,24.74,0,0,0,16.49-6.27l-5.87-5.87a16.48,16.48,0,0,1-10.28,3.86h-.68a12.43,12.43,0,0,1-11.69-9.31Zm-20.45-15.52a12.43,12.43,0,0,1,12,9.31h-24A12.43,12.43,0,0,1,389.82,467.73Z"/><path class="cls-1" d="M349.38,480.16c0,11.09-9.29,20.09-20.75,20.09V492c6.88,0,12.45-5.28,12.45-11.79s-5.57-11.8-12.45-11.8v-8.3C340.09,460.06,349.38,469.06,349.38,480.16Z"/><path class="cls-1" d="M344.38,480.16c0,11.09,9.29,20.09,20.75,20.09V492c-6.88,0-12.45-5.28-12.45-11.79s5.57-11.8,12.45-11.8v-8.3C353.67,460.06,344.38,469.06,344.38,480.16Z"/><path id="EXTENSION_LETRA-2" data-name="EXTENSION LETRA" class="cls-1" d="M49.8,388.18v24.9H24.9v-49.8h0A24.9,24.9,0,0,1,49.8,388.18Z"/><path id="CIRCULO-2" data-name="CIRCULO" class="cls-1" d="M149.39,475.32a62.25,62.25,0,1,1-124.49,0V438H49.8v37.34A37.35,37.35,0,1,0,87.14,438H49.8v-24.9H87.14A62.25,62.25,0,0,1,149.39,475.32Z"/><rect id="PIXEL_IZQUIERDO-2" data-name="PIXEL IZQUIERDO" class="cls-1" y="413.08" width="24.9" height="24.9"/><path id="SONRISA-2" data-name="SONRISA" class="cls-1" d="M104.75,475.32a6.23,6.23,0,0,1,5.87,8.31,24.9,24.9,0,0,1-46.95,0,6.23,6.23,0,0,1,5.87-8.31h0a6.3,6.3,0,0,1,5.89,4.23,12.46,12.46,0,0,0,23.43,0,6.28,6.28,0,0,1,5.89-4.23Z"/><rect id="PIXEL_SUPERIOR-2" data-name="PIXEL SUPERIOR" class="cls-1" x="62.25" y="375.73" width="24.9" height="24.9"/></g></g></svg>