<svg xmlns="http://www.w3.org/2000/svg" viewBox="0 0 960 1080"><defs><style>.cls-1{fill:#e10098;}.cls-2{fill:#fff;}</style></defs><g id="Capa_2" data-name="Capa 2"><g id="Versiones_de_marca" data-name="Versiones de marca"><rect class="cls-1" width="960" height="1080"/><path class="cls-2" d="M336.42,745a26,26,0,0,0-16.09,5.21V734.53a10.43,10.43,0,0,0-10.44-10.44h0v46.52c0,14.54,11.7,26.59,26.24,26.51a26.08,26.08,0,0,0,.29-52.16Zm.82,41.68a15.65,15.65,0,1,1,14.33-14.33A15.65,15.65,0,0,1,337.24,786.64Z"/><path class="cls-2" d="M480.76,772.18A26.07,26.07,0,0,0,454.86,745c-14.53-.09-26.23,12-26.23,26.51V818h0a10.43,10.43,0,0,0,10.43-10.43V791.89a26.07,26.07,0,0,0,41.7-19.71Zm-10.45-2.42A15.65,15.65,0,1,1,456,755.43,15.66,15.66,0,0,1,470.31,769.76Z"/><path class="cls-2" d="M499.27,745.71v50.66H488.81v-40.2A10.46,10.46,0,0,1,499.27,745.71Z"/><circle class="cls-2" cx="494.6" cy="731.86" r="7.82"/><path class="cls-2" d="M631.71,724.66v71.2H621.28V735.09A10.43,10.43,0,0,1,631.71,724.66Z"/><path class="cls-2" d="M421.13,775a26.5,26.5,0,0,0,0-7.82A26.08,26.08,0,0,0,395.9,745h-1.12a26.08,26.08,0,0,0-25.23,22.16,26.5,26.5,0,0,0,0,7.82,26.09,26.09,0,0,0,25.79,22.17,31.16,31.16,0,0,0,20.79-7.9l-7.4-7.4a20.77,20.77,0,0,1-13,4.86h-.86A15.64,15.64,0,0,1,380.19,775Zm-25.79-19.56a15.67,15.67,0,0,1,15.16,11.74H380.19A15.65,15.65,0,0,1,395.34,755.39Z"/><path class="cls-2" d="M613,774.94a25.63,25.63,0,0,0,0-7.82A26.07,26.07,0,0,0,587.74,745h-1.13a26.07,26.07,0,0,0-25.22,22.16,25.63,25.63,0,0,0,0,7.82,26.08,26.08,0,0,0,25.79,22.17,31.2,31.2,0,0,0,20.78-7.9l-7.39-7.4a20.78,20.78,0,0,1-13,4.86h-.85A15.64,15.64,0,0,1,572,774.94Zm-25.78-19.56a15.65,15.65,0,0,1,15.15,11.74H572A15.66,15.66,0,0,1,587.18,755.38Z"/><path class="cls-2" d="M536.2,771c0,14-11.71,25.33-26.15,25.33V785.91c8.67,0,15.69-6.66,15.69-14.87s-7-14.87-15.69-14.87V745.71C524.49,745.71,536.2,757.05,536.2,771Z"/><path class="cls-2" d="M529.9,771c0,14,11.71,25.33,26.16,25.33V785.91c-8.67,0-15.7-6.66-15.7-14.87s7-14.87,15.7-14.87V745.71C541.61,745.71,529.9,757.05,529.9,771Z"/><path id="EXTENSION_LETRA" data-name="EXTENSION LETRA" class="cls-2" d="M407.23,417.73v46.19H361.05V371.54h0A46.18,46.18,0,0,1,407.23,417.73Z"/><path id="CIRCULO" class="cls-2" d="M592,579.39a115.47,115.47,0,0,1-230.93,0V510.11h46.18v69.28a69.28,69.28,0,1,0,69.28-69.28H407.23V463.92h69.28A115.46,115.46,0,0,1,592,579.39Z"/><rect id="PIXEL_IZQUIERDO" data-name="PIXEL IZQUIERDO" class="cls-2" x="314.86" y="463.92" width="46.19" height="46.19"/><path id="SONRISA" class="cls-2" d="M509.18,579.39a11.56,11.56,0,0,1,10.89,15.41,46.21,46.21,0,0,1-87.11,0,11.56,11.56,0,0,1,10.89-15.41h0a11.69,11.69,0,0,1,10.94,7.84,23.1,23.1,0,0,0,43.45,0,11.68,11.68,0,0,1,10.94-7.84Z"/><rect id="PIXEL_SUPERIOR" data-name="PIXEL SUPERIOR" class="cls-2" x="430.33" y="394.64" width="46.19" height="46.19"/></g></g></svg>