<svg xmlns="http://www.w3.org/2000/svg" viewBox="0 0 1169.23 613.93"><defs><style>.cls-1,.cls-2{fill:none;stroke-miterlimit:10;}.cls-1{stroke:#adacac;}.cls-2{stroke:#646463;stroke-width:3.16px;}.cls-3{opacity:0.2;}.cls-4{fill:#e10098;}</style></defs><g id="Capa_2" data-name="Capa 2"><g id="Construcción"><polyline class="cls-1" points="34.11 0 34.11 34.11 0 34.11"/><polyline class="cls-1" points="68.22 0 68.22 34.11 34.11 34.11 34.11 0"/><polyline class="cls-1" points="102.32 0 102.32 34.11 68.22 34.11 68.22 0"/><polyline class="cls-1" points="136.43 0 136.43 34.11 102.32 34.11 102.32 0"/><polyline class="cls-1" points="170.54 0 170.54 34.11 136.43 34.11 136.43 0"/><polyline class="cls-1" points="204.65 0 204.65 34.11 170.54 34.11 170.54 0"/><polyline class="cls-1" points="238.75 0 238.75 34.11 204.65 34.11 204.65 0"/><polyline class="cls-1" points="272.86 0 272.86 34.11 238.75 34.11 238.75 0"/><polyline class="cls-1" points="306.97 0 306.97 34.11 272.86 34.11 272.86 0"/><polyline class="cls-1" points="341.07 0 341.07 34.11 306.97 34.11 306.97 0"/><polyline class="cls-1" points="375.18 0 375.18 34.11 341.07 34.11 341.07 0"/><polyline class="cls-1" points="409.29 0 409.29 34.11 375.18 34.11 375.18 0"/><polyline class="cls-1" points="443.4 0 443.4 34.11 409.29 34.11 409.29 0"/><polyline class="cls-1" points="477.5 0 477.5 34.11 443.4 34.11 443.4 0"/><polyline class="cls-1" points="511.61 0 511.61 34.11 477.5 34.11 477.5 0"/><polyline class="cls-1" points="545.72 34.11 511.61 34.11 511.61 0"/><polyline class="cls-1" points="0 34.11 34.11 34.11 34.11 68.22 0 68.22"/><rect class="cls-1" x="34.11" y="34.11" width="34.11" height="34.11"/><rect class="cls-1" x="68.21" y="34.11" width="34.11" height="34.11"/><rect class="cls-1" x="102.32" y="34.11" width="34.11" height="34.11"/><rect class="cls-1" x="136.43" y="34.11" width="34.11" height="34.11"/><rect class="cls-1" x="170.54" y="34.11" width="34.11" height="34.11"/><rect class="cls-1" x="204.64" y="34.11" width="34.11" height="34.11"/><rect class="cls-1" x="238.75" y="34.11" width="34.11" height="34.11"/><rect class="cls-1" x="272.86" y="34.11" width="34.11" height="34.11"/><rect class="cls-1" x="306.97" y="34.11" width="34.11" height="34.11"/><rect class="cls-1" x="341.07" y="34.11" width="34.11" height="34.11"/><rect class="cls-1" x="375.18" y="34.11" width="34.11" height="34.11"/><rect class="cls-1" x="409.29" y="34.11" width="34.11" height="34.11"/><rect class="cls-1" x="443.4" y="34.11" width="34.11" height="34.11"/><rect class="cls-1" x="477.5" y="34.11" width="34.11" height="34.11"/><polyline class="cls-1" points="545.72 68.22 511.61 68.22 511.61 34.11 545.72 34.11"/><polyline class="cls-1" points="0 68.22 34.11 68.22 34.11 102.32 0 102.32"/><rect class="cls-1" x="34.11" y="68.21" width="34.11" height="34.11"/><rect class="cls-1" x="68.21" y="68.21" width="34.11" height="34.11"/><rect class="cls-1" x="102.32" y="68.21" width="34.11" height="34.11"/><rect class="cls-1" x="136.43" y="68.21" width="34.11" height="34.11"/><rect class="cls-1" x="170.54" y="68.21" width="34.11" height="34.11"/><rect class="cls-1" x="204.64" y="68.21" width="34.11" height="34.11"/><rect class="cls-1" x="238.75" y="68.21" width="34.11" height="34.11"/><rect class="cls-1" x="272.86" y="68.21" width="34.11" height="34.11"/><rect class="cls-1" x="306.97" y="68.21" width="34.11" height="34.11"/><rect class="cls-1" x="341.07" y="68.21" width="34.11" height="34.11"/><rect class="cls-1" x="375.18" y="68.21" width="34.11" height="34.11"/><rect class="cls-1" x="409.29" y="68.21" width="34.11" height="34.11"/><rect class="cls-1" x="443.4" y="68.21" width="34.11" height="34.11"/><rect class="cls-1" x="477.5" y="68.21" width="34.11" height="34.11"/><polyline class="cls-1" points="545.72 102.32 511.61 102.32 511.61 68.22 545.72 68.22"/><polyline class="cls-1" points="0 102.32 34.11 102.32 34.11 136.43 0 136.43"/><rect class="cls-1" x="34.11" y="102.32" width="34.11" height="34.11"/><rect class="cls-1" x="68.21" y="102.32" width="34.11" height="34.11"/><rect class="cls-1" x="102.32" y="102.32" width="34.11" height="34.11"/><rect class="cls-1" x="136.43" y="102.32" width="34.11" height="34.11"/><rect class="cls-1" x="170.54" y="102.32" width="34.11" height="34.11"/><rect class="cls-1" x="204.64" y="102.32" width="34.11" height="34.11"/><rect class="cls-1" x="238.75" y="102.32" width="34.11" height="34.11"/><rect class="cls-1" x="272.86" y="102.32" width="34.11" height="34.11"/><rect class="cls-1" x="306.97" y="102.32" width="34.11" height="34.11"/><rect class="cls-1" x="341.07" y="102.32" width="34.11" height="34.11"/><rect class="cls-1" x="375.18" y="102.32" width="34.11" height="34.11"/><rect class="cls-1" x="409.29" y="102.32" width="34.11" height="34.11"/><rect class="cls-1" x="443.4" y="102.32" width="34.11" height="34.11"/><rect class="cls-1" x="477.5" y="102.32" width="34.11" height="34.11"/><polyline class="cls-1" points="545.72 136.43 511.61 136.43 511.61 102.32 545.72 102.32"/><polyline class="cls-1" points="0 136.43 34.11 136.43 34.11 170.54 0 170.54"/><rect class="cls-1" x="34.11" y="136.43" width="34.11" height="34.11"/><rect class="cls-1" x="68.21" y="136.43" width="34.11" height="34.11"/><rect class="cls-1" x="102.32" y="136.43" width="34.11" height="34.11"/><rect class="cls-1" x="136.43" y="136.43" width="34.11" height="34.11"/><rect class="cls-1" x="170.54" y="136.43" width="34.11" height="34.11"/><rect class="cls-1" x="204.64" y="136.43" width="34.11" height="34.11"/><rect class="cls-1" x="238.75" y="136.43" width="34.11" height="34.11"/><rect class="cls-1" x="272.86" y="136.43" width="34.11" height="34.11"/><rect class="cls-1" x="306.97" y="136.43" width="34.11" height="34.11"/><rect class="cls-1" x="341.07" y="136.43" width="34.11" height="34.11"/><rect class="cls-1" x="375.18" y="136.43" width="34.11" height="34.11"/><rect class="cls-1" x="409.29" y="136.43" width="34.11" height="34.11"/><rect class="cls-1" x="443.4" y="136.43" width="34.11" height="34.11"/><rect class="cls-1" x="477.5" y="136.43" width="34.11" height="34.11"/><polyline class="cls-1" points="545.72 170.54 511.61 170.54 511.61 136.43 545.72 136.43"/><polyline class="cls-1" points="0 170.54 34.11 170.54 34.11 204.65 0 204.65"/><rect class="cls-1" x="34.11" y="170.54" width="34.11" height="34.11"/><rect class="cls-1" x="68.21" y="170.54" width="34.11" height="34.11"/><rect class="cls-1" x="102.32" y="170.54" width="34.11" height="34.11"/><rect class="cls-1" x="136.43" y="170.54" width="34.11" height="34.11"/><rect class="cls-1" x="170.54" y="170.54" width="34.11" height="34.11"/><rect class="cls-1" x="204.64" y="170.54" width="34.11" height="34.11"/><rect class="cls-1" x="238.75" y="170.54" width="34.11" height="34.11"/><rect class="cls-1" x="272.86" y="170.54" width="34.11" height="34.11"/><rect class="cls-1" x="306.97" y="170.54" width="34.11" height="34.11"/><rect class="cls-1" x="341.07" y="170.54" width="34.11" height="34.11"/><rect class="cls-1" x="375.18" y="170.54" width="34.11" height="34.11"/><rect class="cls-1" x="409.29" y="170.54" width="34.11" height="34.11"/><rect class="cls-1" x="443.4" y="170.54" width="34.11" height="34.11"/><rect class="cls-1" x="477.5" y="170.54" width="34.11" height="34.11"/><polyline class="cls-1" points="545.72 204.65 511.61 204.65 511.61 170.54 545.72 170.54"/><polyline class="cls-1" points="0 204.65 34.11 204.65 34.11 238.75 0 238.75"/><rect class="cls-1" x="34.11" y="204.64" width="34.11" height="34.11"/><rect class="cls-1" x="68.21" y="204.64" width="34.11" height="34.11"/><rect class="cls-1" x="102.32" y="204.64" width="34.11" height="34.11"/><rect class="cls-1" x="136.43" y="204.64" width="34.11" height="34.11"/><rect class="cls-1" x="170.54" y="204.64" width="34.11" height="34.11"/><rect class="cls-1" x="204.64" y="204.64" width="34.11" height="34.11"/><rect class="cls-1" x="238.75" y="204.64" width="34.11" height="34.11"/><rect class="cls-1" x="272.86" y="204.64" width="34.11" height="34.11"/><rect class="cls-1" x="306.97" y="204.64" width="34.11" height="34.11"/><rect class="cls-1" x="341.07" y="204.64" width="34.11" height="34.11"/><rect class="cls-1" x="375.18" y="204.64" width="34.11" height="34.11"/><rect class="cls-1" x="409.29" y="204.64" width="34.11" height="34.11"/><rect class="cls-1" x="443.4" y="204.64" width="34.11" height="34.11"/><rect class="cls-1" x="477.5" y="204.64" width="34.11" height="34.11"/><polyline class="cls-1" points="545.72 238.75 511.61 238.75 511.61 204.65 545.72 204.65"/><polyline class="cls-1" points="0 238.75 34.11 238.75 34.11 272.86 0 272.86"/><rect class="cls-1" x="34.11" y="238.75" width="34.11" height="34.11"/><rect class="cls-1" x="68.21" y="238.75" width="34.11" height="34.11"/><rect class="cls-1" x="102.32" y="238.75" width="34.11" height="34.11"/><rect class="cls-1" x="136.43" y="238.75" width="34.11" height="34.11"/><rect class="cls-1" x="170.54" y="238.75" width="34.11" height="34.11"/><rect class="cls-1" x="204.64" y="238.75" width="34.11" height="34.11"/><rect class="cls-1" x="238.75" y="238.75" width="34.11" height="34.11"/><rect class="cls-1" x="272.86" y="238.75" width="34.11" height="34.11"/><rect class="cls-1" x="306.97" y="238.75" width="34.11" height="34.11"/><rect class="cls-1" x="341.07" y="238.75" width="34.11" height="34.11"/><rect class="cls-1" x="375.18" y="238.75" width="34.11" height="34.11"/><rect class="cls-1" x="409.29" y="238.75" width="34.11" height="34.11"/><rect class="cls-1" x="443.4" y="238.75" width="34.11" height="34.11"/><rect class="cls-1" x="477.5" y="238.75" width="34.11" height="34.11"/><polyline class="cls-1" points="545.72 272.86 511.61 272.86 511.61 238.75 545.72 238.75"/><polyline class="cls-1" points="0 272.86 34.11 272.86 34.11 306.97 0 306.97"/><rect class="cls-1" x="34.11" y="272.86" width="34.11" height="34.11"/><rect class="cls-1" x="68.21" y="272.86" width="34.11" height="34.11"/><rect class="cls-1" x="102.32" y="272.86" width="34.11" height="34.11"/><rect class="cls-1" x="136.43" y="272.86" width="34.11" height="34.11"/><rect class="cls-1" x="170.54" y="272.86" width="34.11" height="34.11"/><rect class="cls-1" x="204.64" y="272.86" width="34.11" height="34.11"/><rect class="cls-1" x="238.75" y="272.86" width="34.11" height="34.11"/><rect class="cls-1" x="272.86" y="272.86" width="34.11" height="34.11"/><rect class="cls-1" x="306.97" y="272.86" width="34.11" height="34.11"/><rect class="cls-1" x="341.07" y="272.86" width="34.11" height="34.11"/><rect class="cls-1" x="375.18" y="272.86" width="34.11" height="34.11"/><rect class="cls-1" x="409.29" y="272.86" width="34.11" height="34.11"/><rect class="cls-1" x="443.4" y="272.86" width="34.11" height="34.11"/><rect class="cls-1" x="477.5" y="272.86" width="34.11" height="34.11"/><polyline class="cls-1" points="545.72 306.97 511.61 306.97 511.61 272.86 545.72 272.86"/><polyline class="cls-1" points="0 306.97 34.11 306.97 34.11 341.07 0 341.07"/><rect class="cls-1" x="34.11" y="306.97" width="34.11" height="34.11"/><rect class="cls-1" x="68.21" y="306.97" width="34.11" height="34.11"/><rect class="cls-1" x="102.32" y="306.97" width="34.11" height="34.11"/><rect class="cls-1" x="136.43" y="306.97" width="34.11" height="34.11"/><rect class="cls-1" x="170.54" y="306.97" width="34.11" height="34.11"/><rect class="cls-1" x="204.64" y="306.97" width="34.11" height="34.11"/><rect class="cls-1" x="238.75" y="306.97" width="34.11" height="34.11"/><rect class="cls-1" x="272.86" y="306.97" width="34.11" height="34.11"/><rect class="cls-1" x="306.97" y="306.97" width="34.11" height="34.11"/><rect class="cls-1" x="341.07" y="306.97" width="34.11" height="34.11"/><rect class="cls-1" x="375.18" y="306.97" width="34.11" height="34.11"/><rect class="cls-1" x="409.29" y="306.97" width="34.11" height="34.11"/><rect class="cls-1" x="443.4" y="306.97" width="34.11" height="34.11"/><rect class="cls-1" x="477.5" y="306.97" width="34.11" height="34.11"/><polyline class="cls-1" points="545.72 341.07 511.61 341.07 511.61 306.97 545.72 306.97"/><polyline class="cls-1" points="0 341.07 34.11 341.07 34.11 375.18 0 375.18"/><rect class="cls-1" x="34.11" y="341.07" width="34.11" height="34.11"/><rect class="cls-1" x="68.21" y="341.07" width="34.11" height="34.11"/><rect class="cls-1" x="102.32" y="341.07" width="34.11" height="34.11"/><rect class="cls-1" x="136.43" y="341.07" width="34.11" height="34.11"/><rect class="cls-1" x="170.54" y="341.07" width="34.11" height="34.11"/><rect class="cls-1" x="204.64" y="341.07" width="34.11" height="34.11"/><rect class="cls-1" x="238.75" y="341.07" width="34.11" height="34.11"/><rect class="cls-1" x="272.86" y="341.07" width="34.11" height="34.11"/><rect class="cls-1" x="306.97" y="341.07" width="34.11" height="34.11"/><rect class="cls-1" x="341.07" y="341.07" width="34.11" height="34.11"/><rect class="cls-1" x="375.18" y="341.07" width="34.11" height="34.11"/><rect class="cls-1" x="409.29" y="341.07" width="34.11" height="34.11"/><rect class="cls-1" x="443.4" y="341.07" width="34.11" height="34.11"/><rect class="cls-1" x="477.5" y="341.07" width="34.11" height="34.11"/><polyline class="cls-1" points="545.72 375.18 511.61 375.18 511.61 341.07 545.72 341.07"/><polyline class="cls-1" points="0 375.18 34.11 375.18 34.11 409.29 0 409.29"/><rect class="cls-1" x="34.11" y="375.18" width="34.11" height="34.11"/><rect class="cls-1" x="68.21" y="375.18" width="34.11" height="34.11"/><rect class="cls-1" x="102.32" y="375.18" width="34.11" height="34.11"/><rect class="cls-1" x="136.43" y="375.18" width="34.11" height="34.11"/><rect class="cls-1" x="170.54" y="375.18" width="34.11" height="34.11"/><rect class="cls-1" x="204.64" y="375.18" width="34.11" height="34.11"/><rect class="cls-1" x="238.75" y="375.18" width="34.11" height="34.11"/><rect class="cls-1" x="272.86" y="375.18" width="34.11" height="34.11"/><rect class="cls-1" x="306.97" y="375.18" width="34.11" height="34.11"/><rect class="cls-1" x="341.07" y="375.18" width="34.11" height="34.11"/><rect class="cls-1" x="375.18" y="375.18" width="34.11" height="34.11"/><rect class="cls-1" x="409.29" y="375.18" width="34.11" height="34.11"/><rect class="cls-1" x="443.4" y="375.18" width="34.11" height="34.11"/><rect class="cls-1" x="477.5" y="375.18" width="34.11" height="34.11"/><polyline class="cls-1" points="545.72 409.29 511.61 409.29 511.61 375.18 545.72 375.18"/><polyline class="cls-1" points="0 409.29 34.11 409.29 34.11 443.4 0 443.4"/><rect class="cls-1" x="34.11" y="409.29" width="34.11" height="34.11"/><rect class="cls-1" x="68.21" y="409.29" width="34.11" height="34.11"/><rect class="cls-1" x="102.32" y="409.29" width="34.11" height="34.11"/><rect class="cls-1" x="136.43" y="409.29" width="34.11" height="34.11"/><rect class="cls-1" x="170.54" y="409.29" width="34.11" height="34.11"/><rect class="cls-1" x="204.64" y="409.29" width="34.11" height="34.11"/><rect class="cls-1" x="238.75" y="409.29" width="34.11" height="34.11"/><rect class="cls-1" x="272.86" y="409.29" width="34.11" height="34.11"/><rect class="cls-1" x="306.97" y="409.29" width="34.11" height="34.11"/><rect class="cls-1" x="341.07" y="409.29" width="34.11" height="34.11"/><rect class="cls-1" x="375.18" y="409.29" width="34.11" height="34.11"/><rect class="cls-1" x="409.29" y="409.29" width="34.11" height="34.11"/><rect class="cls-1" x="443.4" y="409.29" width="34.11" height="34.11"/><rect class="cls-1" x="477.5" y="409.29" width="34.11" height="34.11"/><polyline class="cls-1" points="545.72 443.4 511.61 443.4 511.61 409.29 545.72 409.29"/><polyline class="cls-1" points="0 443.4 34.11 443.4 34.11 477.5 0 477.5"/><rect class="cls-1" x="34.11" y="443.4" width="34.11" height="34.11"/><rect class="cls-1" x="68.21" y="443.4" width="34.11" height="34.11"/><rect class="cls-1" x="102.32" y="443.4" width="34.11" height="34.11"/><rect class="cls-1" x="136.43" y="443.4" width="34.11" height="34.11"/><rect class="cls-1" x="170.54" y="443.4" width="34.11" height="34.11"/><rect class="cls-1" x="204.64" y="443.4" width="34.11" height="34.11"/><rect class="cls-1" x="238.75" y="443.4" width="34.11" height="34.11"/><rect class="cls-1" x="272.86" y="443.4" width="34.11" height="34.11"/><rect class="cls-1" x="306.97" y="443.4" width="34.11" height="34.11"/><rect class="cls-1" x="341.07" y="443.4" width="34.11" height="34.11"/><rect class="cls-1" x="375.18" y="443.4" width="34.11" height="34.11"/><rect class="cls-1" x="409.29" y="443.4" width="34.11" height="34.11"/><rect class="cls-1" x="443.4" y="443.4" width="34.11" height="34.11"/><rect class="cls-1" x="477.5" y="443.4" width="34.11" height="34.11"/><polyline class="cls-1" points="545.72 477.5 511.61 477.5 511.61 443.4 545.72 443.4"/><polyline class="cls-1" points="0 477.5 34.11 477.5 34.11 511.61 0 511.61"/><rect class="cls-1" x="34.11" y="477.5" width="34.11" height="34.11"/><rect class="cls-1" x="68.21" y="477.5" width="34.11" height="34.11"/><rect class="cls-1" x="102.32" y="477.5" width="34.11" height="34.11"/><rect class="cls-1" x="136.43" y="477.5" width="34.11" height="34.11"/><rect class="cls-1" x="170.54" y="477.5" width="34.11" height="34.11"/><rect class="cls-1" x="204.64" y="477.5" width="34.11" height="34.11"/><rect class="cls-1" x="238.75" y="477.5" width="34.11" height="34.11"/><rect class="cls-1" x="272.86" y="477.5" width="34.11" height="34.11"/><rect class="cls-1" x="306.97" y="477.5" width="34.11" height="34.11"/><rect class="cls-1" x="341.07" y="477.5" width="34.11" height="34.11"/><rect class="cls-1" x="375.18" y="477.5" width="34.11" height="34.11"/><rect class="cls-1" x="409.29" y="477.5" width="34.11" height="34.11"/><rect class="cls-1" x="443.4" y="477.5" width="34.11" height="34.11"/><rect class="cls-1" x="477.5" y="477.5" width="34.11" height="34.11"/><polyline class="cls-1" points="545.72 511.61 511.61 511.61 511.61 477.5 545.72 477.5"/><polyline class="cls-1" points="0 511.61 34.11 511.61 34.11 545.72 0 545.72"/><rect class="cls-1" x="34.11" y="511.61" width="34.11" height="34.11"/><rect class="cls-1" x="68.21" y="511.61" width="34.11" height="34.11"/><rect class="cls-1" x="102.32" y="511.61" width="34.11" height="34.11"/><rect class="cls-1" x="136.43" y="511.61" width="34.11" height="34.11"/><rect class="cls-1" x="170.54" y="511.61" width="34.11" height="34.11"/><rect class="cls-1" x="204.64" y="511.61" width="34.11" height="34.11"/><rect class="cls-1" x="238.75" y="511.61" width="34.11" height="34.11"/><rect class="cls-1" x="272.86" y="511.61" width="34.11" height="34.11"/><rect class="cls-1" x="306.97" y="511.61" width="34.11" height="34.11"/><rect class="cls-1" x="341.07" y="511.61" width="34.11" height="34.11"/><rect class="cls-1" x="375.18" y="511.61" width="34.11" height="34.11"/><rect class="cls-1" x="409.29" y="511.61" width="34.11" height="34.11"/><rect class="cls-1" x="443.4" y="511.61" width="34.11" height="34.11"/><rect class="cls-1" x="477.5" y="511.61" width="34.11" height="34.11"/><polyline class="cls-1" points="545.72 545.72 511.61 545.72 511.61 511.61 545.72 511.61"/><polyline class="cls-1" points="0 545.72 34.11 545.72 34.11 579.83 0 579.83"/><rect class="cls-1" x="34.11" y="545.72" width="34.11" height="34.11"/><rect class="cls-1" x="68.21" y="545.72" width="34.11" height="34.11"/><rect class="cls-1" x="102.32" y="545.72" width="34.11" height="34.11"/><rect class="cls-1" x="136.43" y="545.72" width="34.11" height="34.11"/><rect class="cls-1" x="170.54" y="545.72" width="34.11" height="34.11"/><rect class="cls-1" x="204.64" y="545.72" width="34.11" height="34.11"/><rect class="cls-1" x="238.75" y="545.72" width="34.11" height="34.11"/><rect class="cls-1" x="272.86" y="545.72" width="34.11" height="34.11"/><rect class="cls-1" x="306.97" y="545.72" width="34.11" height="34.11"/><rect class="cls-1" x="341.07" y="545.72" width="34.11" height="34.11"/><rect class="cls-1" x="375.18" y="545.72" width="34.11" height="34.11"/><rect class="cls-1" x="409.29" y="545.72" width="34.11" height="34.11"/><rect class="cls-1" x="443.4" y="545.72" width="34.11" height="34.11"/><rect class="cls-1" x="477.5" y="545.72" width="34.11" height="34.11"/><polyline class="cls-1" points="545.72 579.83 511.61 579.83 511.61 545.72 545.72 545.72"/><polyline class="cls-1" points="0 579.83 34.11 579.83 34.11 613.93"/><polyline class="cls-1" points="34.11 613.93 34.11 579.83 68.22 579.83 68.22 613.93"/><polyline class="cls-1" points="68.22 613.93 68.22 579.83 102.32 579.83 102.32 613.93"/><polyline class="cls-1" points="102.32 613.93 102.32 579.83 136.43 579.83 136.43 613.93"/><polyline class="cls-1" points="136.43 613.93 136.43 579.83 170.54 579.83 170.54 613.93"/><polyline class="cls-1" points="170.54 613.93 170.54 579.83 204.65 579.83 204.65 613.93"/><polyline class="cls-1" points="204.65 613.93 204.65 579.83 238.75 579.83 238.75 613.93"/><polyline class="cls-1" points="238.75 613.93 238.75 579.83 272.86 579.83 272.86 613.93"/><polyline class="cls-1" points="272.86 613.93 272.86 579.83 306.97 579.83 306.97 613.93"/><polyline class="cls-1" points="306.97 613.93 306.97 579.83 341.07 579.83 341.07 613.93"/><polyline class="cls-1" points="341.07 613.93 341.07 579.83 375.18 579.83 375.18 613.93"/><polyline class="cls-1" points="375.18 613.93 375.18 579.83 409.29 579.83 409.29 613.93"/><polyline class="cls-1" points="409.29 613.93 409.29 579.83 443.4 579.83 443.4 613.93"/><polyline class="cls-1" points="443.4 613.93 443.4 579.83 477.5 579.83 477.5 613.93"/><polyline class="cls-1" points="477.5 613.93 477.5 579.83 511.61 579.83 511.61 613.93"/><polyline class="cls-1" points="511.61 613.93 511.61 579.83 545.72 579.83"/><circle class="cls-2" cx="306.97" cy="375.18" r="170.54"/><circle class="cls-2" cx="306.97" cy="375.18" r="102.32"/><rect class="cls-2" x="68.21" y="204.64" width="238.75" height="68.21"/><rect class="cls-2" x="136.43" y="68.21" width="68.21" height="306.97"/><circle class="cls-2" cx="136.43" cy="136.43" r="68.21"/><rect class="cls-2" x="238.75" y="102.32" width="68.21" height="68.21"/><circle class="cls-2" cx="306.97" cy="375.18" r="68.21"/><circle class="cls-2" cx="306.97" cy="375.18" r="34.11"/><circle class="cls-2" cx="258.84" cy="392.24" r="17.05"/><circle class="cls-2" cx="355.23" cy="392.24" r="17.05"/><line class="cls-2" x1="136.43" y1="375.18" x2="477.5" y2="375.18"/><g class="cls-3"><path id="EXTENSION_LETRA" data-name="EXTENSION LETRA" class="cls-4" d="M894.79,136.43v68.21H826.57V68.21h0A68.22,68.22,0,0,1,894.79,136.43Z"/><path id="CIRCULO" class="cls-4" d="M1167.65,375.18a170.54,170.54,0,0,1-341.08,0V272.86h68.22V375.18A102.32,102.32,0,1,0,997.11,272.86H894.79V204.64H997.11A170.54,170.54,0,0,1,1167.65,375.18Z"/><rect id="PIXEL_IZQUIERDO" data-name="PIXEL IZQUIERDO" class="cls-4" x="758.36" y="204.64" width="68.21" height="68.21"/><path id="SONRISA" class="cls-4" d="M1045.35,375.18A17.07,17.07,0,0,1,1061.43,398a68.24,68.24,0,0,1-128.64,0,17.07,17.07,0,0,1,16.08-22.77h0A17.25,17.25,0,0,1,965,386.77a34.12,34.12,0,0,0,64.18,0,17.25,17.25,0,0,1,16.15-11.59Z"/><rect id="PIXEL_SUPERIOR" data-name="PIXEL SUPERIOR" class="cls-4" x="928.89" y="102.32" width="68.21" height="68.21"/></g><path id="EXTENSION_LETRA-2" data-name="EXTENSION LETRA" class="cls-2" d="M894.79,136.43v68.21H826.57V68.21h0A68.22,68.22,0,0,1,894.79,136.43Z"/><path id="CIRCULO-2" data-name="CIRCULO" class="cls-2" d="M1167.65,375.18a170.54,170.54,0,0,1-341.08,0V272.86h68.22V375.18A102.32,102.32,0,1,0,997.11,272.86H894.79V204.64H997.11A170.54,170.54,0,0,1,1167.65,375.18Z"/><rect id="PIXEL_IZQUIERDO-2" data-name="PIXEL IZQUIERDO" class="cls-2" x="758.36" y="204.64" width="68.21" height="68.21"/><path id="SONRISA-2" data-name="SONRISA" class="cls-2" d="M1045.35,375.18A17.07,17.07,0,0,1,1061.43,398a68.24,68.24,0,0,1-128.64,0,17.07,17.07,0,0,1,16.08-22.77h0A17.25,17.25,0,0,1,965,386.77a34.12,34.12,0,0,0,64.18,0,17.25,17.25,0,0,1,16.15-11.59Z"/><rect id="PIXEL_SUPERIOR-2" data-name="PIXEL SUPERIOR" class="cls-2" x="928.89" y="102.32" width="68.21" height="68.21"/></g></g></svg>