<svg xmlns="http://www.w3.org/2000/svg" viewBox="0 0 1381.13 263.09"><defs><style>.cls-1{fill:#f7ad4c;}.cls-2{fill:#008fd2;}.cls-3{fill:#fff;}</style></defs><g id="Capa_2" data-name="Capa 2"><g id="Capa_5" data-name="Capa 5"><path class="cls-1" d="M10.09,131.55a86.93,86.93,0,0,0,144.5,65.15l3.09-1.12q8.07-2.87,16.33-5A97,97,0,0,1,0,131.55,97,97,0,0,1,165.64,62.94a96.86,96.86,0,0,1,25.27,44H180.44A87,87,0,0,0,10.09,131.55Z"/><path class="cls-2" d="M229.27,178.47a152.6,152.6,0,0,0-64.85,4.94c-13.22,4-25.85,9.72-39,13.92s-27.19,6.85-40.77,4.34a67.58,67.58,0,0,1-20.71-7.77A92.9,92.9,0,0,1,47.17,182c12.19,5.46,27.33,5.77,40.35,3.86,13.77-2,26.77-7.21,39.67-12.2,6.48-2.5,13-5,19.61-7,14.16-4.37,28.19-6,42.89-3.36,1,.18,2,.38,3,.6C205.61,166.62,217.84,171.94,229.27,178.47Z"/><path class="cls-2" d="M83.84,172.26c-13.2-4.39-25.27-13.42-35.43-22.92-2.95-2.76-6.3-5.88-10.34-5.62-4.83.32-8.06,5.86-7.3,10.65s4.41,8.63,8.45,11.3c12.79,8.44,29.33,7.67,44.62,6.59Z"/><path class="cls-2" d="M82.64,160.4c-11.8-9.08-23.58-20.1-32.51-32.08-8-10.78-16-29.1-6.88-41.68,5.62-7.78,19.19-11.55,27.52-6.14a13.18,13.18,0,0,1,4.4,4.83c3.64,6.86.6,15.87-1.87,22.59-2.15,5.85-4.63,11.85-5.1,18.13C67.26,138.85,75.43,150.67,82.64,160.4Z"/><path class="cls-2" d="M103.88,169.9c9-.15,17.94-4.31,25.61-8.68l3.6-2.09c-3.87,1.28-7.9,2.25-12,1.67-3.63-.52-7.1-1.81-10.61-2.81a28.29,28.29,0,0,0-8.65-1.33c-2.59.08-6,.49-7.64,2.72s-.79,5.37.86,7.34C97.16,169.26,100.55,170,103.88,169.9Z"/><path class="cls-2" d="M99.36,105.9q-5.81,0-8.57-3.12T88,93.37V67.44a5.47,5.47,0,0,1,1.39-4A5.33,5.33,0,0,1,93.37,62a5.51,5.51,0,0,1,4,1.4,5.4,5.4,0,0,1,1.43,4V93a5,5,0,0,0,.87,3.27,2.86,2.86,0,0,0,2.28,1,4.43,4.43,0,0,0,.87-.09c.31-.06.64-.11,1-.15a1.73,1.73,0,0,1,1.55.79,6.64,6.64,0,0,1,.51,3.21,5,5,0,0,1-.85,3.18,4.07,4.07,0,0,1-2.6,1.36l-1.39.18A13,13,0,0,1,99.36,105.9Z"/><path class="cls-2" d="M121.29,105.9a13.81,13.81,0,0,1-6.09-1.27,10.16,10.16,0,0,1-4.12-3.48,8.87,8.87,0,0,1-1.48-5.06,7.4,7.4,0,0,1,1.69-5.15,10,10,0,0,1,5.45-2.69,48.56,48.56,0,0,1,10-.82h3.33v5.09h-3.33a19.19,19.19,0,0,0-3.91.33,4.66,4.66,0,0,0-2.27,1,2.34,2.34,0,0,0-.73,1.79,3,3,0,0,0,1,2.3,4.18,4.18,0,0,0,2.88.91,5.29,5.29,0,0,0,2.69-.67,5.13,5.13,0,0,0,1.91-1.85,5.07,5.07,0,0,0,.73-2.75v-7a3.8,3.8,0,0,0-1.12-3.09,6.27,6.27,0,0,0-3.85-.91,18.54,18.54,0,0,0-3.27.34,23.3,23.3,0,0,0-4.06,1.18,4,4,0,0,1-2.78.18,3.43,3.43,0,0,1-1.79-1.45,4,4,0,0,1-.61-2.24,4.23,4.23,0,0,1,.79-2.31,4.88,4.88,0,0,1,2.33-1.69A26.2,26.2,0,0,1,120,75.14a30.05,30.05,0,0,1,4.52-.37,20.44,20.44,0,0,1,8.2,1.43,9.81,9.81,0,0,1,4.85,4.36,15.61,15.61,0,0,1,1.6,7.54v12.23a5.81,5.81,0,0,1-1.27,4.06,4.74,4.74,0,0,1-3.69,1.39,4.93,4.93,0,0,1-3.79-1.39,5.73,5.73,0,0,1-1.3-4.06V98.76l.36.84a6.94,6.94,0,0,1-1.39,3.33,7.46,7.46,0,0,1-2.85,2.19A9.73,9.73,0,0,1,121.29,105.9Z"/><path class="cls-2" d="M104.27,147.08a21.54,21.54,0,0,1-9.42-1.91,14,14,0,0,1-6.09-5.42,17.2,17.2,0,0,1-.09-16.38,14.44,14.44,0,0,1,5.57-5.45,17.7,17.7,0,0,1,14.15-.91,12.85,12.85,0,0,1,4.66,3.09A13.47,13.47,0,0,1,116,125a19.29,19.29,0,0,1,1,6.36,2.25,2.25,0,0,1-.67,1.79,3.23,3.23,0,0,1-2.12.58H95.67v-5.09h13.44l-1,.79a9.31,9.31,0,0,0-.6-3.64,4.57,4.57,0,0,0-1.79-2.12,5.57,5.57,0,0,0-2.94-.72,5.9,5.9,0,0,0-3.24.87,5.63,5.63,0,0,0-2.09,2.58,10.87,10.87,0,0,0-.72,4.24v.54q0,4.31,1.9,6.15c1.28,1.23,3.24,1.85,5.91,1.85a15.77,15.77,0,0,0,3.06-.34,18.71,18.71,0,0,0,3.3-.94,4,4,0,0,1,2.72-.21,3.44,3.44,0,0,1,1.79,1.34,4,4,0,0,1,.7,2.11,4.29,4.29,0,0,1-.55,2.31,4,4,0,0,1-2,1.72,20.7,20.7,0,0,1-4.51,1.46A24.37,24.37,0,0,1,104.27,147.08Z"/><path class="cls-2" d="M135.34,147.08a38.53,38.53,0,0,1-5.42-.39,18.1,18.1,0,0,1-5-1.43,4.21,4.21,0,0,1-2.15-1.63,3.92,3.92,0,0,1-.61-2.18,3.84,3.84,0,0,1,.67-2.09,3.39,3.39,0,0,1,1.7-1.33,3.32,3.32,0,0,1,2.39.09,32.06,32.06,0,0,0,4.57,1.3,20.72,20.72,0,0,0,3.91.39,6.15,6.15,0,0,0,3.21-.63,1.94,1.94,0,0,0,1-1.67,1.66,1.66,0,0,0-.64-1.39,4,4,0,0,0-1.79-.67l-6.72-1.09a10.46,10.46,0,0,1-5.81-2.75,7.45,7.45,0,0,1-2.06-5.48,8.54,8.54,0,0,1,1.78-5.43,11.52,11.52,0,0,1,4.91-3.51,19.26,19.26,0,0,1,7.18-1.24,29,29,0,0,1,5,.39,16.51,16.51,0,0,1,4.36,1.43,3.51,3.51,0,0,1,1.88,1.57,3.7,3.7,0,0,1,.43,2.15,4.6,4.6,0,0,1-.76,2.06,3.12,3.12,0,0,1-1.73,1.27,4,4,0,0,1-2.54-.15,26.48,26.48,0,0,0-3.54-1.15,12.74,12.74,0,0,0-2.88-.36,6.82,6.82,0,0,0-3.51.66,2,2,0,0,0-1,1.7,1.72,1.72,0,0,0,.54,1.3,3.08,3.08,0,0,0,1.7.7l6.72,1.15a10.73,10.73,0,0,1,6,2.63,7.31,7.31,0,0,1,2.09,5.48,8.84,8.84,0,0,1-3.76,7.61Q141.58,147.08,135.34,147.08Z"/><path class="cls-2" d="M160.65,157.86a5.3,5.3,0,0,1-3.93-1.39,5.5,5.5,0,0,1-1.4-4.06V121.46a5.5,5.5,0,0,1,1.37-4,5.23,5.23,0,0,1,3.9-1.39,5.34,5.34,0,0,1,4,1.39,5.49,5.49,0,0,1,1.36,4V125l-.66-3a7.77,7.77,0,0,1,3.54-4.39A11.43,11.43,0,0,1,175,116a12.06,12.06,0,0,1,11.38,7.21,21.95,21.95,0,0,1,0,16.65A12,12,0,0,1,175,147.08a11.56,11.56,0,0,1-6-1.57,7.79,7.79,0,0,1-3.57-4.12h.72v11a5.42,5.42,0,0,1-1.42,4.06A5.51,5.51,0,0,1,160.65,157.86Zm10.9-18.71a5.17,5.17,0,0,0,2.88-.82,5.48,5.48,0,0,0,2-2.48,11,11,0,0,0,.73-4.33q0-4.07-1.58-5.85a5.1,5.1,0,0,0-4-1.79,5.41,5.41,0,0,0-2.9.79,5.21,5.21,0,0,0-2,2.45,11.09,11.09,0,0,0-.73,4.4q0,4,1.58,5.81A5.12,5.12,0,0,0,171.55,139.15Z"/><path class="cls-2" d="M205.83,147.08a12.69,12.69,0,0,1-6.36-1.42,8.83,8.83,0,0,1-3.72-4.27,18.09,18.09,0,0,1-1.24-7.21V121.46a5.4,5.4,0,0,1,1.39-4,6.56,6.56,0,0,1,8,0,5.44,5.44,0,0,1,1.39,4v13a5,5,0,0,0,.91,3.27,3.47,3.47,0,0,0,2.84,1.09,4.56,4.56,0,0,0,3.58-1.57,6.06,6.06,0,0,0,1.39-4.18V121.46a5.4,5.4,0,0,1,1.39-4,6.56,6.56,0,0,1,8,0,5.4,5.4,0,0,1,1.39,4v20q0,5.44-5.21,5.45a5.34,5.34,0,0,1-3.93-1.39,5.5,5.5,0,0,1-1.4-4.06V138l1,3a10.38,10.38,0,0,1-3.72,4.55A10.1,10.1,0,0,1,205.83,147.08Z"/><path class="cls-2" d="M238.36,147a5.36,5.36,0,0,1-3.94-1.39,5.49,5.49,0,0,1-1.39-4.06v-20a5.49,5.49,0,0,1,1.36-4,5.26,5.26,0,0,1,3.91-1.39,5.14,5.14,0,0,1,3.87,1.39,5.57,5.57,0,0,1,1.34,4v3.33l-.67-3a10.19,10.19,0,0,1,3.79-4.26,10.82,10.82,0,0,1,6-1.61,9.83,9.83,0,0,1,5.6,1.57,8.74,8.74,0,0,1,3.36,4.79h-.84a10.6,10.6,0,0,1,4.18-4.66,11.62,11.62,0,0,1,6.17-1.7,11,11,0,0,1,5.76,1.36,8.33,8.33,0,0,1,3.36,4.24,20.06,20.06,0,0,1,1.12,7.24v12.72a5.46,5.46,0,0,1-1.42,4.06,5.57,5.57,0,0,1-4,1.39,5.36,5.36,0,0,1-3.94-1.39,5.49,5.49,0,0,1-1.39-4.06V129.09a6.86,6.86,0,0,0-.79-3.75,2.91,2.91,0,0,0-2.6-1.15,4,4,0,0,0-3.43,1.57,7.42,7.42,0,0,0-1.18,4.48v11.27a4.87,4.87,0,0,1-5.39,5.45,5.42,5.42,0,0,1-4-1.39,5.5,5.5,0,0,1-1.4-4.06V129.09a6.87,6.87,0,0,0-.78-3.75,2.94,2.94,0,0,0-2.61-1.15,4,4,0,0,0-3.36,1.57,7.35,7.35,0,0,0-1.18,4.48v11.27Q243.81,147,238.36,147Z"/><path class="cls-2" d="M294.68,111.77a6.53,6.53,0,0,1-4.39-1.33,4.84,4.84,0,0,1-1.54-3.88,4.76,4.76,0,0,1,1.54-3.81,6.53,6.53,0,0,1,4.39-1.34,6.62,6.62,0,0,1,4.49,1.34,4.84,4.84,0,0,1,1.51,3.81,4.92,4.92,0,0,1-1.51,3.88A6.62,6.62,0,0,1,294.68,111.77Zm0,35.19a5.11,5.11,0,0,1-3.93-1.51,6.23,6.23,0,0,1-1.4-4.37V122a6.23,6.23,0,0,1,1.4-4.37,5.11,5.11,0,0,1,3.93-1.51,5.29,5.29,0,0,1,4,1.51,6.15,6.15,0,0,1,1.42,4.37v19.13a6.23,6.23,0,0,1-1.39,4.37A5.27,5.27,0,0,1,294.68,147Z"/><path class="cls-2" d="M323.82,147.08a17.43,17.43,0,0,1-7.48-1.39,9.27,9.27,0,0,1-4.4-4.21,15.43,15.43,0,0,1-1.45-7.06v-9.87h-2.06a4.12,4.12,0,0,1-3-1,4,4,0,0,1-1.06-3,3.85,3.85,0,0,1,1.06-2.93,4.2,4.2,0,0,1,3-1h2.06v-3.76a5.49,5.49,0,0,1,1.39-4.06,6.45,6.45,0,0,1,8,0,5.49,5.49,0,0,1,1.39,4.06v3.76h5a4.29,4.29,0,0,1,3.06,1,3.85,3.85,0,0,1,1.06,2.93,4,4,0,0,1-1.06,3,4.21,4.21,0,0,1-3.06,1h-5v9.51a4.5,4.5,0,0,0,1.06,3.3,4.59,4.59,0,0,0,3.36,1.06,7.36,7.36,0,0,0,1.64-.18,6.52,6.52,0,0,1,1.45-.18,1.92,1.92,0,0,1,1.58.57,4.59,4.59,0,0,1,.6,2.88,7.69,7.69,0,0,1-.54,3.06,3.32,3.32,0,0,1-1.94,1.78,11.71,11.71,0,0,1-2.3.52A17.31,17.31,0,0,1,323.82,147.08Z"/><path class="cls-2" d="M346.16,147.08a13.77,13.77,0,0,1-6.08-1.27,10.16,10.16,0,0,1-4.12-3.48,8.88,8.88,0,0,1-1.49-5.06,7.4,7.4,0,0,1,1.7-5.15,10,10,0,0,1,5.45-2.69,48.45,48.45,0,0,1,10-.82H355v5.09h-3.34a19.15,19.15,0,0,0-3.9.33,4.58,4.58,0,0,0-2.27,1,2.34,2.34,0,0,0-.73,1.78,3,3,0,0,0,1,2.31,4.16,4.16,0,0,0,2.88.9,5.44,5.44,0,0,0,2.69-.66,5.14,5.14,0,0,0,2.64-4.6v-7a3.8,3.8,0,0,0-1.12-3.09,6.27,6.27,0,0,0-3.85-.91,17.64,17.64,0,0,0-3.27.34,23.05,23.05,0,0,0-4.06,1.18,4,4,0,0,1-2.78.18,3.43,3.43,0,0,1-1.79-1.45,4,4,0,0,1-.61-2.25,4.14,4.14,0,0,1,.79-2.3,4.83,4.83,0,0,1,2.33-1.69,26.94,26.94,0,0,1,5.36-1.46,31.3,31.3,0,0,1,4.51-.36,20.68,20.68,0,0,1,8.21,1.42,9.9,9.9,0,0,1,4.85,4.36,15.67,15.67,0,0,1,1.6,7.54v12.24a5.81,5.81,0,0,1-1.27,4.06,4.79,4.79,0,0,1-3.7,1.39,5,5,0,0,1-3.78-1.39,5.73,5.73,0,0,1-1.3-4.06v-1.58l.36.85a7.13,7.13,0,0,1-1.39,3.33,7.35,7.35,0,0,1-2.85,2.18A9.58,9.58,0,0,1,346.16,147.08Z"/><rect class="cls-2" x="452.56" width="444.98" height="263.09"/><path class="cls-1" d="M502.57,131.55a86.93,86.93,0,0,0,144.5,65.15l3.09-1.12q8.05-2.87,16.33-5a97,97,0,1,1,16.9-83.69H672.92a87,87,0,0,0-170.35,24.61Z"/><path class="cls-3" d="M721.75,178.47a152.6,152.6,0,0,0-64.85,4.94c-13.22,4-25.85,9.72-39,13.92s-27.19,6.85-40.77,4.34a67.58,67.58,0,0,1-20.71-7.77A93.33,93.33,0,0,1,539.64,182c12.2,5.46,27.34,5.77,40.36,3.86,13.77-2,26.77-7.21,39.67-12.2,6.48-2.5,13-5,19.61-7,14.16-4.37,28.19-6,42.89-3.36,1,.18,2,.38,3,.6C698.09,166.62,710.32,171.94,721.75,178.47Z"/><path class="cls-3" d="M576.32,172.26c-13.2-4.39-25.27-13.42-35.43-22.92-2.95-2.76-6.3-5.88-10.34-5.62-4.83.32-8.06,5.86-7.3,10.65s4.41,8.63,8.45,11.3c12.79,8.44,29.33,7.67,44.62,6.59Z"/><path class="cls-3" d="M575.12,160.4c-11.8-9.08-23.58-20.1-32.51-32.08-8-10.78-16-29.1-6.88-41.68,5.62-7.78,19.19-11.55,27.52-6.14a13.18,13.18,0,0,1,4.4,4.83c3.64,6.86.6,15.87-1.87,22.59-2.15,5.85-4.63,11.85-5.1,18.13C559.74,138.85,567.91,150.67,575.12,160.4Z"/><path class="cls-3" d="M596.36,169.9c9-.15,17.94-4.31,25.61-8.68l3.6-2.09c-3.87,1.28-7.9,2.25-12,1.67-3.63-.52-7.1-1.81-10.61-2.81a28.29,28.29,0,0,0-8.65-1.33c-2.59.08-6,.49-7.64,2.72s-.79,5.37.86,7.34C589.64,169.26,593,170,596.36,169.9Z"/><path class="cls-3" d="M591.84,105.9c-3.88,0-6.73-1-8.57-3.12s-2.75-5.21-2.75-9.41V67.44a5.47,5.47,0,0,1,1.39-4,5.32,5.32,0,0,1,3.93-1.4,5.52,5.52,0,0,1,4,1.4,5.4,5.4,0,0,1,1.43,4V93a5,5,0,0,0,.87,3.27,2.86,2.86,0,0,0,2.28,1,4.43,4.43,0,0,0,.87-.09c.31-.06.64-.11,1-.15a1.73,1.73,0,0,1,1.55.79,6.64,6.64,0,0,1,.51,3.21,5,5,0,0,1-.85,3.18,4.07,4.07,0,0,1-2.6,1.36l-1.39.18A13,13,0,0,1,591.84,105.9Z"/><path class="cls-3" d="M613.77,105.9a13.78,13.78,0,0,1-6.09-1.27,10.16,10.16,0,0,1-4.12-3.48,8.87,8.87,0,0,1-1.48-5.06,7.4,7.4,0,0,1,1.69-5.15,10,10,0,0,1,5.45-2.69,48.56,48.56,0,0,1,10-.82h3.33v5.09h-3.33a19.19,19.19,0,0,0-3.91.33,4.66,4.66,0,0,0-2.27,1,2.34,2.34,0,0,0-.73,1.79,3,3,0,0,0,1,2.3,4.18,4.18,0,0,0,2.88.91,5.29,5.29,0,0,0,2.69-.67,5.13,5.13,0,0,0,1.91-1.85,5.07,5.07,0,0,0,.73-2.75v-7a3.8,3.8,0,0,0-1.12-3.09,6.27,6.27,0,0,0-3.85-.91,18.54,18.54,0,0,0-3.27.34,23.3,23.3,0,0,0-4.06,1.18,4,4,0,0,1-2.78.18,3.43,3.43,0,0,1-1.79-1.45,4,4,0,0,1-.61-2.24,4.23,4.23,0,0,1,.79-2.31,4.88,4.88,0,0,1,2.33-1.69,26.2,26.2,0,0,1,5.36-1.45,30.05,30.05,0,0,1,4.52-.37,20.44,20.44,0,0,1,8.2,1.43,9.81,9.81,0,0,1,4.85,4.36,15.61,15.61,0,0,1,1.6,7.54v12.23a5.81,5.81,0,0,1-1.27,4.06,4.74,4.74,0,0,1-3.69,1.39,4.93,4.93,0,0,1-3.79-1.39,5.73,5.73,0,0,1-1.3-4.06V98.76l.36.84a6.94,6.94,0,0,1-1.39,3.33,7.46,7.46,0,0,1-2.85,2.19A9.73,9.73,0,0,1,613.77,105.9Z"/><path class="cls-3" d="M596.75,147.08a21.54,21.54,0,0,1-9.42-1.91,13.94,13.94,0,0,1-6.09-5.42,17.2,17.2,0,0,1-.09-16.38,14.44,14.44,0,0,1,5.57-5.45,17.7,17.7,0,0,1,14.15-.91,12.85,12.85,0,0,1,4.66,3.09,13.47,13.47,0,0,1,2.94,4.87,19.29,19.29,0,0,1,1,6.36,2.25,2.25,0,0,1-.67,1.79,3.23,3.23,0,0,1-2.12.58H588.15v-5.09h13.44l-1,.79a9.31,9.31,0,0,0-.6-3.64,4.57,4.57,0,0,0-1.79-2.12,5.57,5.57,0,0,0-2.94-.72,5.9,5.9,0,0,0-3.24.87,5.63,5.63,0,0,0-2.09,2.58,10.87,10.87,0,0,0-.72,4.24v.54q0,4.31,1.9,6.15c1.28,1.23,3.24,1.85,5.91,1.85a15.77,15.77,0,0,0,3.06-.34,18.71,18.71,0,0,0,3.3-.94,4,4,0,0,1,2.72-.21,3.44,3.44,0,0,1,1.79,1.34,4,4,0,0,1,.7,2.11,4.29,4.29,0,0,1-.55,2.31,4,4,0,0,1-2,1.72,20.7,20.7,0,0,1-4.51,1.46A24.37,24.37,0,0,1,596.75,147.08Z"/><path class="cls-3" d="M627.82,147.08a38.53,38.53,0,0,1-5.42-.39,18.1,18.1,0,0,1-5-1.43,4.21,4.21,0,0,1-2.15-1.63,3.92,3.92,0,0,1-.61-2.18,3.84,3.84,0,0,1,.67-2.09A3.39,3.39,0,0,1,617,138a3.32,3.32,0,0,1,2.39.09,32.06,32.06,0,0,0,4.57,1.3,20.64,20.64,0,0,0,3.91.39,6.15,6.15,0,0,0,3.21-.63,1.94,1.94,0,0,0,1-1.67,1.66,1.66,0,0,0-.64-1.39,4,4,0,0,0-1.79-.67l-6.72-1.09a10.46,10.46,0,0,1-5.81-2.75,7.45,7.45,0,0,1-2.06-5.48,8.54,8.54,0,0,1,1.78-5.43,11.52,11.52,0,0,1,4.91-3.51,19.26,19.26,0,0,1,7.18-1.24,29,29,0,0,1,5,.39,16.51,16.51,0,0,1,4.36,1.43,3.51,3.51,0,0,1,1.88,1.57,3.7,3.7,0,0,1,.43,2.15,4.6,4.6,0,0,1-.76,2.06,3.12,3.12,0,0,1-1.73,1.27,4,4,0,0,1-2.54-.15,27,27,0,0,0-3.54-1.15,12.74,12.74,0,0,0-2.88-.36,6.82,6.82,0,0,0-3.51.66,2,2,0,0,0-1,1.7,1.72,1.72,0,0,0,.54,1.3,3.08,3.08,0,0,0,1.7.7l6.72,1.15a10.73,10.73,0,0,1,6,2.63,7.3,7.3,0,0,1,2.08,5.48,8.83,8.83,0,0,1-3.75,7.61C635.31,146.18,632,147.08,627.82,147.08Z"/><path class="cls-3" d="M653.13,157.86a5.3,5.3,0,0,1-3.93-1.39,5.5,5.5,0,0,1-1.4-4.06V121.46a5.5,5.5,0,0,1,1.37-4,5.23,5.23,0,0,1,3.9-1.39,5.34,5.34,0,0,1,4,1.39,5.49,5.49,0,0,1,1.36,4V125l-.66-3a7.77,7.77,0,0,1,3.54-4.39,11.43,11.43,0,0,1,6.15-1.67,12.06,12.06,0,0,1,11.38,7.21,21.95,21.95,0,0,1,0,16.65,12,12,0,0,1-11.38,7.27,11.56,11.56,0,0,1-6-1.57,7.79,7.79,0,0,1-3.57-4.12h.72v11a5.42,5.42,0,0,1-1.42,4.06A5.51,5.51,0,0,1,653.13,157.86ZM664,139.15a5.17,5.17,0,0,0,2.88-.82,5.54,5.54,0,0,0,2-2.48,11,11,0,0,0,.73-4.33q0-4.07-1.58-5.85a5.1,5.1,0,0,0-4-1.79,5.41,5.41,0,0,0-2.9.79,5.21,5.21,0,0,0-2,2.45,11.09,11.09,0,0,0-.73,4.4q0,4,1.58,5.81A5.12,5.12,0,0,0,664,139.15Z"/><path class="cls-3" d="M698.31,147.08a12.69,12.69,0,0,1-6.36-1.42,8.83,8.83,0,0,1-3.72-4.27,18.09,18.09,0,0,1-1.24-7.21V121.46a5.4,5.4,0,0,1,1.39-4,6.56,6.56,0,0,1,8,0,5.44,5.44,0,0,1,1.39,4v13a5,5,0,0,0,.91,3.27,3.47,3.47,0,0,0,2.84,1.09,4.56,4.56,0,0,0,3.58-1.57,6.06,6.06,0,0,0,1.39-4.18V121.46a5.4,5.4,0,0,1,1.39-4,6.56,6.56,0,0,1,8,0,5.4,5.4,0,0,1,1.39,4v20q0,5.44-5.21,5.45a5.34,5.34,0,0,1-3.93-1.39,5.5,5.5,0,0,1-1.4-4.06V138l1,3a10.38,10.38,0,0,1-3.72,4.55A10.1,10.1,0,0,1,698.31,147.08Z"/><path class="cls-3" d="M730.84,147a5.36,5.36,0,0,1-3.94-1.39,5.49,5.49,0,0,1-1.39-4.06v-20a5.49,5.49,0,0,1,1.36-4,5.26,5.26,0,0,1,3.91-1.39,5.14,5.14,0,0,1,3.87,1.39,5.57,5.57,0,0,1,1.34,4v3.33l-.67-3a10.23,10.23,0,0,1,3.78-4.26,10.88,10.88,0,0,1,6-1.61,9.83,9.83,0,0,1,5.6,1.57,8.74,8.74,0,0,1,3.36,4.79h-.84a10.55,10.55,0,0,1,4.18-4.66,11.62,11.62,0,0,1,6.17-1.7,11,11,0,0,1,5.76,1.36,8.33,8.33,0,0,1,3.36,4.24,20.06,20.06,0,0,1,1.12,7.24v12.72a5.46,5.46,0,0,1-1.42,4.06,5.57,5.57,0,0,1-4,1.39,5.36,5.36,0,0,1-3.94-1.39,5.49,5.49,0,0,1-1.39-4.06V129.09a6.86,6.86,0,0,0-.79-3.75,2.91,2.91,0,0,0-2.6-1.15,4,4,0,0,0-3.43,1.57,7.42,7.42,0,0,0-1.18,4.48v11.27a4.87,4.87,0,0,1-5.39,5.45,5.42,5.42,0,0,1-4-1.39,5.5,5.5,0,0,1-1.4-4.06V129.09a6.87,6.87,0,0,0-.78-3.75,2.94,2.94,0,0,0-2.61-1.15,4,4,0,0,0-3.36,1.57,7.35,7.35,0,0,0-1.18,4.48v11.27Q736.29,147,730.84,147Z"/><path class="cls-3" d="M787.16,111.77a6.51,6.51,0,0,1-4.39-1.33,4.84,4.84,0,0,1-1.54-3.88,4.76,4.76,0,0,1,1.54-3.81,6.51,6.51,0,0,1,4.39-1.34,6.62,6.62,0,0,1,4.49,1.34,4.84,4.84,0,0,1,1.51,3.81,4.92,4.92,0,0,1-1.51,3.88A6.62,6.62,0,0,1,787.16,111.77Zm0,35.19a5.11,5.11,0,0,1-3.93-1.51,6.23,6.23,0,0,1-1.4-4.37V122a6.23,6.23,0,0,1,1.4-4.37,5.11,5.11,0,0,1,3.93-1.51,5.29,5.29,0,0,1,4,1.51,6.15,6.15,0,0,1,1.42,4.37v19.13a6.23,6.23,0,0,1-1.39,4.37A5.27,5.27,0,0,1,787.16,147Z"/><path class="cls-3" d="M816.29,147.08a17.5,17.5,0,0,1-7.48-1.39,9.3,9.3,0,0,1-4.39-4.21,15.3,15.3,0,0,1-1.45-7.06v-9.87h-2.06a4.12,4.12,0,0,1-3-1,4,4,0,0,1-1.06-3,3.85,3.85,0,0,1,1.06-2.93,4.2,4.2,0,0,1,3-1H803v-3.76a5.49,5.49,0,0,1,1.39-4.06,6.45,6.45,0,0,1,8,0,5.49,5.49,0,0,1,1.39,4.06v3.76h5a4.29,4.29,0,0,1,3.06,1,3.85,3.85,0,0,1,1.06,2.93,4,4,0,0,1-1.06,3,4.21,4.21,0,0,1-3.06,1h-5v9.51a4.5,4.5,0,0,0,1.06,3.3,4.59,4.59,0,0,0,3.36,1.06,7.36,7.36,0,0,0,1.64-.18,6.52,6.52,0,0,1,1.45-.18,1.92,1.92,0,0,1,1.58.57,4.59,4.59,0,0,1,.6,2.88,7.69,7.69,0,0,1-.54,3.06,3.32,3.32,0,0,1-1.94,1.78,11.71,11.71,0,0,1-2.3.52A17.31,17.31,0,0,1,816.29,147.08Z"/><path class="cls-3" d="M838.64,147.08a13.77,13.77,0,0,1-6.08-1.27,10.16,10.16,0,0,1-4.12-3.48,8.88,8.88,0,0,1-1.49-5.06,7.4,7.4,0,0,1,1.7-5.15,10,10,0,0,1,5.45-2.69,48.39,48.39,0,0,1,10-.82h3.34v5.09h-3.34a19.15,19.15,0,0,0-3.9.33,4.58,4.58,0,0,0-2.27,1,2.34,2.34,0,0,0-.73,1.78,3,3,0,0,0,1,2.31,4.16,4.16,0,0,0,2.88.9,5.44,5.44,0,0,0,2.69-.66,5.14,5.14,0,0,0,2.64-4.6v-7a3.8,3.8,0,0,0-1.12-3.09,6.27,6.27,0,0,0-3.85-.91,17.64,17.64,0,0,0-3.27.34,23.05,23.05,0,0,0-4.06,1.18,4,4,0,0,1-2.78.18,3.43,3.43,0,0,1-1.79-1.45,4,4,0,0,1-.61-2.25,4.14,4.14,0,0,1,.79-2.3,4.83,4.83,0,0,1,2.33-1.69,26.94,26.94,0,0,1,5.36-1.46,31.3,31.3,0,0,1,4.51-.36,20.68,20.68,0,0,1,8.21,1.42,9.9,9.9,0,0,1,4.85,4.36,15.78,15.78,0,0,1,1.6,7.54v12.24a5.81,5.81,0,0,1-1.27,4.06,4.79,4.79,0,0,1-3.7,1.39,5,5,0,0,1-3.78-1.39,5.73,5.73,0,0,1-1.3-4.06v-1.58l.36.85a7.13,7.13,0,0,1-1.39,3.33,7.35,7.35,0,0,1-2.85,2.18A9.58,9.58,0,0,1,838.64,147.08Z"/><path d="M1027.12,131.55a86.93,86.93,0,0,0,144.5,65.15l3.1-1.12q8.05-2.87,16.32-5a95.33,95.33,0,0,1-8.37,9.52,97,97,0,1,1,25.27-93.21h-10.47a87,87,0,0,0-170.35,24.61Z"/><path d="M1246.3,178.47a152.61,152.61,0,0,0-64.85,4.94c-13.22,4-25.85,9.72-39,13.92s-27.19,6.85-40.77,4.34a67.52,67.52,0,0,1-20.7-7.77A92.62,92.62,0,0,1,1064.2,182c12.2,5.46,27.33,5.77,40.36,3.86,13.76-2,26.77-7.21,39.66-12.2,6.48-2.5,13-5,19.61-7,14.17-4.37,28.2-6,42.89-3.36,1,.18,2,.38,3,.6C1222.65,166.62,1234.87,171.94,1246.3,178.47Z"/><path d="M1100.87,172.26c-13.2-4.39-25.26-13.42-35.42-22.92-3-2.76-6.31-5.88-10.35-5.62-4.83.32-8,5.86-7.3,10.65s4.42,8.63,8.46,11.3c12.78,8.44,29.33,7.67,44.61,6.59Z"/><path d="M1099.67,160.4c-11.8-9.08-23.58-20.1-32.5-32.08-8-10.78-16-29.1-6.89-41.68,5.63-7.78,19.2-11.55,27.52-6.14a13.12,13.12,0,0,1,4.41,4.83c3.63,6.86.6,15.87-1.87,22.59-2.15,5.85-4.64,11.85-5.1,18.13C1084.29,138.85,1092.47,150.67,1099.67,160.4Z"/><path d="M1120.92,169.9c9-.15,17.93-4.31,25.6-8.68,1.18-.67,2.08-1.2,3.61-2.09-3.88,1.28-7.9,2.25-12,1.67-3.64-.52-7.1-1.81-10.62-2.81a28.25,28.25,0,0,0-8.65-1.33c-2.58.08-6,.49-7.64,2.72s-.78,5.37.86,7.34C1114.19,169.26,1117.58,170,1120.92,169.9Z"/><path d="M1116.4,105.9q-5.82,0-8.57-3.12t-2.76-9.41V67.44a5.47,5.47,0,0,1,1.39-4,5.33,5.33,0,0,1,3.94-1.4,5.52,5.52,0,0,1,4,1.4,5.4,5.4,0,0,1,1.42,4V93a4.94,4.94,0,0,0,.88,3.27,2.82,2.82,0,0,0,2.27,1,4.53,4.53,0,0,0,.88-.09c.3-.06.63-.11,1-.15a1.71,1.71,0,0,1,1.54.79,6.61,6.61,0,0,1,.52,3.21,5.07,5.07,0,0,1-.85,3.18,4.09,4.09,0,0,1-2.61,1.36l-1.39.18A12.9,12.9,0,0,1,1116.4,105.9Z"/><path d="M1138.32,105.9a13.84,13.84,0,0,1-6.09-1.27,10.23,10.23,0,0,1-4.12-3.48,8.87,8.87,0,0,1-1.48-5.06,7.4,7.4,0,0,1,1.7-5.15,10,10,0,0,1,5.45-2.69,48.39,48.39,0,0,1,10-.82h3.33v5.09h-3.33a19.25,19.25,0,0,0-3.91.33,4.71,4.71,0,0,0-2.27,1,2.37,2.37,0,0,0-.72,1.79,3,3,0,0,0,1,2.3,4.13,4.13,0,0,0,2.87.91,5.36,5.36,0,0,0,2.7-.67,5.21,5.21,0,0,0,1.91-1.85,5.15,5.15,0,0,0,.72-2.75v-7a3.77,3.77,0,0,0-1.12-3.09,6.25,6.25,0,0,0-3.84-.91,18.54,18.54,0,0,0-3.27.34,22.81,22.81,0,0,0-4.06,1.18,4,4,0,0,1-2.79.18,3.47,3.47,0,0,1-1.79-1.45,4,4,0,0,1-.6-2.24,4.15,4.15,0,0,1,.79-2.31,4.83,4.83,0,0,1,2.33-1.69,26,26,0,0,1,5.36-1.45,29.93,29.93,0,0,1,4.51-.37,20.49,20.49,0,0,1,8.21,1.43,9.79,9.79,0,0,1,4.84,4.36,15.61,15.61,0,0,1,1.61,7.54v12.23a5.86,5.86,0,0,1-1.27,4.06,4.75,4.75,0,0,1-3.7,1.39,4.89,4.89,0,0,1-3.78-1.39,5.73,5.73,0,0,1-1.31-4.06V98.76l.37.84a7.05,7.05,0,0,1-1.4,3.33,7.35,7.35,0,0,1-2.84,2.19A9.78,9.78,0,0,1,1138.32,105.9Z"/><path d="M1121.3,147.08a21.6,21.6,0,0,1-9.42-1.91,14,14,0,0,1-6.08-5.42,17.2,17.2,0,0,1-.09-16.38,14.44,14.44,0,0,1,5.57-5.45,17.68,17.68,0,0,1,14.14-.91,12.77,12.77,0,0,1,4.66,3.09A13.33,13.33,0,0,1,1133,125a19,19,0,0,1,1,6.36,2.22,2.22,0,0,1-.67,1.79,3.22,3.22,0,0,1-2.12.58H1112.7v-5.09h13.45l-1,.79a9.11,9.11,0,0,0-.61-3.64,4.56,4.56,0,0,0-1.78-2.12,5.57,5.57,0,0,0-2.94-.72,5.9,5.9,0,0,0-3.24.87,5.57,5.57,0,0,0-2.09,2.58,10.68,10.68,0,0,0-.73,4.24v.54q0,4.31,1.91,6.15t5.9,1.85a15.77,15.77,0,0,0,3.06-.34,18.71,18.71,0,0,0,3.3-.94,4,4,0,0,1,2.73-.21,3.48,3.48,0,0,1,1.79,1.34,4.07,4.07,0,0,1,.69,2.11,4.37,4.37,0,0,1-.54,2.31,4,4,0,0,1-2,1.72,21.06,21.06,0,0,1-4.51,1.46A24.47,24.47,0,0,1,1121.3,147.08Z"/><path d="M1152.37,147.08a38.64,38.64,0,0,1-5.42-.39,18.2,18.2,0,0,1-5-1.43,4.26,4.26,0,0,1-2.15-1.63,3.91,3.91,0,0,1-.6-2.18,3.83,3.83,0,0,1,.66-2.09,3.43,3.43,0,0,1,1.7-1.33,3.32,3.32,0,0,1,2.39.09,32.16,32.16,0,0,0,4.58,1.3,20.62,20.62,0,0,0,3.9.39,6.1,6.1,0,0,0,3.21-.63,1.92,1.92,0,0,0,1-1.67,1.65,1.65,0,0,0-.63-1.39,4,4,0,0,0-1.79-.67l-6.72-1.09a10.46,10.46,0,0,1-5.82-2.75,7.49,7.49,0,0,1-2.06-5.48,8.55,8.55,0,0,1,1.79-5.43,11.49,11.49,0,0,1,4.9-3.51,19.29,19.29,0,0,1,7.18-1.24,29.14,29.14,0,0,1,5,.39,16.75,16.75,0,0,1,4.36,1.43,3.55,3.55,0,0,1,1.88,1.57,3.69,3.69,0,0,1,.42,2.15,4.37,4.37,0,0,1-.76,2.06,3.09,3.09,0,0,1-1.72,1.27,4.07,4.07,0,0,1-2.55-.15,26.48,26.48,0,0,0-3.54-1.15,12.74,12.74,0,0,0-2.88-.36,6.87,6.87,0,0,0-3.51.66,2,2,0,0,0-1,1.7,1.69,1.69,0,0,0,.55,1.3,3,3,0,0,0,1.69.7l6.72,1.15a10.67,10.67,0,0,1,6,2.63,7.31,7.31,0,0,1,2.09,5.48,8.82,8.82,0,0,1-3.76,7.61Q1158.61,147.08,1152.37,147.08Z"/><path d="M1177.69,157.86a5.32,5.32,0,0,1-3.94-1.39,5.49,5.49,0,0,1-1.39-4.06V121.46a5.49,5.49,0,0,1,1.36-4,5.26,5.26,0,0,1,3.91-1.39,5.33,5.33,0,0,1,4,1.39,5.5,5.5,0,0,1,1.37,4V125l-.67-3a7.81,7.81,0,0,1,3.54-4.39A11.48,11.48,0,0,1,1192,116a12.09,12.09,0,0,1,11.39,7.21,22.07,22.07,0,0,1,0,16.65,12,12,0,0,1-11.39,7.27,11.58,11.58,0,0,1-6-1.57,7.88,7.88,0,0,1-3.57-4.12h.73v11a5.43,5.43,0,0,1-1.43,4.06A5.49,5.49,0,0,1,1177.69,157.86Zm10.9-18.71a5.17,5.17,0,0,0,2.88-.82,5.52,5.52,0,0,0,2-2.48,10.85,10.85,0,0,0,.73-4.33q0-4.07-1.57-5.85a5.11,5.11,0,0,0-4-1.79,5.47,5.47,0,0,0-2.91.79,5.27,5.27,0,0,0-2,2.45,11.29,11.29,0,0,0-.72,4.4q0,4,1.57,5.81A5.13,5.13,0,0,0,1188.59,139.15Z"/><path d="M1222.87,147.08a12.64,12.64,0,0,1-6.36-1.42,8.8,8.8,0,0,1-3.73-4.27,18.26,18.26,0,0,1-1.24-7.21V121.46a5.41,5.41,0,0,1,1.4-4,6.55,6.55,0,0,1,8,0,5.4,5.4,0,0,1,1.39,4v13a5,5,0,0,0,.91,3.27,3.5,3.5,0,0,0,2.85,1.09,4.55,4.55,0,0,0,3.57-1.57,6.06,6.06,0,0,0,1.39-4.18V121.46a5.41,5.41,0,0,1,1.4-4,6.55,6.55,0,0,1,8,0,5.41,5.41,0,0,1,1.4,4v20q0,5.44-5.21,5.45a5.36,5.36,0,0,1-3.94-1.39,5.49,5.49,0,0,1-1.39-4.06V138l1,3a10.34,10.34,0,0,1-3.73,4.55A10,10,0,0,1,1222.87,147.08Z"/><path d="M1255.39,147a5.34,5.34,0,0,1-3.93-1.39,5.5,5.5,0,0,1-1.4-4.06v-20a5.5,5.5,0,0,1,1.37-4,5.23,5.23,0,0,1,3.9-1.39,5.15,5.15,0,0,1,3.88,1.39,5.57,5.57,0,0,1,1.33,4v3.33l-.67-3a10.19,10.19,0,0,1,3.79-4.26,10.83,10.83,0,0,1,6-1.61,9.85,9.85,0,0,1,5.6,1.57,8.84,8.84,0,0,1,3.36,4.79h-.85a10.6,10.6,0,0,1,4.18-4.66,11.68,11.68,0,0,1,6.18-1.7,10.9,10.9,0,0,1,5.75,1.36,8.28,8.28,0,0,1,3.36,4.24,20.06,20.06,0,0,1,1.12,7.24v12.72a5.42,5.42,0,0,1-1.42,4.06,5.55,5.55,0,0,1-4,1.39,5.34,5.34,0,0,1-3.93-1.39,5.5,5.5,0,0,1-1.4-4.06V129.09a6.87,6.87,0,0,0-.78-3.75,2.94,2.94,0,0,0-2.61-1.15,4,4,0,0,0-3.42,1.57,7.35,7.35,0,0,0-1.18,4.48v11.27a5.5,5.5,0,0,1-1.4,4.06,6.44,6.44,0,0,1-8,0,5.49,5.49,0,0,1-1.39-4.06V129.09a6.86,6.86,0,0,0-.79-3.75,2.92,2.92,0,0,0-2.6-1.15,4,4,0,0,0-3.37,1.57,7.42,7.42,0,0,0-1.18,4.48v11.27C1260.84,145.14,1259,147,1255.39,147Z"/><path d="M1311.72,111.77a6.51,6.51,0,0,1-4.39-1.33,4.85,4.85,0,0,1-1.55-3.88,4.77,4.77,0,0,1,1.55-3.81,6.51,6.51,0,0,1,4.39-1.34,6.59,6.59,0,0,1,4.48,1.34,4.81,4.81,0,0,1,1.51,3.81,4.89,4.89,0,0,1-1.51,3.88A6.59,6.59,0,0,1,1311.72,111.77Zm0,35.19a5.12,5.12,0,0,1-3.94-1.51,6.23,6.23,0,0,1-1.39-4.37V122a6.23,6.23,0,0,1,1.39-4.37,5.12,5.12,0,0,1,3.94-1.51,5.31,5.31,0,0,1,4,1.51,6.19,6.19,0,0,1,1.42,4.37v19.13a6.28,6.28,0,0,1-1.39,4.37A5.29,5.29,0,0,1,1311.72,147Z"/><path d="M1340.85,147.08a17.46,17.46,0,0,1-7.48-1.39,9.25,9.25,0,0,1-4.39-4.21,15.3,15.3,0,0,1-1.46-7.06v-9.87h-2a4.09,4.09,0,0,1-3-1,3.94,3.94,0,0,1-1.06-3,3.81,3.81,0,0,1,1.06-2.93,4.17,4.17,0,0,1,3-1h2v-3.76a5.5,5.5,0,0,1,1.4-4.06,6.44,6.44,0,0,1,8,0,5.5,5.5,0,0,1,1.4,4.06v3.76h5a4.29,4.29,0,0,1,3.06,1,3.81,3.81,0,0,1,1.06,2.93,3.94,3.94,0,0,1-1.06,3,4.21,4.21,0,0,1-3.06,1h-5v9.51a4.5,4.5,0,0,0,1.06,3.3,4.56,4.56,0,0,0,3.36,1.06,7.27,7.27,0,0,0,1.63-.18,6.6,6.6,0,0,1,1.46-.18,1.9,1.9,0,0,1,1.57.57,4.58,4.58,0,0,1,.61,2.88,7.68,7.68,0,0,1-.55,3.06,3.29,3.29,0,0,1-1.94,1.78,11.54,11.54,0,0,1-2.3.52A17.18,17.18,0,0,1,1340.85,147.08Z"/><path d="M1363.2,147.08a13.84,13.84,0,0,1-6.09-1.27,10.16,10.16,0,0,1-4.12-3.48,8.87,8.87,0,0,1-1.48-5.06,7.4,7.4,0,0,1,1.69-5.15,10,10,0,0,1,5.46-2.69,48.39,48.39,0,0,1,10-.82H1372v5.09h-3.33a19.19,19.19,0,0,0-3.91.33,4.62,4.62,0,0,0-2.27,1,2.37,2.37,0,0,0-.73,1.78,3,3,0,0,0,1,2.31,4.18,4.18,0,0,0,2.88.9,5.45,5.45,0,0,0,2.7-.66,5.18,5.18,0,0,0,1.9-1.85,5.09,5.09,0,0,0,.73-2.75v-7a3.77,3.77,0,0,0-1.12-3.09,6.27,6.27,0,0,0-3.85-.91,17.64,17.64,0,0,0-3.27.34,23,23,0,0,0-4,1.18,4,4,0,0,1-2.79.18,3.47,3.47,0,0,1-1.79-1.45,4,4,0,0,1-.6-2.25,4.21,4.21,0,0,1,.78-2.3,4.91,4.91,0,0,1,2.34-1.69,26.58,26.58,0,0,1,5.36-1.46,31.2,31.2,0,0,1,4.51-.36,20.71,20.71,0,0,1,8.21,1.42,9.92,9.92,0,0,1,4.84,4.36,15.66,15.66,0,0,1,1.61,7.54v12.24a5.81,5.81,0,0,1-1.28,4.06,4.77,4.77,0,0,1-3.69,1.39,5,5,0,0,1-3.79-1.39,5.73,5.73,0,0,1-1.3-4.06v-1.58l.36.85a7,7,0,0,1-1.39,3.33,7.24,7.24,0,0,1-2.84,2.18A9.65,9.65,0,0,1,1363.2,147.08Z"/></g></g></svg>