<svg id="Capa_1" data-name="Capa 1" xmlns="http://www.w3.org/2000/svg" viewBox="0 0 1080 1080"><defs><style>.cls-1{fill:#f7ad4c;}.cls-2{fill:#008fd2;}</style></defs><path class="cls-1" d="M29.93,540c0,142.43,115.45,257.89,257.88,257.89a256.82,256.82,0,0,0,170.74-64.63q4.59-1.68,9.18-3.32c15.94-5.66,32.08-10.59,48.43-14.67a289.93,289.93,0,0,1-116.31,89.92A287.91,287.91,0,1,1,566.29,467H535.23C503.74,360.13,404.88,282.11,287.81,282.11,145.38,282.11,29.93,397.57,29.93,540Z"/><path class="cls-2" d="M680.08,679.19a452.58,452.58,0,0,0-192.36,14.64C448.49,705.6,411,722.66,372,735.13S291.37,755.44,251.09,748c-21.65-4-42.26-12.33-61.41-23a275.09,275.09,0,0,1-49.77-35.32c36.18,16.2,81.07,17.11,119.71,11.46,40.83-6,79.4-21.38,117.66-36.18,19.21-7.42,38.47-14.78,58.17-20.84,42-12.94,83.63-17.78,127.22-10,3,.54,6,1.14,9,1.78C609.9,644.05,646.17,659.82,680.08,679.19Z"/><path class="cls-2" d="M248.69,660.77c-39.15-13-74.95-39.8-105.08-68-8.76-8.2-18.71-17.46-30.68-16.67-14.34.94-23.91,17.39-21.66,31.58s13.09,25.59,25.07,33.51c37.93,25,87,22.77,132.35,19.56Z"/><path class="cls-2" d="M245.13,625.6c-35-27-69.94-59.63-96.42-95.17-23.83-32-47.38-86.32-20.42-123.64,16.67-23.08,56.93-34.27,81.62-18.2A38.63,38.63,0,0,1,223,402.92c10.78,20.35,1.78,47.06-5.54,67-6.38,17.35-13.75,35.15-15.13,53.79C199.51,561.65,223.75,596.72,245.13,625.6Z"/><path class="cls-2" d="M308.15,653.76c26.64-.43,53.19-12.76,76-25.74,3.48-2,6.15-3.56,10.69-6.21-11.49,3.8-23.44,6.68-35.6,5-10.78-1.53-21.05-5.36-31.48-8.33-8.35-2.37-16.93-4.24-25.66-4-7.66.25-17.68,1.44-22.66,8.07s-2.32,15.93,2.55,21.79C288.2,651.86,298.26,653.92,308.15,653.76Z"/><path class="cls-2" d="M294.73,463.93q-17.24,0-25.42-9.25t-8.17-27.93v-76.9q0-7.91,4.13-12T277,333.68q7.73,0,11.95,4.14t4.22,12v75.82q0,6.65,2.6,9.7a8.43,8.43,0,0,0,6.74,3.05,13.13,13.13,0,0,0,2.6-.27q1.35-.27,3-.45a5.11,5.11,0,0,1,4.58,2.34q1.53,2.34,1.53,9.52c0,4.19-.84,7.34-2.52,9.43s-4.25,3.45-7.72,4.05c-1,.11-2.34.29-4.13.53A38.27,38.27,0,0,1,294.73,463.93Z"/><path class="cls-2" d="M359.77,463.93a41,41,0,0,1-18.06-3.77,30,30,0,0,1-12.21-10.33,26.24,26.24,0,0,1-4.4-15q0-9.7,5-15.27t16.16-8q11.15-2.42,29.65-2.42h9.88v15.09h-9.88a56.28,56.28,0,0,0-11.59,1,14,14,0,0,0-6.74,3,7.05,7.05,0,0,0-2.15,5.3,8.81,8.81,0,0,0,3,6.83c2,1.8,4.82,2.69,8.54,2.69a16,16,0,0,0,8-2,15.64,15.64,0,0,0,5.66-5.48,15.27,15.27,0,0,0,2.15-8.18V406.62q0-6.47-3.32-9.16T368,394.77a54.22,54.22,0,0,0-9.7,1,70.18,70.18,0,0,0-12,3.5c-3.23,1.2-6,1.38-8.26.54a10.22,10.22,0,0,1-5.3-4.31,11.82,11.82,0,0,1-1.8-6.65,12.33,12.33,0,0,1,2.34-6.83,14.44,14.44,0,0,1,6.92-5,78.81,78.81,0,0,1,15.9-4.31,91.64,91.64,0,0,1,13.38-1.08q14.73,0,24.34,4.22a29.27,29.27,0,0,1,14.38,12.94q4.76,8.72,4.76,22.37v36.29q0,7.9-3.78,12t-11,4.13q-7.36,0-11.22-4.13t-3.87-12v-4.68l1.08,2.52a20.89,20.89,0,0,1-4.13,9.88,21.87,21.87,0,0,1-8.44,6.47A28.85,28.85,0,0,1,359.77,463.93Z"/><path class="cls-2" d="M309.29,586.08q-16.17,0-27.94-5.66a41.39,41.39,0,0,1-18.05-16.08Q257,553.93,257,539.73q0-13.65,6-24a43,43,0,0,1,16.53-16.17,48.62,48.62,0,0,1,24-5.84,49.32,49.32,0,0,1,18,3.14A38,38,0,0,1,335.34,506a39.81,39.81,0,0,1,8.71,14.47,56.55,56.55,0,0,1,3,18.86c0,2.4-.66,4.16-2,5.3s-3.42,1.71-6.29,1.71h-55V531.29h39.88l-2.88,2.33A27.5,27.5,0,0,0,319,522.84a13.51,13.51,0,0,0-5.3-6.29A16.42,16.42,0,0,0,305,514.4a17.43,17.43,0,0,0-9.62,2.6,16.53,16.53,0,0,0-6.19,7.64A31.93,31.93,0,0,0,287,537.21v1.62q0,12.76,5.66,18.24t17.51,5.47a48.44,48.44,0,0,0,9.08-1,57.79,57.79,0,0,0,9.79-2.79c3.11-1.19,5.81-1.4,8.08-.63a10.12,10.12,0,0,1,5.3,4,12.05,12.05,0,0,1,2.07,6.28,12.74,12.74,0,0,1-1.62,6.83,11.73,11.73,0,0,1-5.93,5.12,60.69,60.69,0,0,1-13.38,4.31A71.62,71.62,0,0,1,309.29,586.08Z"/><path class="cls-2" d="M401.45,586.08a113.41,113.41,0,0,1-16.08-1.17,53.31,53.31,0,0,1-14.82-4.22,12.68,12.68,0,0,1-6.38-4.85,11.55,11.55,0,0,1,.18-12.67,10.28,10.28,0,0,1,5-3.95,10.08,10.08,0,0,1,7.1.27A92.85,92.85,0,0,0,390,563.35a60.66,60.66,0,0,0,11.59,1.17q6.64,0,9.52-1.89a5.69,5.69,0,0,0,2.87-4.94,4.88,4.88,0,0,0-1.88-4.13,11.84,11.84,0,0,0-5.3-2l-19.94-3.24q-11.14-2-17.25-8.17t-6.11-16.26a25.23,25.23,0,0,1,5.3-16.08,34,34,0,0,1,14.55-10.42,57.39,57.39,0,0,1,21.29-3.68,85.25,85.25,0,0,1,14.73,1.17,48.89,48.89,0,0,1,12.94,4.22,10.46,10.46,0,0,1,5.57,4.67,10.93,10.93,0,0,1,1.26,6.38,13.34,13.34,0,0,1-2.25,6.1,9.28,9.28,0,0,1-5.12,3.78,12.33,12.33,0,0,1-7.55-.45,75.9,75.9,0,0,0-10.51-3.41,37.3,37.3,0,0,0-8.53-1.08q-7.37,0-10.42,2a5.84,5.84,0,0,0-3.05,5,5.12,5.12,0,0,0,1.61,3.87,9.35,9.35,0,0,0,5,2.06l19.95,3.42q11.49,1.78,17.69,7.81t6.2,16.26q0,14.55-11.14,22.55T401.45,586.08Z"/><path class="cls-2" d="M476.54,618.06q-7.55,0-11.68-4.13t-4.13-12v-91.8q0-7.72,4-11.86t11.59-4.13q7.72,0,11.77,4.13t4,11.86v10.42l-2-8.81a23.14,23.14,0,0,1,10.5-13,34,34,0,0,1,18.24-4.94,35.79,35.79,0,0,1,33.78,21.38q4.85,10.23,4.85,24.79,0,14.19-4.85,24.61a35.58,35.58,0,0,1-33.78,21.56,34.34,34.34,0,0,1-17.79-4.67q-7.9-4.67-10.59-12.22h2.15v32.7q0,7.9-4.22,12T476.54,618.06Zm32.34-55.52a15.12,15.12,0,0,0,8.53-2.42,16.23,16.23,0,0,0,5.84-7.37q2.16-4.93,2.16-12.84,0-12-4.67-17.34a15.14,15.14,0,0,0-11.86-5.3,16,16,0,0,0-8.62,2.34,15.52,15.52,0,0,0-5.93,7.27q-2.16,4.95-2.16,13,0,11.85,4.67,17.25A15.21,15.21,0,0,0,508.88,562.54Z"/><path class="cls-2" d="M610.56,586.08q-11.49,0-18.86-4.22a26.09,26.09,0,0,1-11.05-12.67Q577,560.74,577,547.81V510.09q0-7.9,4.13-11.95t11.86-4q7.72,0,11.85,4T609,510.09v38.62q0,6.46,2.69,9.7c1.8,2.16,4.61,3.24,8.45,3.24A13.5,13.5,0,0,0,630.68,557q4.14-4.68,4.14-12.4V510.09q0-7.9,4.13-11.95t11.86-4c5.14,0,9.1,1.34,11.85,4s4.14,6.68,4.14,11.95v59.46q0,16.17-15.45,16.17-7.56,0-11.68-4.13t-4.13-12V559.13l2.87,8.81a30.65,30.65,0,0,1-11,13.47A29.88,29.88,0,0,1,610.56,586.08Z"/><path class="cls-2" d="M707,585.72q-7.54,0-11.68-4.13t-4.13-12V510.09q0-7.72,4-11.86t11.59-4.13q7.54,0,11.5,4.13t3.95,11.86V520l-2-8.81a30.19,30.19,0,0,1,11.23-12.66,32.21,32.21,0,0,1,17.7-4.76,29,29,0,0,1,16.62,4.67q6.92,4.68,10,14.19h-2.52a31.59,31.59,0,0,1,12.4-13.83,34.59,34.59,0,0,1,18.32-5q10.43,0,17.07,4t10,12.58q3.33,8.53,3.33,21.46v37.73q0,7.91-4.23,12t-11.94,4.13q-7.56,0-11.68-4.13t-4.13-12V532.72q0-7.71-2.34-11.14c-1.56-2.27-4.13-3.41-7.73-3.41q-6.64,0-10.15,4.67t-3.5,13.3v33.41q0,7.91-4.13,12t-11.86,4.13q-7.72,0-11.85-4.13t-4.14-12V532.72q0-7.71-2.33-11.14t-7.73-3.41a11.74,11.74,0,0,0-10,4.67q-3.5,4.68-3.5,13.3v33.41Q723.21,585.72,707,585.72Z"/><path class="cls-2" d="M874.12,481.34q-8.45,0-13-3.95t-4.58-11.5q0-7.36,4.58-11.32t13-3.95q8.8,0,13.29,3.95t4.49,11.32q0,7.55-4.49,11.5T874.12,481.34Zm0,104.38q-7.54,0-11.68-4.49c-2.76-3-4.13-7.31-4.13-12.93V511.52q0-8.44,4.13-12.93t11.68-4.49q7.73,0,12,4.49t4.22,12.93V568.3c0,5.62-1.38,9.94-4.13,12.93S879.39,585.72,874.12,585.72Z"/><path class="cls-2" d="M960.53,586.08q-13.47,0-22.19-4.13a27.47,27.47,0,0,1-13-12.49Q921,561.11,921,548.53V519.25H914.9c-3.84,0-6.8-1-8.9-3s-3.14-5-3.14-8.81,1-6.74,3.14-8.71,5.06-3,8.9-3H921V484.58q0-7.9,4.13-12T937,468.41c5.14,0,9.1,1.37,11.85,4.13s4.13,6.77,4.13,12v11.13h14.74q5.92,0,9.07,3c2.09,2,3.14,4.88,3.14,8.71s-1,6.77-3.14,8.81-5.12,3-9.07,3H953v28.21q0,6.64,3.15,9.79t10,3.14a21.46,21.46,0,0,0,4.85-.54,19.16,19.16,0,0,1,4.31-.54,5.63,5.63,0,0,1,4.67,1.71q1.8,1.89,1.8,8.53a22.47,22.47,0,0,1-1.62,9.07,9.88,9.88,0,0,1-5.75,5.31,37.83,37.83,0,0,1-6.82,1.52A50.68,50.68,0,0,1,960.53,586.08Z"/><path class="cls-2" d="M1026.82,586.08a41.1,41.1,0,0,1-18-3.77A30.11,30.11,0,0,1,996.55,572a26.24,26.24,0,0,1-4.4-15q0-9.71,5-15.28t16.17-8q11.13-2.43,29.64-2.42h9.88v15.09H1043a57.14,57.14,0,0,0-11.59,1,13.8,13.8,0,0,0-6.73,3.06,7,7,0,0,0-2.16,5.3,8.81,8.81,0,0,0,3,6.82q3,2.7,8.54,2.7a15.94,15.94,0,0,0,8-2,15.22,15.22,0,0,0,7.82-13.65V528.77q0-6.46-3.33-9.16t-11.4-2.7a54.14,54.14,0,0,0-9.7,1,70,70,0,0,0-12,3.51c-3.24,1.19-6,1.37-8.27.53a10.17,10.17,0,0,1-5.3-4.31A11.86,11.86,0,0,1,998,511a12.29,12.29,0,0,1,2.33-6.83,14.38,14.38,0,0,1,6.92-5,78.4,78.4,0,0,1,15.9-4.32,93,93,0,0,1,13.38-1.07q14.73,0,24.35,4.22a29.29,29.29,0,0,1,14.37,12.94q4.76,8.72,4.76,22.36v36.29q0,7.91-3.77,12t-11,4.13q-7.37,0-11.23-4.13t-3.86-12v-4.67l1.07,2.52a21,21,0,0,1-4.13,9.88,21.77,21.77,0,0,1-8.44,6.46A28.69,28.69,0,0,1,1026.82,586.08Z"/><path class="cls-2" d="M786.94,982.48a16.45,16.45,0,0,1-8.31-2.1,15.16,15.16,0,0,1-5.78-5.84,18.82,18.82,0,0,1,0-17.28,15,15,0,0,1,5.78-5.77,16.64,16.64,0,0,1,8.31-2.07,15.22,15.22,0,0,1,7.63,1.91,14,14,0,0,1,5.38,5.59,18.56,18.56,0,0,1,2,9,18.82,18.82,0,0,1-2,9,13.91,13.91,0,0,1-5.35,5.65A15.06,15.06,0,0,1,786.94,982.48Zm.31-3.9a12.25,12.25,0,0,0,6.21-1.57,11.37,11.37,0,0,0,4.33-4.45,14.91,14.91,0,0,0,0-13.32,11.5,11.5,0,0,0-4.33-4.42,12.25,12.25,0,0,0-6.21-1.57,12,12,0,0,0-6.12,1.57,11.68,11.68,0,0,0-4.32,4.42,14.58,14.58,0,0,0,0,13.32,11.56,11.56,0,0,0,4.32,4.45A12,12,0,0,0,787.25,978.58Zm12.23,3.59V972.4l.44-6.55-.62-6.55v-23h4.39v45.85Z"/><path class="cls-2" d="M829.7,982.48a17.93,17.93,0,0,1-8.9-2.14,15.43,15.43,0,0,1-6-5.87,16.77,16.77,0,0,1-2.16-8.55,17.18,17.18,0,0,1,2.06-8.53,15.35,15.35,0,0,1,5.69-5.84,16.77,16.77,0,0,1,16.25-.06,14.68,14.68,0,0,1,5.59,5.81,17.69,17.69,0,0,1,2,8.62c0,.2,0,.42,0,.64s0,.47,0,.72H816V964h25.89l-1.73,1.3a12.76,12.76,0,0,0-1.51-6.27,11.12,11.12,0,0,0-4.11-4.3,11.49,11.49,0,0,0-6-1.54,11.7,11.7,0,0,0-6,1.54,10.73,10.73,0,0,0-4.14,4.33,13.27,13.27,0,0,0-1.48,6.36v.68a12.63,12.63,0,0,0,1.64,6.52,11.37,11.37,0,0,0,4.57,4.39,14,14,0,0,0,6.7,1.57,14.44,14.44,0,0,0,5.53-1.05,11.46,11.46,0,0,0,4.42-3.21l2.47,2.84a14,14,0,0,1-5.4,4A18.46,18.46,0,0,1,829.7,982.48Z"/><path class="cls-2" d="M862,982.48a24.68,24.68,0,0,1-7.61-1.15,16.3,16.3,0,0,1-5.62-2.87l2-3.46a18.73,18.73,0,0,0,5.07,2.56,19.21,19.21,0,0,0,6.48,1.09q4.63,0,6.68-1.46a4.5,4.5,0,0,0,2-3.86,3.56,3.56,0,0,0-1.15-2.81,7.62,7.62,0,0,0-3-1.55,38.12,38.12,0,0,0-4.14-.89c-1.53-.25-3-.54-4.54-.87a16.48,16.48,0,0,1-4.11-1.45,8,8,0,0,1-3-2.63,7.73,7.73,0,0,1-1.14-4.44,8,8,0,0,1,1.48-4.76,9.84,9.84,0,0,1,4.36-3.31,18.17,18.17,0,0,1,7-1.2,24.78,24.78,0,0,1,6.3.83,17.36,17.36,0,0,1,5.19,2.2L872.34,956a15,15,0,0,0-4.64-2.14,19.47,19.47,0,0,0-4.94-.64q-4.39,0-6.46,1.51a4.61,4.61,0,0,0-2.07,3.86,3.76,3.76,0,0,0,1.14,2.91,8,8,0,0,0,3,1.63,30.05,30.05,0,0,0,4.14,1c1.51.25,3,.55,4.51.9a20,20,0,0,1,4.14,1.42,7.59,7.59,0,0,1,3,2.53,7.39,7.39,0,0,1,1.14,4.3,7.88,7.88,0,0,1-1.57,4.91,10.09,10.09,0,0,1-4.57,3.21A20.26,20.26,0,0,1,862,982.48Z"/><path class="cls-2" d="M883.4,994.16V949.73h4.2v9.76l-.43,6.49.61,6.55v21.63Zm16.74-11.68a15,15,0,0,1-7.6-2,14.16,14.16,0,0,1-5.41-5.62,18.64,18.64,0,0,1-2-9,18.91,18.91,0,0,1,2-9,13.69,13.69,0,0,1,5.38-5.59,15.41,15.41,0,0,1,7.66-1.91,16.64,16.64,0,0,1,8.31,2.07,14.88,14.88,0,0,1,5.78,5.81,18.8,18.8,0,0,1,0,17.27,15.22,15.22,0,0,1-5.78,5.81A16.45,16.45,0,0,1,900.14,982.48Zm-.31-3.9A12.09,12.09,0,0,0,906,977a11.51,11.51,0,0,0,4.33-4.45,13.4,13.4,0,0,0,1.61-6.64,13.25,13.25,0,0,0-1.61-6.62,11.73,11.73,0,0,0-10.51-6,12,12,0,0,0-6.21,1.61,11.52,11.52,0,0,0-4.32,4.44,13.45,13.45,0,0,0-1.58,6.62,13.61,13.61,0,0,0,1.58,6.64,11.28,11.28,0,0,0,4.32,4.45A12.3,12.3,0,0,0,899.83,978.58Z"/><path class="cls-2" d="M938.7,982.48a16,16,0,0,1-7.23-1.55,10.93,10.93,0,0,1-4.79-4.63,15.93,15.93,0,0,1-1.7-7.73V949.73h4.39v18.35c0,3.46.85,6.06,2.56,7.82a9.6,9.6,0,0,0,7.2,2.62,11.89,11.89,0,0,0,5.9-1.39,9.24,9.24,0,0,0,3.84-4,14.15,14.15,0,0,0,1.32-6.36v-17h4.39v32.44h-4.2v-8.9l.68,1.61a12,12,0,0,1-4.79,5.59A14.08,14.08,0,0,1,938.7,982.48Z"/><path class="cls-2" d="M980.6,982.48a17.9,17.9,0,0,1-8.9-2.14,15.39,15.39,0,0,1-6-5.87,16.77,16.77,0,0,1-2.16-8.55,17.18,17.18,0,0,1,2.07-8.53,15.35,15.35,0,0,1,5.69-5.84,15.68,15.68,0,0,1,8.12-2.13,15.86,15.86,0,0,1,8.13,2.07,14.68,14.68,0,0,1,5.59,5.81,17.69,17.69,0,0,1,2,8.62c0,.2,0,.42,0,.64s0,.47,0,.72H966.88V964h25.89L991,965.3a12.76,12.76,0,0,0-1.52-6.27,11.1,11.1,0,0,0-4.1-4.3,11.53,11.53,0,0,0-6-1.54,11.69,11.69,0,0,0-6,1.54,10.73,10.73,0,0,0-4.14,4.33,13.27,13.27,0,0,0-1.49,6.36v.68a12.73,12.73,0,0,0,1.64,6.52A11.43,11.43,0,0,0,974,977a14,14,0,0,0,6.71,1.57,14.44,14.44,0,0,0,5.53-1.05,11.53,11.53,0,0,0,4.42-3.21l2.47,2.84a13.91,13.91,0,0,1-5.41,4A18.37,18.37,0,0,1,980.6,982.48Zm-5.26-37.82,8.47-7.66h5.87l-10,7.66Z"/><path class="cls-2" d="M1012.85,982.48a24.62,24.62,0,0,1-7.6-1.15,16.3,16.3,0,0,1-5.62-2.87l2-3.46a18.73,18.73,0,0,0,5.07,2.56,19.27,19.27,0,0,0,6.49,1.09q4.64,0,6.67-1.46a4.5,4.5,0,0,0,2-3.86,3.58,3.58,0,0,0-1.14-2.81,7.6,7.6,0,0,0-3-1.55,37.11,37.11,0,0,0-4.14-.89c-1.52-.25-3-.54-4.54-.87a16.77,16.77,0,0,1-4.11-1.45,8.11,8.11,0,0,1-3-2.63,7.73,7.73,0,0,1-1.14-4.44,8.12,8.12,0,0,1,1.48-4.76,9.84,9.84,0,0,1,4.36-3.31,18.2,18.2,0,0,1,7-1.2,24.86,24.86,0,0,1,6.31.83,17.36,17.36,0,0,1,5.19,2.2l-1.92,3.52a15,15,0,0,0-4.63-2.14,19.55,19.55,0,0,0-5-.64q-4.38,0-6.45,1.51a4.61,4.61,0,0,0-2.07,3.86,3.76,3.76,0,0,0,1.14,2.91,7.8,7.8,0,0,0,3,1.63,29.38,29.38,0,0,0,4.14,1c1.5.25,3,.55,4.51.9a20.36,20.36,0,0,1,4.14,1.42,7.72,7.72,0,0,1,3,2.53,7.39,7.39,0,0,1,1.14,4.3,7.89,7.89,0,0,1-1.58,4.91,10,10,0,0,1-4.57,3.21A20.26,20.26,0,0,1,1012.85,982.48Z"/><path class="cls-2" d="M891.9,1017.05a138.11,138.11,0,0,0-58.74,4.47c-12,3.59-23.41,8.8-35.33,12.61s-24.62,6.2-36.92,3.94a61.62,61.62,0,0,1-18.76-7A83.42,83.42,0,0,1,727,1020.24c11,5,24.75,5.23,36.55,3.5,12.47-1.82,24.25-6.53,35.93-11,5.87-2.26,11.75-4.51,17.76-6.36,12.83-4,25.54-5.43,38.85-3q1.38.24,2.76.54C870.47,1006.32,881.55,1011.13,891.9,1017.05Z"/><path class="cls-2" d="M760.17,1011.42c-11.95-4-22.88-12.15-32.08-20.76-2.68-2.5-5.72-5.33-9.37-5.09-4.38.29-7.3,5.31-6.61,9.65s4,7.81,7.65,10.23c11.58,7.65,26.57,6.95,40.41,6Z"/><path class="cls-2" d="M759.09,1000.68c-10.69-8.23-21.36-18.2-29.45-29.06-7.27-9.76-14.46-26.36-6.23-37.75,5.09-7,17.38-10.47,24.92-5.56a11.75,11.75,0,0,1,4,4.38c3.3,6.21.55,14.37-1.69,20.45-2,5.3-4.2,10.74-4.62,16.43C745.16,981.16,752.56,991.87,759.09,1000.68Z"/><path class="cls-2" d="M778.33,1009.28c8.14-.13,16.24-3.89,23.19-7.86,1.07-.6,1.88-1.09,3.27-1.89-3.51,1.16-7.16,2-10.87,1.51a74.43,74.43,0,0,1-9.62-2.54,25.4,25.4,0,0,0-7.83-1.21c-2.34.08-5.4.44-6.92,2.47s-.71,4.86.78,6.65C772.24,1008.7,775.31,1009.33,778.33,1009.28Z"/></svg>