<svg xmlns="http://www.w3.org/2000/svg" viewBox="0 0 722.67 1002.5"><defs><style>.cls-1{fill:#e10098;}</style></defs><g id="Capa_2" data-name="Capa 2"><g id="Capa_1-2" data-name="Capa 1"><path class="cls-1" d="M59.57,838.54a58.34,58.34,0,0,0-36.14,11.71V815.11A23.43,23.43,0,0,0,0,791.68H0V896.14c0,32.64,26.28,59.72,58.91,59.53a58.57,58.57,0,0,0,.66-117.13Zm1.85,93.59A35.14,35.14,0,1,1,93.59,900,35.14,35.14,0,0,1,61.42,932.13Z"/><path class="cls-1" d="M383.71,899.66a58.58,58.58,0,0,0-58.17-61.15c-32.64-.18-58.91,26.89-58.91,59.53V1002.5h0a23.42,23.42,0,0,0,23.42-23.43V943.93a58.57,58.57,0,0,0,93.66-44.27Zm-23.49-5.43a35.14,35.14,0,1,1-32.17-32.18A35.15,35.15,0,0,1,360.22,894.23Z"/><path class="cls-1" d="M425.27,840.22V954H401.78V863.72A23.5,23.5,0,0,1,425.27,840.22Z"/><circle class="cls-1" cx="414.77" cy="809.11" r="17.57"/><path class="cls-1" d="M722.67,793v159.9H699.24V816.38A23.43,23.43,0,0,1,722.67,793Z"/><path class="cls-1" d="M249.79,905.89a58.8,58.8,0,0,0,0-17.57,58.56,58.56,0,0,0-56.65-49.77h-2.52A58.57,58.57,0,0,0,134,888.32a58.8,58.8,0,0,0,0,17.57,58.58,58.58,0,0,0,57.91,49.78,70,70,0,0,0,46.68-17.74L222,921.32a46.68,46.68,0,0,1-29.11,10.91h-1.93a35.15,35.15,0,0,1-33.07-26.34ZM191.88,862a35.14,35.14,0,0,1,34,26.36H157.85A35.15,35.15,0,0,1,191.88,862Z"/><path class="cls-1" d="M680.57,905.86a58.8,58.8,0,0,0,0-17.57,58.56,58.56,0,0,0-56.65-49.76l-1.26,0-1.26,0a58.57,58.57,0,0,0-56.65,49.76,58.8,58.8,0,0,0,0,17.57,58.58,58.58,0,0,0,57.91,49.79,70,70,0,0,0,46.68-17.75l-16.6-16.6a46.68,46.68,0,0,1-29.11,10.91H621.7a35.16,35.16,0,0,1-33.07-26.35Zm-57.91-43.92a35.16,35.16,0,0,1,34,26.35H588.63A35.15,35.15,0,0,1,622.66,861.94Z"/><path class="cls-1" d="M508.2,897.11c0,31.41-26.3,56.88-58.73,56.88v-23.5c19.46,0,35.24-14.94,35.24-33.38s-15.78-33.4-35.24-33.4V840.22C481.9,840.22,508.2,865.69,508.2,897.11Z"/><path class="cls-1" d="M494.05,897.11c0,31.41,26.29,56.88,58.73,56.88v-23.5c-19.46,0-35.24-14.94-35.24-33.38s15.78-33.4,35.24-33.4V840.22C520.34,840.22,494.05,865.69,494.05,897.11Z"/><g id="EXTENSION_LETRA" data-name="EXTENSION LETRA"><path class="cls-1" d="M218.59,103.72V207.43H114.87V0h0A103.72,103.72,0,0,1,218.59,103.72Z"/></g><g id="CIRCULO"><path class="cls-1" d="M633.45,466.73C633.45,609.94,517.37,726,374.16,726S114.87,609.94,114.87,466.73V311.15H218.59V466.73A155.58,155.58,0,1,0,374.16,311.15H218.59V207.43H374.16C517.37,207.43,633.45,323.51,633.45,466.73Z"/></g><g id="PIXEL_IZQUIERDO" data-name="PIXEL IZQUIERDO"><rect class="cls-1" x="11.15" y="207.43" width="103.72" height="103.72"/></g><g id="SONRISA"><path class="cls-1" d="M447.51,466.73A25.94,25.94,0,0,1,472,501.34a103.76,103.76,0,0,1-195.6,0,26,26,0,0,1,24.46-34.61h0a26.22,26.22,0,0,1,24.55,17.62,51.89,51.89,0,0,0,97.58,0,26.23,26.23,0,0,1,24.56-17.62Z"/></g><g id="PIXEL_SUPERIOR" data-name="PIXEL SUPERIOR"><rect class="cls-1" x="270.44" y="51.86" width="103.72" height="103.72"/></g></g></g></svg>